{"glyphs":{"0":{"ha":919,"x_min":56,"x_max":864,"o":"m 282 486 q 294 610 282 554 q 331 706 307 667 q 387 767 354 746 q 460 789 419 789 q 533 767 500 789 q 589 706 565 746 q 625 610 613 667 q 638 486 638 554 q 625 362 638 418 q 589 266 613 306 q 533 205 565 226 q 460 183 500 183 q 387 205 419 183 q 331 266 354 226 q 294 362 307 306 q 282 486 282 418 m 56 486 q 106 215 56 328 q 249 42 157 103 q 460 -18 340 -18 q 674 42 583 -18 q 815 215 765 103 q 864 486 864 328 q 815 757 864 644 q 674 930 765 869 q 460 990 583 990 q 249 930 340 990 q 106 757 157 869 q 56 486 56 644 z "},"1":{"ha":707,"x_min":94,"x_max":561,"o":"m 94 692 l 335 751 l 335 0 l 561 0 l 561 990 l 94 896 l 94 692 z "},"2":{"ha":911,"x_min":28,"x_max":851,"o":"m 28 0 l 851 0 l 851 215 l 463 215 l 689 418 q 790 538 751 472 q 829 683 829 604 q 806 793 829 739 q 735 892 782 847 q 619 965 689 938 q 460 992 550 992 q 248 940 335 992 q 118 803 161 889 q 75 613 75 717 l 306 613 q 323 706 306 665 q 374 768 340 746 q 453 790 408 790 q 511 780 486 790 q 553 752 536 769 q 578 713 569 735 q 586 668 586 690 q 572 595 586 629 q 528 526 557 561 q 461 449 500 492 l 28 0 z "},"3":{"ha":863,"x_min":67,"x_max":821,"o":"m 382 471 q 590 499 497 471 q 738 582 683 526 q 793 721 793 638 q 753 857 793 796 q 638 954 714 918 q 451 990 561 990 q 271 951 349 990 q 151 842 193 911 q 108 688 108 774 l 324 688 q 360 771 324 739 q 451 803 396 803 q 513 791 489 803 q 549 757 536 779 q 561 707 561 735 q 549 657 561 681 q 512 615 536 633 q 455 587 488 597 q 382 576 422 576 l 382 471 m 440 -22 q 644 15 560 -22 q 775 116 729 51 q 821 265 821 181 q 789 392 821 339 q 697 478 757 444 q 558 528 638 513 q 382 544 478 544 l 382 425 q 474 415 435 425 q 538 387 513 406 q 576 343 564 368 q 589 288 589 318 q 571 219 589 247 q 522 179 553 192 q 449 167 490 167 q 374 182 410 167 q 318 229 339 197 q 297 308 297 261 l 67 308 q 92 185 67 244 q 166 78 118 125 q 283 4 214 31 q 440 -22 353 -22 z "},"4":{"ha":969,"x_min":19,"x_max":911,"o":"m 19 172 l 911 172 l 911 372 l 713 372 l 689 342 l 331 342 l 540 632 l 540 260 l 514 244 l 514 0 l 758 0 l 758 972 l 583 972 l 19 172 z "},"5":{"ha":896,"x_min":58,"x_max":840,"o":"m 840 311 q 799 483 840 413 q 690 592 757 554 q 544 629 622 629 q 456 622 499 629 q 375 596 414 614 l 431 769 l 819 769 l 819 972 l 258 972 l 122 411 q 220 449 172 436 q 313 467 268 463 q 396 472 358 472 q 487 458 444 472 q 556 415 529 444 q 583 336 583 385 q 561 258 583 290 q 497 211 539 226 q 396 196 456 196 q 318 209 361 196 q 233 245 275 222 q 150 301 190 268 l 58 108 q 160 46 104 75 q 287 -1 215 17 q 447 -18 358 -18 q 588 1 518 -18 q 715 60 657 19 q 806 163 772 100 q 840 311 840 225 z "},"6":{"ha":929,"x_min":69,"x_max":860,"o":"m 301 342 q 323 428 301 390 q 381 486 344 465 q 465 507 418 507 q 548 486 511 507 q 606 428 585 465 q 628 342 628 390 q 606 255 628 292 q 548 198 585 218 q 465 178 511 178 q 381 198 418 178 q 323 255 344 218 q 301 342 301 292 m 463 968 l 182 611 q 102 486 135 553 q 69 342 69 419 q 123 141 69 222 q 266 19 176 60 q 465 -22 356 -22 q 663 19 574 -22 q 806 141 753 60 q 860 342 860 222 q 834 474 860 415 q 765 573 808 532 q 667 635 721 614 q 560 657 614 657 q 472 646 507 657 q 397 596 436 635 l 446 617 l 760 968 l 463 968 z "},"7":{"ha":838,"x_min":42,"x_max":835,"o":"m 42 753 l 490 753 l 111 0 l 365 0 l 835 972 l 42 972 l 42 753 z "},"8":{"ha":871,"x_min":72,"x_max":799,"o":"m 107 738 q 135 622 107 671 q 211 540 164 572 q 317 492 258 507 q 435 476 375 476 q 553 492 494 476 q 659 540 611 507 q 735 622 707 572 q 764 738 764 671 q 719 877 764 819 q 599 965 674 935 q 435 994 525 994 q 272 965 346 994 q 152 877 197 935 q 107 738 107 819 m 328 715 q 341 773 328 747 q 379 813 354 799 q 435 826 404 826 q 492 813 468 826 q 530 773 517 799 q 543 715 543 747 q 529 657 543 682 q 491 618 515 632 q 435 604 467 604 q 380 618 404 604 q 342 657 356 632 q 328 715 328 682 m 72 264 q 101 144 72 197 q 182 54 131 92 q 299 -3 233 17 q 435 -22 364 -22 q 572 -3 507 -22 q 689 54 638 17 q 769 144 740 92 q 799 264 799 197 q 765 395 799 340 q 677 484 732 450 q 558 534 622 518 q 435 550 494 550 q 311 534 375 550 q 193 484 247 518 q 106 395 139 450 q 72 264 72 340 m 306 300 q 323 364 306 335 q 370 410 340 393 q 435 426 400 426 q 501 410 471 426 q 548 364 531 393 q 565 300 565 335 q 548 228 565 257 q 501 183 531 199 q 435 168 471 168 q 370 183 400 168 q 323 228 340 199 q 306 300 306 257 z "},"9":{"ha":929,"x_min":69,"x_max":860,"o":"m 628 631 q 606 544 628 582 q 548 486 585 507 q 465 465 511 465 q 381 486 418 465 q 323 544 344 507 q 301 631 301 582 q 323 717 301 681 q 381 774 344 754 q 465 794 418 794 q 548 774 511 794 q 606 717 585 754 q 628 631 628 681 m 467 4 l 747 361 q 827 486 794 419 q 860 631 860 553 q 806 832 860 751 q 663 953 753 913 q 465 994 574 994 q 266 953 356 994 q 123 832 176 913 q 69 631 69 751 q 96 499 69 557 q 165 399 122 440 q 262 337 208 358 q 369 315 315 315 q 458 327 422 315 q 532 376 493 339 l 485 356 l 169 4 l 467 4 z "}," ":{"ha":417,"x_min":0,"x_max":0,"o":""}," ":{"ha":417,"x_min":0,"x_max":0,"o":""},"A":{"ha":1021,"x_min":-1,"x_max":1022,"o":"m 256 188 l 769 188 l 754 367 l 272 367 l 256 188 m 510 615 l 647 300 l 639 240 l 756 0 l 1022 0 l 510 1033 l -1 0 l 264 0 l 385 250 l 374 301 l 510 615 z "},"À":{"ha":1021,"x_min":-1,"x_max":1022,"o":"m 256 188 l 769 188 l 754 367 l 272 367 l 256 188 m 510 615 l 647 300 l 639 240 l 756 0 l 1022 0 l 510 1033 l -1 0 l 264 0 l 385 250 l 374 301 l 510 615 m 286 1325 l 536 1117 l 656 1176 l 447 1399 l 286 1325 z "},"Á":{"ha":1021,"x_min":-1,"x_max":1022,"o":"m 256 188 l 769 188 l 754 367 l 272 367 l 256 188 m 510 615 l 647 300 l 639 240 l 756 0 l 1022 0 l 510 1033 l -1 0 l 264 0 l 385 250 l 374 301 l 510 615 m 729 1325 l 569 1399 l 361 1176 l 479 1117 l 729 1325 z "},"Â":{"ha":1021,"x_min":-1,"x_max":1022,"o":"m 256 188 l 769 188 l 754 367 l 272 367 l 256 188 m 510 615 l 647 300 l 639 240 l 756 0 l 1022 0 l 510 1033 l -1 0 l 264 0 l 385 250 l 374 301 l 510 615 m 510 1215 l 638 1096 l 785 1194 l 510 1389 l 236 1194 l 383 1096 l 510 1215 z "},"Ã":{"ha":1021,"x_min":-1,"x_max":1022,"o":"m 256 188 l 769 188 l 754 367 l 272 367 l 256 188 m 510 615 l 647 300 l 639 240 l 756 0 l 1022 0 l 510 1033 l -1 0 l 264 0 l 385 250 l 374 301 l 510 615 m 238 1197 l 338 1111 q 342 1139 338 1122 q 362 1169 347 1156 q 403 1182 376 1182 q 467 1164 438 1182 q 527 1127 496 1146 q 596 1108 558 1108 q 678 1127 640 1108 q 744 1174 717 1146 q 782 1228 771 1203 l 683 1331 q 641 1277 663 1297 q 593 1257 619 1257 q 543 1268 564 1257 q 503 1293 522 1279 q 461 1318 485 1307 q 404 1329 438 1329 q 324 1310 360 1329 q 267 1262 289 1292 q 238 1197 244 1232 z "},"Ä":{"ha":1021,"x_min":-1,"x_max":1022,"o":"m 256 188 l 769 188 l 754 367 l 272 367 l 256 188 m 510 615 l 647 300 l 639 240 l 756 0 l 1022 0 l 510 1033 l -1 0 l 264 0 l 385 250 l 374 301 l 510 615 m 583 1153 q 619 1071 583 1103 q 706 1039 654 1039 q 792 1071 756 1039 q 828 1153 828 1103 q 792 1235 828 1203 q 706 1267 756 1267 q 619 1235 654 1267 q 583 1153 583 1203 m 185 1161 q 220 1081 185 1113 q 307 1049 256 1049 q 393 1081 357 1049 q 429 1161 429 1113 q 393 1243 429 1211 q 307 1275 357 1275 q 220 1243 256 1275 q 185 1161 185 1211 z "},"Å":{"ha":1021,"x_min":-1,"x_max":1022,"o":"m 256 188 l 769 188 l 754 367 l 272 367 l 256 188 m 510 615 l 647 300 l 639 240 l 756 0 l 1022 0 l 510 1033 l -1 0 l 264 0 l 385 250 l 374 301 l 510 615 m 336 1111 q 387 996 336 1040 q 510 951 438 951 q 633 996 582 951 q 683 1111 683 1040 q 633 1228 683 1183 q 510 1272 582 1272 q 387 1228 438 1272 q 336 1111 336 1183 m 446 1111 q 465 1161 446 1143 q 510 1179 483 1179 q 555 1161 536 1179 q 574 1111 574 1143 q 555 1063 574 1081 q 510 1046 536 1046 q 465 1063 483 1046 q 446 1111 446 1081 z "},"Ā":{"ha":1021,"x_min":-1,"x_max":1022,"o":"m 256 188 l 769 188 l 754 367 l 272 367 l 256 188 m 510 615 l 647 300 l 639 240 l 756 0 l 1022 0 l 510 1033 l -1 0 l 264 0 l 385 250 l 374 301 l 510 615 m 253 1117 l 768 1117 l 768 1299 l 253 1299 l 253 1117 z "},"Ă":{"ha":1021,"x_min":-1,"x_max":1022,"o":"m 256 188 l 769 188 l 754 367 l 272 367 l 256 188 m 510 615 l 647 300 l 639 240 l 756 0 l 1022 0 l 510 1033 l -1 0 l 264 0 l 385 250 l 374 301 l 510 615 m 282 1321 q 308 1217 282 1264 q 386 1144 335 1171 q 510 1117 438 1117 q 634 1144 583 1117 q 711 1217 685 1171 q 738 1321 738 1264 l 601 1321 q 590 1277 601 1296 q 558 1248 578 1258 q 510 1238 538 1238 q 463 1248 483 1238 q 431 1277 443 1258 q 419 1321 419 1296 l 282 1321 z "},"Ą":{"ha":1021,"x_min":-1,"x_max":1022,"o":"m 256 188 l 769 188 l 754 367 l 272 367 l 256 188 m 510 615 l 647 300 l 639 240 l 756 0 l 1022 0 l 510 1033 l -1 0 l 264 0 l 385 250 l 374 301 l 510 615 m 960 -154 q 928 -175 946 -168 q 890 -182 911 -182 q 853 -169 865 -182 q 840 -131 840 -156 q 853 -86 840 -108 q 892 -42 867 -64 q 953 0 917 -19 l 896 35 q 803 -20 847 10 q 732 -85 760 -50 q 704 -167 704 -121 q 726 -242 704 -211 q 784 -290 747 -274 q 867 -306 821 -306 q 957 -288 924 -306 q 1006 -250 990 -271 l 960 -154 z "},"B":{"ha":922,"x_min":103,"x_max":861,"o":"m 278 483 l 460 483 q 638 512 561 483 q 760 594 715 540 q 806 725 806 649 q 760 863 806 808 q 638 945 715 918 q 460 972 561 972 l 103 972 l 103 0 l 483 0 q 683 28 599 0 q 815 117 768 57 q 861 274 861 176 q 828 399 861 347 q 742 485 796 451 q 621 535 688 519 q 483 550 554 550 l 278 550 l 278 422 l 457 422 q 520 416 492 422 q 571 396 549 410 q 606 360 593 382 q 618 307 618 338 q 597 233 618 260 q 539 194 575 206 q 457 182 503 182 l 338 182 l 338 790 l 435 790 q 528 765 494 790 q 563 690 563 740 q 547 634 563 657 q 503 599 532 611 q 435 586 475 586 l 278 586 l 278 483 z "},"C":{"ha":974,"x_min":47,"x_max":885,"o":"m 303 486 q 343 640 303 576 q 449 738 383 704 q 594 771 515 771 q 717 753 664 771 q 811 706 769 736 q 885 643 853 676 l 885 896 q 757 968 826 942 q 581 994 688 994 q 365 958 464 994 q 196 854 267 922 q 86 693 125 786 q 47 486 47 600 q 86 279 47 372 q 196 118 125 186 q 365 14 267 50 q 581 -22 464 -22 q 757 4 688 -22 q 885 76 826 31 l 885 329 q 811 267 853 296 q 717 219 769 238 q 594 201 664 201 q 449 235 515 201 q 343 333 383 268 q 303 486 303 397 z "},"Ç":{"ha":974,"x_min":47,"x_max":885,"o":"m 303 486 q 343 640 303 576 q 449 738 383 704 q 594 771 515 771 q 717 753 664 771 q 811 706 769 736 q 885 643 853 676 l 885 896 q 757 968 826 942 q 581 994 688 994 q 365 958 464 994 q 196 854 267 922 q 86 693 125 786 q 47 486 47 600 q 86 279 47 372 q 196 118 125 186 q 365 14 267 50 q 581 -22 464 -22 q 757 4 688 -22 q 885 76 826 31 l 885 329 q 811 267 853 296 q 717 219 769 238 q 594 201 664 201 q 449 235 515 201 q 343 333 383 268 q 303 486 303 397 m 497 67 l 375 -203 q 446 -184 411 -187 q 490 -181 481 -181 q 548 -190 522 -181 q 574 -225 574 -199 q 554 -262 574 -250 q 499 -274 535 -274 q 447 -266 478 -274 q 389 -239 415 -258 l 326 -335 q 422 -377 375 -365 q 526 -389 468 -389 q 611 -372 569 -389 q 681 -322 653 -356 q 708 -237 708 -287 q 688 -162 708 -192 q 638 -117 668 -132 q 581 -103 608 -103 q 554 -103 567 -103 q 531 -107 542 -104 l 650 63 l 497 67 z "},"Ć":{"ha":974,"x_min":47,"x_max":885,"o":"m 303 486 q 343 640 303 576 q 449 738 383 704 q 594 771 515 771 q 717 753 664 771 q 811 706 769 736 q 885 643 853 676 l 885 896 q 757 968 826 942 q 581 994 688 994 q 365 958 464 994 q 196 854 267 922 q 86 693 125 786 q 47 486 47 600 q 86 279 47 372 q 196 118 125 186 q 365 14 267 50 q 581 -22 464 -22 q 757 4 688 -22 q 885 76 826 31 l 885 329 q 811 267 853 296 q 717 219 769 238 q 594 201 664 201 q 449 235 515 201 q 343 333 383 268 q 303 486 303 397 m 761 1286 l 601 1360 l 393 1138 l 511 1078 l 761 1286 z "},"Ĉ":{"ha":974,"x_min":47,"x_max":885,"o":"m 303 486 q 343 640 303 576 q 449 738 383 704 q 594 771 515 771 q 717 753 664 771 q 811 706 769 736 q 885 643 853 676 l 885 896 q 757 968 826 942 q 581 994 688 994 q 365 958 464 994 q 196 854 267 922 q 86 693 125 786 q 47 486 47 600 q 86 279 47 372 q 196 118 125 186 q 365 14 267 50 q 581 -22 464 -22 q 757 4 688 -22 q 885 76 826 31 l 885 329 q 811 267 853 296 q 717 219 769 238 q 594 201 664 201 q 449 235 515 201 q 343 333 383 268 q 303 486 303 397 m 581 1197 l 707 1078 l 854 1176 l 581 1371 l 307 1176 l 454 1078 l 581 1197 z "},"Ċ":{"ha":974,"x_min":47,"x_max":885,"o":"m 303 486 q 343 640 303 576 q 449 738 383 704 q 594 771 515 771 q 717 753 664 771 q 811 706 769 736 q 885 643 853 676 l 885 896 q 757 968 826 942 q 581 994 688 994 q 365 958 464 994 q 196 854 267 922 q 86 693 125 786 q 47 486 47 600 q 86 279 47 372 q 196 118 125 186 q 365 14 267 50 q 581 -22 464 -22 q 757 4 688 -22 q 885 76 826 31 l 885 329 q 811 267 853 296 q 717 219 769 238 q 594 201 664 201 q 449 235 515 201 q 343 333 383 268 q 303 486 303 397 m 424 1192 q 460 1110 424 1142 q 546 1078 496 1078 q 633 1110 597 1078 q 668 1192 668 1142 q 633 1274 668 1242 q 546 1306 597 1306 q 460 1274 496 1306 q 424 1192 424 1242 z "},"Č":{"ha":974,"x_min":47,"x_max":885,"o":"m 303 486 q 343 640 303 576 q 449 738 383 704 q 594 771 515 771 q 717 753 664 771 q 811 706 769 736 q 885 643 853 676 l 885 896 q 757 968 826 942 q 581 994 688 994 q 365 958 464 994 q 196 854 267 922 q 86 693 125 786 q 47 486 47 600 q 86 279 47 372 q 196 118 125 186 q 365 14 267 50 q 581 -22 464 -22 q 757 4 688 -22 q 885 76 826 31 l 885 329 q 811 267 853 296 q 717 219 769 238 q 594 201 664 201 q 449 235 515 201 q 343 333 383 268 q 303 486 303 397 m 581 1253 l 454 1371 l 307 1272 l 581 1078 l 854 1272 l 707 1371 l 581 1253 z "},"D":{"ha":1018,"x_min":103,"x_max":971,"o":"m 103 972 l 103 0 l 344 0 l 344 972 l 103 972 m 450 0 q 726 60 610 0 q 907 228 843 119 q 971 486 971 338 q 907 744 971 636 q 726 913 843 853 q 450 972 610 972 l 258 972 l 258 764 l 442 764 q 549 750 497 764 q 641 704 601 736 q 704 619 681 672 q 728 486 728 565 q 704 353 728 407 q 641 268 681 300 q 549 222 601 236 q 442 208 497 208 l 258 208 l 258 0 l 450 0 z "},"Ď":{"ha":1018,"x_min":103,"x_max":971,"o":"m 103 972 l 103 0 l 344 0 l 344 972 l 103 972 m 450 0 q 726 60 610 0 q 907 228 843 119 q 971 486 971 338 q 907 744 971 636 q 726 913 843 853 q 450 972 610 972 l 258 972 l 258 764 l 442 764 q 549 750 497 764 q 641 704 601 736 q 704 619 681 672 q 728 486 728 565 q 704 353 728 407 q 641 268 681 300 q 549 222 601 236 q 442 208 497 208 l 258 208 l 258 0 l 450 0 m 521 1253 l 394 1371 l 247 1272 l 521 1078 l 796 1272 l 649 1371 l 521 1253 z "},"E":{"ha":838,"x_min":103,"x_max":749,"o":"m 258 0 l 749 0 l 749 193 l 258 193 l 258 0 m 258 779 l 749 779 l 749 972 l 258 972 l 258 779 m 258 417 l 721 417 l 721 606 l 258 606 l 258 417 m 103 972 l 103 0 l 328 0 l 328 972 l 103 972 z "},"È":{"ha":838,"x_min":103,"x_max":749,"o":"m 258 0 l 749 0 l 749 193 l 258 193 l 258 0 m 258 779 l 749 779 l 749 972 l 258 972 l 258 779 m 258 417 l 721 417 l 721 606 l 258 606 l 258 417 m 103 972 l 103 0 l 328 0 l 328 972 l 103 972 m 201 1294 l 451 1086 l 569 1146 l 361 1368 l 201 1294 z "},"É":{"ha":838,"x_min":103,"x_max":749,"o":"m 258 0 l 749 0 l 749 193 l 258 193 l 258 0 m 258 779 l 749 779 l 749 972 l 258 972 l 258 779 m 258 417 l 721 417 l 721 606 l 258 606 l 258 417 m 103 972 l 103 0 l 328 0 l 328 972 l 103 972 m 646 1294 l 485 1368 l 276 1146 l 396 1086 l 646 1294 z "},"Ê":{"ha":838,"x_min":103,"x_max":749,"o":"m 258 0 l 749 0 l 749 193 l 258 193 l 258 0 m 258 779 l 749 779 l 749 972 l 258 972 l 258 779 m 258 417 l 721 417 l 721 606 l 258 606 l 258 417 m 103 972 l 103 0 l 328 0 l 328 972 l 103 972 m 431 1197 l 557 1078 l 704 1176 l 431 1371 l 157 1176 l 304 1078 l 431 1197 z "},"Ë":{"ha":838,"x_min":103,"x_max":749,"o":"m 258 0 l 749 0 l 749 193 l 258 193 l 258 0 m 258 779 l 749 779 l 749 972 l 258 972 l 258 779 m 258 417 l 721 417 l 721 606 l 258 606 l 258 417 m 103 972 l 103 0 l 328 0 l 328 972 l 103 972 m 478 1203 q 514 1121 478 1153 q 600 1089 550 1089 q 687 1121 651 1089 q 722 1203 722 1153 q 687 1284 722 1253 q 600 1315 651 1315 q 514 1284 550 1315 q 478 1203 478 1253 m 140 1203 q 176 1121 140 1153 q 263 1089 211 1089 q 349 1121 313 1089 q 385 1203 385 1153 q 349 1284 385 1253 q 263 1315 313 1315 q 176 1284 211 1315 q 140 1203 140 1253 z "},"Ē":{"ha":838,"x_min":103,"x_max":749,"o":"m 258 0 l 749 0 l 749 193 l 258 193 l 258 0 m 258 779 l 749 779 l 749 972 l 258 972 l 258 779 m 258 417 l 721 417 l 721 606 l 258 606 l 258 417 m 103 972 l 103 0 l 328 0 l 328 972 l 103 972 m 168 1078 l 683 1078 l 683 1260 l 168 1260 l 168 1078 z "},"Ĕ":{"ha":838,"x_min":103,"x_max":749,"o":"m 258 0 l 749 0 l 749 193 l 258 193 l 258 0 m 258 779 l 749 779 l 749 972 l 258 972 l 258 779 m 258 417 l 721 417 l 721 606 l 258 606 l 258 417 m 103 972 l 103 0 l 328 0 l 328 972 l 103 972 m 197 1281 q 224 1178 197 1225 q 301 1105 250 1132 q 425 1078 353 1078 q 549 1105 499 1078 q 626 1178 600 1132 q 653 1281 653 1225 l 515 1281 q 504 1238 515 1257 q 473 1209 493 1219 q 425 1199 453 1199 q 378 1209 399 1199 q 346 1238 357 1219 q 335 1281 335 1257 l 197 1281 z "},"Ė":{"ha":838,"x_min":103,"x_max":749,"o":"m 258 0 l 749 0 l 749 193 l 258 193 l 258 0 m 258 779 l 749 779 l 749 972 l 258 972 l 258 779 m 258 417 l 721 417 l 721 606 l 258 606 l 258 417 m 103 972 l 103 0 l 328 0 l 328 972 l 103 972 m 303 1192 q 339 1110 303 1142 q 425 1078 375 1078 q 512 1110 476 1078 q 547 1192 547 1142 q 512 1274 547 1242 q 425 1306 476 1306 q 339 1274 375 1306 q 303 1192 303 1242 z "},"Ę":{"ha":838,"x_min":103,"x_max":749,"o":"m 258 0 l 749 0 l 749 193 l 258 193 l 258 0 m 258 779 l 749 779 l 749 972 l 258 972 l 258 779 m 258 417 l 721 417 l 721 606 l 258 606 l 258 417 m 103 972 l 103 0 l 328 0 l 328 972 l 103 972 m 554 -154 q 523 -175 540 -168 q 485 -182 506 -182 q 449 -169 461 -182 q 436 -131 436 -156 q 449 -86 436 -108 q 486 -42 461 -64 q 547 0 511 -19 l 490 35 q 398 -20 442 10 q 326 -85 354 -50 q 299 -167 299 -121 q 320 -242 299 -211 q 378 -290 342 -274 q 461 -306 415 -306 q 551 -288 518 -306 q 600 -250 585 -271 l 554 -154 z "},"Ě":{"ha":838,"x_min":103,"x_max":749,"o":"m 258 0 l 749 0 l 749 193 l 258 193 l 258 0 m 258 779 l 749 779 l 749 972 l 258 972 l 258 779 m 258 417 l 721 417 l 721 606 l 258 606 l 258 417 m 103 972 l 103 0 l 328 0 l 328 972 l 103 972 m 425 1253 l 299 1371 l 151 1272 l 425 1078 l 699 1272 l 551 1371 l 425 1253 z "},"F":{"ha":768,"x_min":103,"x_max":693,"o":"m 258 771 l 693 771 l 693 972 l 258 972 l 258 771 m 258 390 l 679 390 l 679 579 l 258 579 l 258 390 m 103 972 l 103 0 l 328 0 l 328 972 l 103 972 z "},"G":{"ha":1131,"x_min":47,"x_max":1083,"o":"m 585 351 l 843 351 q 809 281 831 314 q 757 224 788 249 q 683 187 726 200 q 588 174 640 174 q 435 212 501 174 q 331 320 369 250 q 293 486 293 390 q 333 651 293 583 q 439 754 372 718 q 588 790 506 790 q 728 752 672 790 q 818 656 785 714 l 1026 764 q 917 884 981 832 q 772 965 854 936 q 588 994 690 994 q 374 958 472 994 q 201 856 275 922 q 88 695 128 789 q 47 486 47 601 q 87 276 47 371 q 197 112 126 181 q 365 6 268 43 q 579 -31 463 -31 q 799 13 703 -31 q 958 135 894 57 q 1053 314 1022 213 q 1076 532 1083 415 l 585 532 l 585 351 z "},"Ĝ":{"ha":1131,"x_min":47,"x_max":1083,"o":"m 585 351 l 843 351 q 809 281 831 314 q 757 224 788 249 q 683 187 726 200 q 588 174 640 174 q 435 212 501 174 q 331 320 369 250 q 293 486 293 390 q 333 651 293 583 q 439 754 372 718 q 588 790 506 790 q 728 752 672 790 q 818 656 785 714 l 1026 764 q 917 884 981 832 q 772 965 854 936 q 588 994 690 994 q 374 958 472 994 q 201 856 275 922 q 88 695 128 789 q 47 486 47 601 q 87 276 47 371 q 197 112 126 181 q 365 6 268 43 q 579 -31 463 -31 q 799 13 703 -31 q 958 135 894 57 q 1053 314 1022 213 q 1076 532 1083 415 l 585 532 l 585 351 m 588 1197 l 714 1078 l 861 1176 l 588 1371 l 314 1176 l 461 1078 l 588 1197 z "},"Ğ":{"ha":1131,"x_min":47,"x_max":1083,"o":"m 585 351 l 843 351 q 809 281 831 314 q 757 224 788 249 q 683 187 726 200 q 588 174 640 174 q 435 212 501 174 q 331 320 369 250 q 293 486 293 390 q 333 651 293 583 q 439 754 372 718 q 588 790 506 790 q 728 752 672 790 q 818 656 785 714 l 1026 764 q 917 884 981 832 q 772 965 854 936 q 588 994 690 994 q 374 958 472 994 q 201 856 275 922 q 88 695 128 789 q 47 486 47 601 q 87 276 47 371 q 197 112 126 181 q 365 6 268 43 q 579 -31 463 -31 q 799 13 703 -31 q 958 135 894 57 q 1053 314 1022 213 q 1076 532 1083 415 l 585 532 l 585 351 m 360 1281 q 386 1178 360 1225 q 464 1105 413 1132 q 588 1078 515 1078 q 712 1105 661 1078 q 789 1178 763 1132 q 815 1281 815 1225 l 678 1281 q 667 1238 678 1257 q 635 1209 656 1219 q 588 1199 614 1199 q 540 1209 560 1199 q 508 1238 519 1219 q 497 1281 497 1257 l 360 1281 z "},"Ġ":{"ha":1131,"x_min":47,"x_max":1083,"o":"m 585 351 l 843 351 q 809 281 831 314 q 757 224 788 249 q 683 187 726 200 q 588 174 640 174 q 435 212 501 174 q 331 320 369 250 q 293 486 293 390 q 333 651 293 583 q 439 754 372 718 q 588 790 506 790 q 728 752 672 790 q 818 656 785 714 l 1026 764 q 917 884 981 832 q 772 965 854 936 q 588 994 690 994 q 374 958 472 994 q 201 856 275 922 q 88 695 128 789 q 47 486 47 601 q 87 276 47 371 q 197 112 126 181 q 365 6 268 43 q 579 -31 463 -31 q 799 13 703 -31 q 958 135 894 57 q 1053 314 1022 213 q 1076 532 1083 415 l 585 532 l 585 351 m 465 1192 q 501 1110 465 1142 q 588 1078 538 1078 q 674 1110 639 1078 q 710 1192 710 1142 q 674 1274 710 1242 q 588 1306 639 1306 q 501 1274 538 1306 q 465 1192 465 1242 z "},"Ģ":{"ha":1131,"x_min":47,"x_max":1083,"o":"m 585 351 l 843 351 q 809 281 831 314 q 757 224 788 249 q 683 187 726 200 q 588 174 640 174 q 435 212 501 174 q 331 320 369 250 q 293 486 293 390 q 333 651 293 583 q 439 754 372 718 q 588 790 506 790 q 728 752 672 790 q 818 656 785 714 l 1026 764 q 917 884 981 832 q 772 965 854 936 q 588 994 690 994 q 374 958 472 994 q 201 856 275 922 q 88 695 128 789 q 47 486 47 601 q 87 276 47 371 q 197 112 126 181 q 365 6 268 43 q 579 -31 463 -31 q 799 13 703 -31 q 958 135 894 57 q 1053 314 1022 213 q 1076 532 1083 415 l 585 532 l 585 351 m 492 -114 l 369 -474 l 528 -507 l 703 -160 l 492 -114 z "},"H":{"ha":1092,"x_min":103,"x_max":990,"o":"m 168 407 l 903 407 l 903 618 l 168 618 l 168 407 m 756 972 l 756 0 l 990 0 l 990 972 l 756 972 m 103 972 l 103 0 l 338 0 l 338 972 l 103 972 z "},"Ĥ":{"ha":1092,"x_min":103,"x_max":990,"o":"m 168 407 l 903 407 l 903 618 l 168 618 l 168 407 m 756 972 l 756 0 l 990 0 l 990 972 l 756 972 m 103 972 l 103 0 l 338 0 l 338 972 l 103 972 m 546 1197 l 674 1078 l 821 1176 l 546 1371 l 272 1176 l 419 1078 l 546 1197 z "},"I":{"ha":444,"x_min":103,"x_max":342,"o":"m 103 972 l 103 0 l 342 0 l 342 972 l 103 972 z "},"Ì":{"ha":444,"x_min":-11,"x_max":358,"o":"m 103 972 l 103 0 l 342 0 l 342 972 l 103 972 m -11 1294 l 239 1086 l 358 1146 l 150 1368 l -11 1294 z "},"Í":{"ha":444,"x_min":65,"x_max":433,"o":"m 103 972 l 103 0 l 342 0 l 342 972 l 103 972 m 433 1294 l 274 1368 l 65 1146 l 183 1086 l 433 1294 z "},"Î":{"ha":444,"x_min":-51,"x_max":496,"o":"m 103 972 l 103 0 l 342 0 l 342 972 l 103 972 m 222 1197 l 349 1078 l 496 1176 l 222 1371 l -51 1176 l 96 1078 l 222 1197 z "},"Ï":{"ha":444,"x_min":-68,"x_max":514,"o":"m 103 972 l 103 0 l 342 0 l 342 972 l 103 972 m 269 1192 q 305 1110 269 1142 q 392 1078 340 1078 q 478 1110 442 1078 q 514 1192 514 1142 q 478 1274 514 1242 q 392 1306 442 1306 q 305 1274 340 1306 q 269 1192 269 1242 m -68 1192 q -33 1110 -68 1142 q 53 1078 3 1078 q 140 1110 104 1078 q 175 1192 175 1142 q 140 1274 175 1242 q 53 1306 104 1306 q -33 1274 3 1306 q -68 1192 -68 1242 z "},"Ĩ":{"ha":444,"x_min":-50,"x_max":494,"o":"m 103 972 l 103 0 l 342 0 l 342 972 l 103 972 m -50 1169 l 49 1083 q 54 1111 49 1094 q 74 1141 60 1128 q 115 1154 89 1154 q 179 1135 150 1154 q 240 1099 208 1117 q 308 1081 271 1081 q 390 1099 351 1081 q 456 1146 429 1118 q 494 1199 483 1174 l 396 1301 q 353 1248 375 1268 q 306 1228 332 1228 q 255 1239 275 1228 q 216 1264 235 1250 q 174 1289 197 1278 q 115 1300 150 1300 q 37 1281 72 1300 q -21 1233 1 1263 q -50 1169 -43 1204 z "},"Ī":{"ha":444,"x_min":-36,"x_max":481,"o":"m 103 972 l 103 0 l 342 0 l 342 972 l 103 972 m -36 1078 l 481 1078 l 481 1260 l -36 1260 l -36 1078 z "},"Ĭ":{"ha":444,"x_min":-7,"x_max":450,"o":"m 103 972 l 103 0 l 342 0 l 342 972 l 103 972 m -7 1281 q 20 1178 -7 1225 q 99 1105 47 1132 q 222 1078 150 1078 q 347 1105 296 1078 q 424 1178 397 1132 q 450 1281 450 1225 l 313 1281 q 301 1238 313 1257 q 269 1209 289 1219 q 222 1199 249 1199 q 174 1209 194 1199 q 142 1238 154 1219 q 131 1281 131 1257 l -7 1281 z "},"Į":{"ha":444,"x_min":56,"x_max":358,"o":"m 103 972 l 103 0 l 342 0 l 342 972 l 103 972 m 313 -151 q 281 -172 299 -165 q 243 -179 264 -179 q 206 -166 218 -179 q 193 -128 193 -153 q 206 -83 193 -106 q 244 -39 219 -61 q 306 3 269 -17 l 249 38 q 156 -17 200 13 q 84 -83 113 -47 q 56 -164 56 -118 q 78 -240 56 -208 q 137 -287 100 -272 q 219 -303 174 -303 q 310 -285 276 -303 q 358 -247 343 -268 l 313 -151 z "},"İ":{"ha":444,"x_min":99,"x_max":343,"o":"m 103 972 l 103 0 l 342 0 l 342 972 l 103 972 m 99 1192 q 135 1110 99 1142 q 221 1078 171 1078 q 308 1110 272 1078 q 343 1192 343 1142 q 308 1274 343 1242 q 221 1306 272 1306 q 135 1274 171 1306 q 99 1192 99 1242 z "},"J":{"ha":458,"x_min":-228,"x_max":356,"o":"m -100 -89 l -228 -253 q -158 -290 -199 -272 q -68 -319 -118 -307 q 36 -332 -18 -332 q 158 -317 100 -332 q 261 -273 217 -303 q 331 -194 306 -243 q 356 -75 356 -144 l 356 972 l 103 972 l 103 -22 q 74 -109 103 -83 q 13 -135 44 -135 q -49 -121 -18 -135 q -100 -89 -79 -107 z "},"Ĵ":{"ha":458,"x_min":-228,"x_max":503,"o":"m -100 -89 l -228 -253 q -158 -290 -199 -272 q -68 -319 -118 -307 q 36 -332 -18 -332 q 158 -317 100 -332 q 261 -273 217 -303 q 331 -194 306 -243 q 356 -75 356 -144 l 356 972 l 103 972 l 103 -22 q 74 -109 103 -83 q 13 -135 44 -135 q -49 -121 -18 -135 q -100 -89 -79 -107 m 229 1197 l 356 1078 l 503 1176 l 229 1371 l -46 1176 l 101 1078 l 229 1197 z "},"K":{"ha":971,"x_min":103,"x_max":972,"o":"m 103 972 l 103 0 l 346 0 l 346 972 l 103 972 m 676 972 l 278 510 l 688 0 l 972 0 l 557 517 l 951 972 l 676 972 z "},"Ķ":{"ha":971,"x_min":103,"x_max":972,"o":"m 103 972 l 103 0 l 346 0 l 346 972 l 103 972 m 676 972 l 278 510 l 688 0 l 972 0 l 557 517 l 951 972 l 676 972 m 458 -83 l 336 -443 l 494 -475 l 669 -128 l 458 -83 z "},"L":{"ha":733,"x_min":103,"x_max":728,"o":"m 103 972 l 103 0 l 728 0 l 728 201 l 338 201 l 338 972 l 103 972 z "},"Ĺ":{"ha":733,"x_min":103,"x_max":728,"o":"m 103 972 l 103 0 l 728 0 l 728 201 l 338 201 l 338 972 l 103 972 m 639 1286 l 479 1360 l 271 1138 l 389 1078 l 639 1286 z "},"Ļ":{"ha":733,"x_min":103,"x_max":728,"o":"m 103 972 l 103 0 l 728 0 l 728 201 l 338 201 l 338 972 l 103 972 m 371 -83 l 249 -443 l 407 -475 l 582 -128 l 371 -83 z "},"Ľ":{"ha":733,"x_min":103,"x_max":782,"o":"m 103 972 l 103 0 l 728 0 l 728 201 l 338 201 l 338 972 l 103 972 m 572 994 l 450 635 l 608 603 l 782 950 l 572 994 z "},"M":{"ha":1238,"x_min":47,"x_max":1190,"o":"m 353 496 l 618 90 l 885 496 l 943 0 l 1190 0 l 1033 1021 l 618 428 l 204 1021 l 47 0 l 294 0 l 353 496 z "},"N":{"ha":1103,"x_min":103,"x_max":1000,"o":"m 774 972 l 774 425 l 103 1021 l 103 0 l 328 0 l 328 547 l 1000 -49 l 1000 972 l 774 972 z "},"Ñ":{"ha":1103,"x_min":103,"x_max":1000,"o":"m 774 972 l 774 425 l 103 1021 l 103 0 l 328 0 l 328 547 l 1000 -49 l 1000 972 l 774 972 m 239 1157 l 338 1071 q 343 1099 338 1082 q 363 1128 349 1115 q 403 1142 376 1142 q 467 1123 438 1142 q 528 1086 496 1104 q 597 1068 560 1068 q 678 1087 640 1068 q 744 1133 717 1106 q 783 1186 772 1161 l 685 1289 q 642 1235 664 1256 q 593 1215 619 1215 q 543 1226 564 1215 q 504 1252 522 1238 q 463 1277 486 1267 q 404 1288 439 1288 q 326 1269 361 1288 q 268 1221 290 1250 q 239 1157 246 1192 z "},"Ń":{"ha":1103,"x_min":103,"x_max":1000,"o":"m 774 972 l 774 425 l 103 1021 l 103 0 l 328 0 l 328 547 l 1000 -49 l 1000 972 l 774 972 m 761 1265 l 600 1339 l 392 1117 l 511 1057 l 761 1265 z "},"Ņ":{"ha":1103,"x_min":103,"x_max":1000,"o":"m 506 -75 l 383 -435 l 542 -467 l 714 -119 l 506 -75 m 774 972 l 774 425 l 103 1021 l 103 0 l 328 0 l 328 547 l 1000 -49 l 1000 972 l 774 972 z "},"Ň":{"ha":1103,"x_min":103,"x_max":1000,"o":"m 521 1253 l 394 1371 l 247 1272 l 521 1078 l 794 1272 l 649 1371 l 521 1253 m 774 972 l 774 425 l 103 1021 l 103 0 l 328 0 l 328 547 l 1000 -49 l 1000 972 l 774 972 z "},"O":{"ha":1140,"x_min":47,"x_max":1093,"o":"m 296 486 q 330 638 296 572 q 426 742 364 704 q 571 779 488 779 q 717 742 656 779 q 811 638 778 704 q 844 486 844 572 q 810 334 844 400 q 715 231 776 268 q 571 193 653 193 q 426 231 488 193 q 330 334 364 268 q 296 486 296 400 m 47 486 q 85 279 47 374 q 194 115 124 185 q 360 8 264 46 q 571 -31 456 -31 q 781 8 685 -31 q 947 115 876 46 q 1055 279 1017 185 q 1093 486 1093 374 q 1054 692 1093 599 q 944 853 1015 785 q 778 958 874 921 q 571 994 683 994 q 364 958 460 994 q 197 853 268 921 q 87 692 126 785 q 47 486 47 599 z "},"Ò":{"ha":1140,"x_min":47,"x_max":1093,"o":"m 296 486 q 330 638 296 572 q 426 742 364 704 q 571 779 488 779 q 717 742 656 779 q 811 638 778 704 q 844 486 844 572 q 810 334 844 400 q 715 231 776 268 q 571 193 653 193 q 426 231 488 193 q 330 334 364 268 q 296 486 296 400 m 47 486 q 85 279 47 374 q 194 115 124 185 q 360 8 264 46 q 571 -31 456 -31 q 781 8 685 -31 q 947 115 876 46 q 1055 279 1017 185 q 1093 486 1093 374 q 1054 692 1093 599 q 944 853 1015 785 q 778 958 874 921 q 571 994 683 994 q 364 958 460 994 q 197 853 268 921 q 87 692 126 785 q 47 486 47 599 m 365 1294 l 615 1086 l 733 1146 l 525 1368 l 365 1294 z "},"Ó":{"ha":1140,"x_min":47,"x_max":1093,"o":"m 296 486 q 330 638 296 572 q 426 742 364 704 q 571 779 488 779 q 717 742 656 779 q 811 638 778 704 q 844 486 844 572 q 810 334 844 400 q 715 231 776 268 q 571 193 653 193 q 426 231 488 193 q 330 334 364 268 q 296 486 296 400 m 47 486 q 85 279 47 374 q 194 115 124 185 q 360 8 264 46 q 571 -31 456 -31 q 781 8 685 -31 q 947 115 876 46 q 1055 279 1017 185 q 1093 486 1093 374 q 1054 692 1093 599 q 944 853 1015 785 q 778 958 874 921 q 571 994 683 994 q 364 958 460 994 q 197 853 268 921 q 87 692 126 785 q 47 486 47 599 m 797 1294 l 638 1368 l 429 1146 l 547 1086 l 797 1294 z "},"Ô":{"ha":1140,"x_min":47,"x_max":1093,"o":"m 296 486 q 330 638 296 572 q 426 742 364 704 q 571 779 488 779 q 717 742 656 779 q 811 638 778 704 q 844 486 844 572 q 810 334 844 400 q 715 231 776 268 q 571 193 653 193 q 426 231 488 193 q 330 334 364 268 q 296 486 296 400 m 47 486 q 85 279 47 374 q 194 115 124 185 q 360 8 264 46 q 571 -31 456 -31 q 781 8 685 -31 q 947 115 876 46 q 1055 279 1017 185 q 1093 486 1093 374 q 1054 692 1093 599 q 944 853 1015 785 q 778 958 874 921 q 571 994 683 994 q 364 958 460 994 q 197 853 268 921 q 87 692 126 785 q 47 486 47 599 m 583 1197 l 710 1078 l 857 1176 l 583 1371 l 310 1176 l 456 1078 l 583 1197 z "},"Õ":{"ha":1140,"x_min":47,"x_max":1093,"o":"m 296 486 q 330 638 296 572 q 426 742 364 704 q 571 779 488 779 q 717 742 656 779 q 811 638 778 704 q 844 486 844 572 q 810 334 844 400 q 715 231 776 268 q 571 193 653 193 q 426 231 488 193 q 330 334 364 268 q 296 486 296 400 m 47 486 q 85 279 47 374 q 194 115 124 185 q 360 8 264 46 q 571 -31 456 -31 q 781 8 685 -31 q 947 115 876 46 q 1055 279 1017 185 q 1093 486 1093 374 q 1054 692 1093 599 q 944 853 1015 785 q 778 958 874 921 q 571 994 683 994 q 364 958 460 994 q 197 853 268 921 q 87 692 126 785 q 47 486 47 599 m 307 1165 l 406 1079 q 411 1107 406 1090 q 431 1137 417 1124 q 471 1150 444 1150 q 535 1131 506 1150 q 596 1094 564 1113 q 665 1076 628 1076 q 747 1095 708 1076 q 813 1142 785 1114 q 851 1194 840 1169 l 753 1297 q 710 1244 732 1264 q 663 1224 689 1224 q 612 1235 632 1224 q 573 1260 592 1246 q 531 1285 554 1274 q 472 1296 507 1296 q 394 1277 429 1296 q 336 1229 358 1258 q 307 1165 314 1200 z "},"Ö":{"ha":1140,"x_min":47,"x_max":1093,"o":"m 296 486 q 330 638 296 572 q 426 742 364 704 q 571 779 488 779 q 717 742 656 779 q 811 638 778 704 q 844 486 844 572 q 810 334 844 400 q 715 231 776 268 q 571 193 653 193 q 426 231 488 193 q 330 334 364 268 q 296 486 296 400 m 47 486 q 85 279 47 374 q 194 115 124 185 q 360 8 264 46 q 571 -31 456 -31 q 781 8 685 -31 q 947 115 876 46 q 1055 279 1017 185 q 1093 486 1093 374 q 1054 692 1093 599 q 944 853 1015 785 q 778 958 874 921 q 571 994 683 994 q 364 958 460 994 q 197 853 268 921 q 87 692 126 785 q 47 486 47 599 m 617 1192 q 653 1110 617 1142 q 739 1078 689 1078 q 826 1110 790 1078 q 861 1192 861 1142 q 826 1274 861 1242 q 739 1306 790 1306 q 653 1274 689 1306 q 617 1192 617 1242 m 279 1192 q 315 1110 279 1142 q 401 1078 350 1078 q 488 1110 451 1078 q 524 1192 524 1142 q 488 1274 524 1242 q 401 1306 451 1306 q 315 1274 350 1306 q 279 1192 279 1242 z "},"Ō":{"ha":1140,"x_min":47,"x_max":1093,"o":"m 296 486 q 330 638 296 572 q 426 742 364 704 q 571 779 488 779 q 717 742 656 779 q 811 638 778 704 q 844 486 844 572 q 810 334 844 400 q 715 231 776 268 q 571 193 653 193 q 426 231 488 193 q 330 334 364 268 q 296 486 296 400 m 47 486 q 85 279 47 374 q 194 115 124 185 q 360 8 264 46 q 571 -31 456 -31 q 781 8 685 -31 q 947 115 876 46 q 1055 279 1017 185 q 1093 486 1093 374 q 1054 692 1093 599 q 944 853 1015 785 q 778 958 874 921 q 571 994 683 994 q 364 958 460 994 q 197 853 268 921 q 87 692 126 785 q 47 486 47 599 m 313 1078 l 828 1078 l 828 1260 l 313 1260 l 313 1078 z "},"Ŏ":{"ha":1140,"x_min":47,"x_max":1093,"o":"m 296 486 q 330 638 296 572 q 426 742 364 704 q 571 779 488 779 q 717 742 656 779 q 811 638 778 704 q 844 486 844 572 q 810 334 844 400 q 715 231 776 268 q 571 193 653 193 q 426 231 488 193 q 330 334 364 268 q 296 486 296 400 m 47 486 q 85 279 47 374 q 194 115 124 185 q 360 8 264 46 q 571 -31 456 -31 q 781 8 685 -31 q 947 115 876 46 q 1055 279 1017 185 q 1093 486 1093 374 q 1054 692 1093 599 q 944 853 1015 785 q 778 958 874 921 q 571 994 683 994 q 364 958 460 994 q 197 853 268 921 q 87 692 126 785 q 47 486 47 599 m 342 1281 q 368 1178 342 1225 q 447 1105 394 1132 q 571 1078 499 1078 q 695 1105 644 1078 q 772 1178 746 1132 q 799 1281 799 1225 l 661 1281 q 649 1238 661 1257 q 617 1209 638 1219 q 571 1199 597 1199 q 523 1209 543 1199 q 491 1238 503 1219 q 479 1281 479 1257 l 342 1281 z "},"Ő":{"ha":1140,"x_min":47,"x_max":1093,"o":"m 440 1078 l 642 1332 l 471 1374 l 313 1113 l 440 1078 m 700 1078 l 901 1332 l 729 1374 l 572 1113 l 700 1078 m 296 486 q 330 638 296 572 q 426 742 364 704 q 571 779 488 779 q 717 742 656 779 q 811 638 778 704 q 844 486 844 572 q 810 334 844 400 q 715 231 776 268 q 571 193 653 193 q 426 231 488 193 q 330 334 364 268 q 296 486 296 400 m 47 486 q 85 279 47 374 q 194 115 124 185 q 360 8 264 46 q 571 -31 456 -31 q 781 8 685 -31 q 947 115 876 46 q 1055 279 1017 185 q 1093 486 1093 374 q 1054 692 1093 599 q 944 853 1015 785 q 778 958 874 921 q 571 994 683 994 q 364 958 460 994 q 197 853 268 921 q 87 692 126 785 q 47 486 47 599 z "},"P":{"ha":865,"x_min":103,"x_max":818,"o":"m 103 972 l 103 0 l 338 0 l 338 972 l 103 972 m 250 779 l 440 779 q 551 747 511 779 q 592 654 592 715 q 551 563 592 594 q 440 531 511 531 l 250 531 l 250 338 l 440 338 q 648 376 564 338 q 775 485 732 414 q 818 654 818 557 q 775 825 818 754 q 648 934 732 896 q 440 972 564 972 l 250 972 l 250 779 z "},"Q":{"ha":1199,"x_min":47,"x_max":1207,"o":"m 296 486 q 331 638 296 572 q 429 742 367 704 q 575 779 492 779 q 734 735 668 779 q 835 619 800 692 q 871 460 871 547 q 835 310 871 375 q 738 211 800 246 q 592 176 675 176 q 442 215 510 176 q 335 322 375 253 q 296 486 296 392 m 47 486 q 86 279 47 374 q 197 115 125 185 q 364 8 268 46 q 575 -31 460 -31 q 784 8 689 -31 q 949 115 879 46 q 1056 279 1018 185 q 1093 486 1093 374 q 1055 692 1093 599 q 947 853 1017 785 q 782 958 876 921 q 575 994 688 994 q 368 958 464 994 q 200 853 272 921 q 88 692 128 785 q 47 486 47 599 m 496 417 l 956 -17 l 1207 -17 l 739 417 l 496 417 z "},"R":{"ha":899,"x_min":103,"x_max":893,"o":"m 344 440 l 618 0 l 893 0 l 589 440 l 344 440 m 103 972 l 103 0 l 338 0 l 338 972 l 103 972 m 250 774 l 440 774 q 522 758 488 774 q 574 715 556 743 q 592 646 592 686 q 574 577 592 606 q 522 534 556 549 q 440 519 488 519 l 250 519 l 250 338 l 457 338 q 665 378 582 338 q 792 490 749 418 q 835 654 835 561 q 792 820 835 749 q 665 932 749 892 q 457 972 582 972 l 250 972 l 250 774 z "},"Ŕ":{"ha":899,"x_min":103,"x_max":893,"o":"m 344 440 l 618 0 l 893 0 l 589 440 l 344 440 m 103 972 l 103 0 l 338 0 l 338 972 l 103 972 m 250 774 l 440 774 q 522 758 488 774 q 574 715 556 743 q 592 646 592 686 q 574 577 592 606 q 522 534 556 549 q 440 519 488 519 l 250 519 l 250 338 l 457 338 q 665 378 582 338 q 792 490 749 418 q 835 654 835 561 q 792 820 835 749 q 665 932 749 892 q 457 972 582 972 l 250 972 l 250 774 m 651 1286 l 492 1360 l 283 1138 l 401 1078 l 651 1286 z "},"Ŗ":{"ha":899,"x_min":103,"x_max":893,"o":"m 344 440 l 618 0 l 893 0 l 589 440 l 344 440 m 103 972 l 103 0 l 338 0 l 338 972 l 103 972 m 250 774 l 440 774 q 522 758 488 774 q 574 715 556 743 q 592 646 592 686 q 574 577 592 606 q 522 534 556 549 q 440 519 488 519 l 250 519 l 250 338 l 457 338 q 665 378 582 338 q 792 490 749 418 q 835 654 835 561 q 792 820 835 749 q 665 932 749 892 q 457 972 582 972 l 250 972 l 250 774 m 454 -83 l 332 -443 l 490 -475 l 664 -128 l 454 -83 z "},"Ř":{"ha":899,"x_min":103,"x_max":893,"o":"m 344 440 l 618 0 l 893 0 l 589 440 l 344 440 m 103 972 l 103 0 l 338 0 l 338 972 l 103 972 m 250 774 l 440 774 q 522 758 488 774 q 574 715 556 743 q 592 646 592 686 q 574 577 592 606 q 522 534 556 549 q 440 519 488 519 l 250 519 l 250 338 l 457 338 q 665 378 582 338 q 792 490 749 418 q 835 654 835 561 q 792 820 835 749 q 665 932 749 892 q 457 972 582 972 l 250 972 l 250 774 m 435 1253 l 307 1371 l 161 1272 l 435 1078 l 708 1272 l 561 1371 l 435 1253 z "},"Ȓ":{"ha":899,"x_min":103,"x_max":893,"o":"m 344 440 l 618 0 l 893 0 l 589 440 l 344 440 m 103 972 l 103 0 l 338 0 l 338 972 l 103 972 m 250 774 l 440 774 q 522 758 488 774 q 574 715 556 743 q 592 646 592 686 q 574 577 592 606 q 522 534 556 549 q 440 519 488 519 l 250 519 l 250 338 l 457 338 q 665 378 582 338 q 792 490 749 418 q 835 654 835 561 q 792 820 835 749 q 665 932 749 892 q 457 972 582 972 l 250 972 l 250 774 m 225 1078 q 251 1181 225 1135 q 330 1253 278 1226 q 454 1281 382 1281 q 578 1253 528 1281 q 656 1181 629 1226 q 682 1078 682 1135 l 544 1078 q 533 1121 544 1103 q 501 1150 521 1139 q 454 1161 481 1161 q 406 1150 426 1161 q 374 1121 386 1139 q 363 1078 363 1103 l 225 1078 z "},"S":{"ha":868,"x_min":46,"x_max":814,"o":"m 210 342 l 46 224 q 139 96 79 154 q 280 3 199 38 q 456 -31 361 -31 q 588 -10 524 -31 q 703 49 653 10 q 784 145 754 88 q 814 276 814 203 q 794 385 814 338 q 741 468 775 432 q 663 530 707 504 q 567 575 618 556 q 451 619 499 599 q 377 665 403 640 q 351 724 351 690 q 378 777 351 756 q 454 799 404 799 q 524 784 492 799 q 584 744 557 769 q 632 683 611 718 l 811 783 q 739 882 786 833 q 620 963 692 931 q 451 994 549 994 q 280 962 357 994 q 158 867 203 929 q 113 718 113 804 q 139 595 113 646 q 206 509 165 544 q 291 451 246 474 q 371 417 336 429 q 485 369 442 390 q 547 326 528 349 q 567 265 567 303 q 533 195 567 221 q 449 169 500 169 q 356 190 400 169 q 276 250 313 211 q 210 342 239 289 z "},"Ś":{"ha":868,"x_min":47,"x_max":814,"o":"m 213 349 l 47 232 q 137 94 78 153 q 275 2 196 35 q 443 -31 354 -31 q 640 4 557 -31 q 768 106 722 39 q 814 272 814 174 q 794 384 814 336 q 741 468 775 432 q 662 530 707 504 q 567 574 617 556 q 458 614 510 594 q 375 656 407 633 q 343 713 343 679 q 357 757 343 739 q 397 785 371 775 q 456 796 422 796 q 524 782 493 796 q 578 742 554 768 q 624 679 603 715 l 801 781 q 738 880 782 831 q 622 962 693 929 q 446 994 551 994 q 267 961 344 994 q 147 866 190 928 q 103 721 103 804 q 131 599 103 650 q 199 513 158 549 q 286 456 240 478 q 367 419 332 433 q 467 379 422 399 q 540 334 513 360 q 567 268 567 308 q 553 215 567 236 q 514 184 540 194 q 449 174 488 174 q 377 184 410 174 q 317 217 344 194 q 263 272 289 239 q 213 349 238 306 m 696 1286 l 535 1360 l 326 1138 l 446 1078 l 696 1286 z "},"Ŝ":{"ha":868,"x_min":47,"x_max":814,"o":"m 213 349 l 47 232 q 137 94 78 153 q 275 2 196 35 q 443 -31 354 -31 q 640 4 557 -31 q 768 106 722 39 q 814 272 814 174 q 794 384 814 336 q 741 468 775 432 q 662 530 707 504 q 567 574 617 556 q 458 614 510 594 q 375 656 407 633 q 343 713 343 679 q 357 757 343 739 q 397 785 371 775 q 456 796 422 796 q 524 782 493 796 q 578 742 554 768 q 624 679 603 715 l 801 781 q 738 880 782 831 q 622 962 693 929 q 446 994 551 994 q 267 961 344 994 q 147 866 190 928 q 103 721 103 804 q 131 599 103 650 q 199 513 158 549 q 286 456 240 478 q 367 419 332 433 q 467 379 422 399 q 540 334 513 360 q 567 268 567 308 q 553 215 567 236 q 514 184 540 194 q 449 174 488 174 q 377 184 410 174 q 317 217 344 194 q 263 272 289 239 q 213 349 238 306 m 446 1197 l 572 1078 l 719 1176 l 446 1371 l 172 1176 l 319 1078 l 446 1197 z "},"Ş":{"ha":868,"x_min":47,"x_max":814,"o":"m 213 349 l 47 232 q 137 94 78 153 q 275 2 196 35 q 443 -31 354 -31 q 638 4 554 -31 q 767 106 721 39 q 814 272 814 174 q 794 384 814 336 q 741 468 775 432 q 662 530 707 504 q 567 574 617 556 q 458 614 510 594 q 375 656 407 633 q 343 713 343 679 q 356 757 343 739 q 392 785 368 775 q 450 796 417 796 q 519 782 488 796 q 577 742 551 768 q 624 679 603 715 l 801 781 q 735 883 779 833 q 622 963 692 932 q 446 994 551 994 q 265 960 342 994 q 146 863 189 925 q 103 719 103 801 q 131 595 103 646 q 199 510 158 544 q 286 455 240 476 q 367 419 332 433 q 467 379 422 399 q 540 334 513 360 q 567 268 567 308 q 553 215 567 236 q 514 184 540 194 q 449 174 488 174 q 377 184 410 174 q 317 217 344 194 q 263 272 289 239 q 213 349 238 306 m 404 85 l 282 -186 q 353 -167 318 -171 q 397 -164 388 -164 q 455 -172 429 -164 q 481 -208 481 -181 q 461 -245 481 -233 q 406 -257 442 -257 q 353 -249 385 -257 q 297 -222 322 -242 l 233 -317 q 328 -360 282 -349 q 433 -372 375 -372 q 518 -355 476 -372 q 588 -303 560 -337 q 615 -221 615 -269 q 595 -144 615 -175 q 545 -99 575 -114 q 488 -85 515 -85 q 461 -85 474 -85 q 438 -90 449 -86 l 557 79 l 404 85 z "},"Š":{"ha":868,"x_min":47,"x_max":814,"o":"m 213 349 l 47 232 q 137 94 78 153 q 275 2 196 35 q 443 -31 354 -31 q 640 4 557 -31 q 768 106 722 39 q 814 272 814 174 q 794 384 814 336 q 741 468 775 432 q 662 530 707 504 q 567 574 617 556 q 458 614 510 594 q 375 656 407 633 q 343 713 343 679 q 357 757 343 739 q 397 785 371 775 q 456 796 422 796 q 524 782 493 796 q 578 742 554 768 q 624 679 603 715 l 801 781 q 738 880 782 831 q 622 962 693 929 q 446 994 551 994 q 267 961 344 994 q 147 866 190 928 q 103 721 103 804 q 131 599 103 650 q 199 513 158 549 q 286 456 240 478 q 367 419 332 433 q 467 379 422 399 q 540 334 513 360 q 567 268 567 308 q 553 215 567 236 q 514 184 540 194 q 449 174 488 174 q 377 184 410 174 q 317 217 344 194 q 263 272 289 239 q 213 349 238 306 m 446 1253 l 319 1371 l 172 1272 l 446 1078 l 719 1272 l 572 1371 l 446 1253 z "},"Ș":{"ha":868,"x_min":47,"x_max":814,"o":"m 213 349 l 47 232 q 137 94 78 153 q 275 2 196 35 q 443 -31 354 -31 q 640 4 557 -31 q 768 106 722 39 q 814 272 814 174 q 794 384 814 336 q 741 468 775 432 q 662 530 707 504 q 567 574 617 556 q 458 614 510 594 q 375 656 407 633 q 343 713 343 679 q 357 757 343 739 q 397 785 371 775 q 456 796 422 796 q 524 782 493 796 q 578 742 554 768 q 624 679 603 715 l 801 781 q 738 880 782 831 q 622 962 693 929 q 446 994 551 994 q 267 961 344 994 q 147 866 190 928 q 103 721 103 804 q 131 599 103 650 q 199 513 158 549 q 286 456 240 478 q 367 419 332 433 q 467 379 422 399 q 540 334 513 360 q 567 268 567 308 q 553 215 567 236 q 514 184 540 194 q 449 174 488 174 q 377 184 410 174 q 317 217 344 194 q 263 272 289 239 q 213 349 238 306 m 364 -97 l 242 -457 l 400 -489 l 575 -142 l 364 -97 z "},"T":{"ha":779,"x_min":6,"x_max":775,"o":"m 6 763 l 272 763 l 272 0 l 507 0 l 507 763 l 775 763 l 775 972 l 6 972 l 6 763 z "},"Ţ":{"ha":779,"x_min":6,"x_max":775,"o":"m 314 15 l 192 -256 q 262 -236 228 -240 q 306 -232 296 -232 q 364 -241 338 -232 q 390 -278 390 -250 q 370 -315 390 -303 q 314 -326 350 -326 q 263 -318 294 -326 q 206 -290 232 -310 l 142 -386 q 238 -428 192 -417 q 342 -440 283 -440 q 428 -424 386 -440 q 497 -373 469 -407 q 524 -289 524 -339 q 503 -213 524 -243 q 454 -169 483 -183 q 397 -154 425 -154 q 371 -155 383 -154 q 346 -158 358 -156 l 467 10 l 314 15 m 6 763 l 272 763 l 272 0 l 507 0 l 507 763 l 775 763 l 775 972 l 6 972 l 6 763 z "},"Ť":{"ha":779,"x_min":6,"x_max":775,"o":"m 6 763 l 272 763 l 272 0 l 507 0 l 507 763 l 775 763 l 775 972 l 6 972 l 6 763 m 390 1253 l 263 1371 l 117 1272 l 390 1078 l 664 1272 l 517 1371 l 390 1253 z "},"Ț":{"ha":779,"x_min":6,"x_max":775,"o":"m 6 763 l 272 763 l 272 0 l 507 0 l 507 763 l 775 763 l 775 972 l 6 972 l 6 763 m 346 -83 l 224 -443 l 382 -475 l 557 -128 l 346 -83 z "},"U":{"ha":974,"x_min":96,"x_max":878,"o":"m 96 972 l 96 319 q 126 160 96 228 q 209 48 156 92 q 333 -18 263 4 q 486 -40 404 -40 q 640 -18 568 -40 q 765 48 711 4 q 848 160 818 92 q 878 319 878 228 l 878 972 l 643 972 l 643 336 q 604 217 643 263 q 486 171 565 171 q 369 217 408 171 q 331 336 331 263 l 331 972 l 96 972 z "},"Ù":{"ha":974,"x_min":96,"x_max":878,"o":"m 96 972 l 96 319 q 126 160 96 228 q 209 48 156 92 q 333 -18 263 4 q 486 -40 404 -40 q 640 -18 568 -40 q 765 48 711 4 q 848 160 818 92 q 878 319 878 228 l 878 972 l 643 972 l 643 336 q 604 217 643 263 q 486 171 565 171 q 369 217 408 171 q 331 336 331 263 l 331 972 l 96 972 m 263 1286 l 513 1078 l 632 1138 l 424 1360 l 263 1286 z "},"Ú":{"ha":974,"x_min":96,"x_max":878,"o":"m 96 972 l 96 319 q 126 160 96 228 q 209 48 156 92 q 333 -18 263 4 q 486 -40 404 -40 q 640 -18 568 -40 q 765 48 711 4 q 848 160 818 92 q 878 319 878 228 l 878 972 l 643 972 l 643 336 q 604 217 643 263 q 486 171 565 171 q 369 217 408 171 q 331 336 331 263 l 331 972 l 96 972 m 710 1286 l 550 1360 l 342 1138 l 460 1078 l 710 1286 z "},"Û":{"ha":974,"x_min":96,"x_max":878,"o":"m 96 972 l 96 319 q 126 160 96 228 q 209 48 156 92 q 333 -18 263 4 q 486 -40 404 -40 q 640 -18 568 -40 q 765 48 711 4 q 848 160 818 92 q 878 319 878 228 l 878 972 l 643 972 l 643 336 q 604 217 643 263 q 486 171 565 171 q 369 217 408 171 q 331 336 331 263 l 331 972 l 96 972 m 486 1197 l 614 1078 l 761 1176 l 486 1371 l 213 1176 l 360 1078 l 486 1197 z "},"Ü":{"ha":974,"x_min":96,"x_max":878,"o":"m 96 972 l 96 319 q 126 160 96 228 q 209 48 156 92 q 333 -18 263 4 q 486 -40 404 -40 q 640 -18 568 -40 q 765 48 711 4 q 848 160 818 92 q 878 319 878 228 l 878 972 l 643 972 l 643 336 q 604 217 643 263 q 486 171 565 171 q 369 217 408 171 q 331 336 331 263 l 331 972 l 96 972 m 560 1192 q 595 1110 560 1142 q 682 1078 631 1078 q 768 1110 732 1078 q 804 1192 804 1142 q 768 1274 804 1242 q 682 1306 732 1306 q 595 1274 631 1306 q 560 1192 560 1242 m 169 1192 q 206 1110 169 1142 q 292 1078 242 1078 q 378 1110 343 1078 q 414 1192 414 1142 q 378 1274 414 1242 q 292 1306 343 1306 q 206 1274 242 1306 q 169 1192 169 1242 z "},"Ũ":{"ha":974,"x_min":96,"x_max":878,"o":"m 96 972 l 96 319 q 126 160 96 228 q 209 48 156 92 q 333 -18 263 4 q 486 -40 404 -40 q 640 -18 568 -40 q 765 48 711 4 q 848 160 818 92 q 878 319 878 228 l 878 972 l 643 972 l 643 336 q 604 217 643 263 q 486 171 565 171 q 369 217 408 171 q 331 336 331 263 l 331 972 l 96 972 m 214 1169 l 314 1083 q 319 1111 314 1094 q 338 1141 324 1128 q 379 1154 353 1154 q 443 1135 414 1154 q 503 1099 472 1117 q 572 1081 535 1081 q 655 1099 617 1081 q 720 1146 693 1118 q 758 1199 747 1174 l 660 1301 q 617 1248 639 1268 q 569 1228 596 1228 q 519 1239 540 1228 q 480 1264 499 1250 q 438 1289 461 1278 q 381 1300 414 1300 q 301 1281 336 1300 q 243 1233 265 1263 q 214 1169 221 1204 z "},"Ū":{"ha":974,"x_min":96,"x_max":878,"o":"m 96 972 l 96 319 q 126 160 96 228 q 209 48 156 92 q 333 -18 263 4 q 486 -40 404 -40 q 640 -18 568 -40 q 765 48 711 4 q 848 160 818 92 q 878 319 878 228 l 878 972 l 643 972 l 643 336 q 604 217 643 263 q 486 171 565 171 q 369 217 408 171 q 331 336 331 263 l 331 972 l 96 972 m 229 1078 l 744 1078 l 744 1260 l 229 1260 l 229 1078 z "},"Ŭ":{"ha":974,"x_min":96,"x_max":878,"o":"m 96 972 l 96 319 q 126 160 96 228 q 209 48 156 92 q 333 -18 263 4 q 486 -40 404 -40 q 640 -18 568 -40 q 765 48 711 4 q 848 160 818 92 q 878 319 878 228 l 878 972 l 643 972 l 643 336 q 604 217 643 263 q 486 171 565 171 q 369 217 408 171 q 331 336 331 263 l 331 972 l 96 972 m 258 1281 q 285 1178 258 1225 q 363 1105 311 1132 q 486 1078 414 1078 q 610 1105 560 1078 q 688 1178 661 1132 q 714 1281 714 1225 l 578 1281 q 566 1238 578 1257 q 534 1209 554 1219 q 486 1199 514 1199 q 440 1209 460 1199 q 408 1238 419 1219 q 396 1281 396 1257 l 258 1281 z "},"Ů":{"ha":974,"x_min":96,"x_max":878,"o":"m 96 972 l 96 319 q 126 160 96 228 q 209 48 156 92 q 333 -18 263 4 q 486 -40 404 -40 q 640 -18 568 -40 q 765 48 711 4 q 848 160 818 92 q 878 319 878 228 l 878 972 l 643 972 l 643 336 q 604 217 643 263 q 486 171 565 171 q 369 217 408 171 q 331 336 331 263 l 331 972 l 96 972 m 313 1239 q 363 1123 313 1168 q 486 1078 414 1078 q 609 1123 558 1078 q 660 1239 660 1168 q 609 1355 660 1311 q 486 1399 558 1399 q 363 1355 414 1399 q 313 1239 313 1311 m 422 1239 q 441 1288 422 1269 q 486 1306 460 1306 q 531 1288 513 1306 q 550 1239 550 1269 q 531 1190 550 1207 q 486 1172 513 1172 q 441 1190 460 1172 q 422 1239 422 1207 z "},"Ű":{"ha":974,"x_min":96,"x_max":878,"o":"m 357 1078 l 558 1332 l 388 1374 l 229 1113 l 357 1078 m 617 1078 l 818 1332 l 646 1374 l 489 1113 l 617 1078 m 96 972 l 96 319 q 126 160 96 228 q 209 48 156 92 q 333 -18 263 4 q 486 -40 404 -40 q 640 -18 568 -40 q 765 48 711 4 q 848 160 818 92 q 878 319 878 228 l 878 972 l 643 972 l 643 336 q 604 217 643 263 q 486 171 565 171 q 369 217 408 171 q 331 336 331 263 l 331 972 l 96 972 z "},"Ų":{"ha":974,"x_min":96,"x_max":878,"o":"m 550 -176 q 519 -197 536 -190 q 481 -204 501 -204 q 443 -191 456 -204 q 431 -153 431 -178 q 444 -108 431 -131 q 482 -64 457 -86 q 543 -22 507 -42 l 486 13 q 394 -42 438 -12 q 322 -108 350 -72 q 294 -189 294 -143 q 316 -265 294 -233 q 374 -312 338 -296 q 457 -328 411 -328 q 547 -310 514 -328 q 596 -272 581 -293 l 550 -176 m 96 972 l 96 319 q 126 160 96 228 q 209 48 156 92 q 333 -18 263 4 q 486 -40 404 -40 q 640 -18 568 -40 q 765 48 711 4 q 848 160 818 92 q 878 319 878 228 l 878 972 l 643 972 l 643 336 q 604 217 643 263 q 486 171 565 171 q 369 217 408 171 q 331 336 331 263 l 331 972 l 96 972 z "},"V":{"ha":1021,"x_min":-1,"x_max":1022,"o":"m 510 392 l 272 972 l -1 972 l 510 -61 l 1022 972 l 747 972 l 510 392 z "},"W":{"ha":1479,"x_min":6,"x_max":1474,"o":"m 1006 418 l 739 1021 l 475 418 l 283 972 l 6 972 l 426 -57 l 739 529 l 1053 -57 l 1474 972 l 1194 972 l 1006 418 z "},"Ŵ":{"ha":1479,"x_min":6,"x_max":1474,"o":"m 1013 394 l 739 1021 l 465 394 l 283 972 l 6 972 l 426 -57 l 739 529 l 1053 -57 l 1474 972 l 1194 972 l 1013 394 m 739 1224 l 867 1104 l 1014 1203 l 739 1397 l 465 1203 l 613 1104 l 739 1224 z "},"Ẁ":{"ha":1479,"x_min":6,"x_max":1474,"o":"m 739 1104 l 857 1163 l 649 1385 l 489 1313 l 739 1104 m 1006 418 l 739 1021 l 475 418 l 283 972 l 6 972 l 426 -57 l 739 529 l 1053 -57 l 1474 972 l 1194 972 l 1006 418 z "},"Ẃ":{"ha":1479,"x_min":6,"x_max":1474,"o":"m 739 1104 l 989 1313 l 829 1385 l 621 1163 l 739 1104 m 1006 418 l 739 1021 l 475 418 l 283 972 l 6 972 l 426 -57 l 739 529 l 1053 -57 l 1474 972 l 1194 972 l 1006 418 z "},"Ẅ":{"ha":1479,"x_min":6,"x_max":1474,"o":"m 786 1218 q 822 1136 786 1168 q 908 1104 858 1104 q 995 1136 960 1104 q 1031 1218 1031 1168 q 995 1300 1031 1268 q 908 1332 960 1332 q 822 1300 858 1332 q 786 1218 786 1268 m 449 1218 q 484 1136 449 1168 q 571 1104 519 1104 q 657 1136 621 1104 q 693 1218 693 1168 q 657 1300 693 1268 q 571 1332 621 1332 q 484 1300 519 1332 q 449 1218 449 1268 m 1006 418 l 739 1021 l 475 418 l 283 972 l 6 972 l 426 -57 l 739 529 l 1053 -57 l 1474 972 l 1194 972 l 1006 418 z "},"Ẇ":{"ha":1479,"x_min":6,"x_max":1474,"o":"m 617 1218 q 653 1136 617 1168 q 739 1104 689 1104 q 826 1136 790 1104 q 861 1218 861 1168 q 826 1300 861 1268 q 739 1332 790 1332 q 653 1300 689 1332 q 617 1218 617 1268 m 1006 418 l 739 1021 l 475 418 l 283 972 l 6 972 l 426 -57 l 739 529 l 1053 -57 l 1474 972 l 1194 972 l 1006 418 z "},"Ẉ":{"ha":1479,"x_min":6,"x_max":1474,"o":"m 617 -254 q 653 -336 617 -304 q 739 -368 689 -368 q 826 -336 790 -368 q 861 -254 861 -304 q 826 -172 861 -204 q 739 -140 790 -140 q 653 -172 689 -140 q 617 -254 617 -204 m 1006 418 l 739 1021 l 475 418 l 283 972 l 6 972 l 426 -57 l 739 529 l 1053 -57 l 1474 972 l 1194 972 l 1006 418 z "},"X":{"ha":951,"x_min":6,"x_max":947,"o":"m 636 972 l 481 690 l 331 972 l 40 972 l 339 499 l 6 0 l 296 0 l 479 324 l 657 0 l 947 0 l 621 499 l 926 972 l 636 972 z "},"Y":{"ha":917,"x_min":-1,"x_max":918,"o":"m 649 972 l 458 607 l 268 972 l -1 972 l 339 394 l 339 0 l 578 0 l 578 396 l 918 972 l 649 972 z "},"Ý":{"ha":917,"x_min":-1,"x_max":918,"o":"m 682 1286 l 522 1360 l 314 1138 l 432 1078 l 682 1286 m 649 972 l 458 607 l 268 972 l -1 972 l 339 394 l 339 0 l 578 0 l 578 396 l 918 972 l 649 972 z "},"Ŷ":{"ha":917,"x_min":-1,"x_max":918,"o":"m 649 972 l 458 607 l 268 972 l -1 972 l 339 394 l 339 0 l 578 0 l 578 396 l 918 972 l 649 972 m 458 1197 l 585 1078 l 732 1176 l 458 1371 l 185 1176 l 332 1078 l 458 1197 z "},"Ÿ":{"ha":917,"x_min":-1,"x_max":918,"o":"m 142 1206 q 177 1125 142 1157 q 263 1093 213 1093 q 350 1125 314 1093 q 386 1206 386 1157 q 350 1288 386 1257 q 263 1319 314 1319 q 177 1288 213 1319 q 142 1206 142 1257 m 532 1206 q 567 1125 532 1157 q 653 1093 603 1093 q 740 1125 704 1093 q 775 1206 775 1157 q 740 1288 775 1257 q 653 1319 704 1319 q 567 1288 603 1319 q 532 1206 532 1257 m 649 972 l 458 607 l 268 972 l -1 972 l 339 394 l 339 0 l 578 0 l 578 396 l 918 972 l 649 972 z "},"Ỳ":{"ha":917,"x_min":-1,"x_max":918,"o":"m 458 1079 l 576 1138 l 368 1360 l 208 1288 l 458 1079 m 649 972 l 458 607 l 268 972 l -1 972 l 339 394 l 339 0 l 578 0 l 578 396 l 918 972 l 649 972 z "},"Z":{"ha":861,"x_min":13,"x_max":842,"o":"m 79 763 l 465 763 l 13 0 l 792 0 l 792 201 l 382 201 l 842 972 l 79 972 l 79 763 z "},"Ź":{"ha":861,"x_min":13,"x_max":842,"o":"m 79 763 l 465 763 l 13 0 l 792 0 l 792 201 l 382 201 l 842 972 l 79 972 l 79 763 m 699 1286 l 539 1360 l 331 1138 l 449 1078 l 699 1286 z "},"Ż":{"ha":861,"x_min":13,"x_max":842,"o":"m 79 763 l 465 763 l 13 0 l 792 0 l 792 201 l 382 201 l 842 972 l 79 972 l 79 763 m 338 1192 q 374 1110 338 1142 q 460 1078 410 1078 q 547 1110 511 1078 q 582 1192 582 1142 q 547 1274 582 1242 q 460 1306 511 1306 q 374 1274 410 1306 q 338 1192 338 1242 z "},"Ž":{"ha":861,"x_min":13,"x_max":842,"o":"m 79 763 l 465 763 l 13 0 l 792 0 l 792 201 l 382 201 l 842 972 l 79 972 l 79 763 m 460 1253 l 333 1371 l 186 1272 l 460 1078 l 733 1272 l 586 1371 l 460 1253 z "},"Æ":{"ha":1506,"x_min":19,"x_max":1408,"o":"m 375 210 l 800 210 l 800 425 l 383 425 l 375 210 m 608 972 l 19 0 l 315 0 l 833 917 l 608 972 m 875 0 l 1408 0 l 1408 193 l 875 193 l 875 0 m 886 779 l 1408 779 l 1408 972 l 608 972 l 886 779 m 875 417 l 1381 417 l 1381 606 l 875 606 l 875 417 m 763 972 l 763 0 l 1014 0 l 1014 972 l 763 972 z "},"Ð":{"ha":1018,"x_min":8,"x_max":971,"o":"m 8 421 l 493 421 l 493 558 l 8 558 l 8 421 m 103 972 l 103 0 l 344 0 l 344 972 l 103 972 m 450 0 q 726 60 610 0 q 907 228 843 119 q 971 486 971 338 q 907 744 971 636 q 726 913 843 853 q 450 972 610 972 l 258 972 l 258 764 l 442 764 q 549 750 497 764 q 641 704 601 736 q 704 619 681 672 q 728 486 728 565 q 704 353 728 407 q 641 268 681 300 q 549 222 601 236 q 442 208 497 208 l 258 208 l 258 0 l 450 0 z "},"Ø":{"ha":1097,"x_min":47,"x_max":1093,"o":"m 296 486 q 330 640 296 574 q 426 742 364 706 q 571 779 488 779 q 715 742 653 779 q 810 640 776 706 q 844 486 844 574 q 810 333 844 399 q 715 230 776 267 q 571 193 653 193 q 426 230 488 193 q 330 333 364 267 q 296 486 296 399 m 47 486 q 86 279 47 374 q 196 115 125 185 q 363 8 267 46 q 571 -31 458 -31 q 778 8 683 -31 q 944 115 874 46 q 1054 279 1015 185 q 1093 486 1093 374 q 1054 692 1093 599 q 944 853 1015 785 q 778 958 874 921 q 571 994 683 994 q 363 958 458 994 q 196 853 267 921 q 86 692 125 785 q 47 486 47 599 m 968 1050 l 68 -6 l 167 -78 l 1068 978 l 968 1050 z "},"Þ":{"ha":850,"x_min":111,"x_max":810,"o":"m 111 972 l 111 0 l 315 0 l 315 972 l 111 972 m 242 619 l 431 619 q 522 606 485 619 q 580 565 560 593 q 600 490 600 538 q 580 415 600 443 q 522 374 560 388 q 431 361 485 361 l 242 361 l 242 178 l 431 178 q 640 215 556 178 q 767 322 724 251 q 810 490 810 393 q 767 659 810 589 q 640 767 724 729 q 431 804 556 804 l 242 804 l 242 619 z "},"Đ":{"ha":1018,"x_min":7,"x_max":971,"o":"m 7 414 l 483 414 l 483 551 l 7 551 l 7 414 m 103 972 l 103 0 l 344 0 l 344 972 l 103 972 m 450 0 q 726 60 610 0 q 907 228 843 119 q 971 486 971 338 q 907 744 971 636 q 726 913 843 853 q 450 972 610 972 l 258 972 l 258 764 l 442 764 q 549 750 497 764 q 641 704 601 736 q 704 619 681 672 q 728 486 728 565 q 704 353 728 407 q 641 268 681 300 q 549 222 601 236 q 442 208 497 208 l 258 208 l 258 0 l 450 0 z "},"Ħ":{"ha":1092,"x_min":7,"x_max":1085,"o":"m 168 407 l 903 407 l 903 618 l 168 618 l 168 407 m 756 972 l 756 0 l 990 0 l 990 972 l 756 972 m 103 972 l 103 0 l 338 0 l 338 972 l 103 972 m 7 746 l 1085 746 l 1085 893 l 7 893 l 7 746 z "},"Ĳ":{"ha":867,"x_min":103,"x_max":764,"o":"m 308 -89 l 181 -253 q 249 -290 208 -272 q 340 -319 290 -307 q 443 -332 390 -332 q 567 -317 508 -332 q 669 -273 625 -303 q 738 -194 713 -243 q 764 -75 764 -144 l 764 972 l 510 972 l 510 -22 q 481 -109 510 -83 q 419 -135 451 -135 q 359 -121 389 -135 q 308 -89 329 -107 m 103 972 l 103 0 l 342 0 l 342 972 l 103 972 z "},"Ŀ":{"ha":733,"x_min":103,"x_max":728,"o":"m 103 972 l 103 0 l 728 0 l 728 201 l 338 201 l 338 972 l 103 972 m 449 599 q 486 508 449 546 q 581 469 524 469 q 674 508 638 469 q 711 599 711 546 q 674 688 711 650 q 581 726 638 726 q 486 688 524 726 q 449 599 449 650 z "},"Ł":{"ha":742,"x_min":-47,"x_max":728,"o":"m 7 429 l 511 768 l 458 871 l -47 532 l 7 429 m 103 972 l 103 0 l 728 0 l 728 201 l 338 201 l 338 972 l 103 972 z "},"Ŋ":{"ha":1103,"x_min":103,"x_max":1000,"o":"m 758 -299 q 888 -271 833 -299 q 971 -191 942 -243 q 1000 -68 1000 -139 l 1000 972 l 774 972 l 774 425 l 103 1021 l 103 0 l 328 0 l 328 547 l 799 119 l 799 -15 q 790 -68 799 -47 q 767 -99 782 -89 q 732 -110 753 -110 q 697 -101 711 -110 q 667 -75 682 -92 l 582 -228 q 665 -282 624 -265 q 758 -299 706 -299 z "},"Œ":{"ha":1368,"x_min":47,"x_max":1319,"o":"m 781 417 l 1290 417 l 1290 606 l 781 606 l 781 417 m 672 931 l 672 42 l 899 42 l 899 931 l 672 931 m 1319 193 l 794 193 l 761 206 l 585 206 q 458 224 513 206 q 365 277 403 242 q 309 365 328 313 q 290 486 290 418 q 309 607 290 554 q 365 695 328 660 q 458 749 403 731 q 585 767 513 767 l 765 767 l 789 779 l 1318 779 l 1318 972 l 542 972 q 345 938 436 972 q 188 838 254 903 q 85 684 122 774 q 47 486 47 594 q 85 288 47 378 q 189 134 122 199 q 346 35 256 69 q 542 0 436 0 l 1319 0 l 1319 193 z "},"Ŧ":{"ha":779,"x_min":6,"x_max":775,"o":"m 131 419 l 650 419 l 650 601 l 131 601 l 131 419 m 6 763 l 272 763 l 272 0 l 507 0 l 507 763 l 775 763 l 775 972 l 6 972 l 6 763 z "},"ẞ":{"ha":1131,"x_min":111,"x_max":1072,"o":"m 750 -17 q 578 1 663 -17 q 424 47 493 18 l 476 238 q 590 194 536 210 q 692 179 644 179 q 758 188 728 179 q 807 215 789 196 q 825 265 825 235 q 805 324 825 301 q 754 361 785 346 q 693 393 724 376 q 642 434 663 410 q 622 497 622 458 q 634 548 622 526 q 663 585 646 569 q 699 616 681 601 q 728 648 717 631 q 740 688 740 665 q 723 734 740 713 q 673 768 706 756 q 593 781 640 781 q 460 747 514 781 q 378 647 406 713 q 351 486 351 581 l 353 -3 l 111 -3 l 111 508 q 139 709 111 619 q 226 863 167 799 q 377 960 285 926 q 597 994 469 994 q 817 961 729 994 q 950 871 906 928 q 994 744 994 814 q 983 670 994 703 q 956 613 972 638 q 922 567 939 588 q 893 531 904 547 q 882 500 882 515 q 901 467 882 481 q 949 437 919 453 q 1006 397 978 421 q 1053 337 1035 374 q 1072 242 1072 300 q 1034 103 1072 161 q 924 15 996 46 q 750 -17 851 -17 z "},"Δ":{"ha":833,"x_min":25,"x_max":807,"o":"m 25 0 l 417 1111 l 807 0 l 25 0 m 258 160 l 574 160 l 417 678 l 258 160 z "},"Ω":{"ha":833,"x_min":92,"x_max":742,"o":"m 92 0 l 92 181 l 214 164 q 147 251 174 207 q 109 343 121 296 q 97 440 97 390 q 139 612 97 536 q 253 732 181 688 q 417 776 325 776 q 581 732 508 776 q 694 612 653 688 q 736 440 736 536 q 724 343 736 390 q 685 251 711 296 q 619 164 660 207 l 742 181 l 742 0 l 451 0 l 451 143 q 510 209 485 171 q 548 291 535 247 q 561 378 561 335 q 543 469 561 431 q 493 531 525 508 q 417 553 461 553 q 340 531 374 553 q 289 469 307 508 q 271 378 271 431 q 285 291 271 335 q 324 209 299 247 q 382 143 349 171 l 382 0 l 92 0 z "},"А":{"ha":1021,"x_min":-1,"x_max":1022,"o":"m 256 188 l 769 188 l 754 367 l 272 367 l 256 188 m 510 615 l 647 300 l 639 240 l 756 0 l 1022 0 l 510 1033 l -1 0 l 264 0 l 385 250 l 374 301 l 510 615 z "},"Б":{"ha":933,"x_min":111,"x_max":878,"o":"m 176 417 l 496 417 q 574 404 542 417 q 622 367 606 392 q 639 304 639 343 q 622 242 639 267 q 574 205 606 217 q 496 193 542 193 l 176 193 l 176 0 l 547 0 q 716 39 642 0 q 834 147 790 78 q 878 304 878 215 q 834 462 878 394 q 716 567 790 529 q 547 606 642 606 l 176 606 l 176 417 m 111 972 l 111 0 l 350 0 l 350 779 l 804 779 l 804 972 l 111 972 z "},"В":{"ha":922,"x_min":103,"x_max":861,"o":"m 278 483 l 460 483 q 638 512 561 483 q 760 594 715 540 q 806 725 806 649 q 760 863 806 808 q 638 945 715 918 q 460 972 561 972 l 103 972 l 103 0 l 483 0 q 683 28 599 0 q 815 117 768 57 q 861 274 861 176 q 828 399 861 347 q 742 485 796 451 q 621 535 688 519 q 483 550 554 550 l 278 550 l 278 422 l 457 422 q 520 416 492 422 q 571 396 549 410 q 606 360 593 382 q 618 307 618 338 q 597 233 618 260 q 539 194 575 206 q 457 182 503 182 l 338 182 l 338 790 l 435 790 q 528 765 494 790 q 563 690 563 740 q 547 634 563 657 q 503 599 532 611 q 435 586 475 586 l 278 586 l 278 483 z "},"Г":{"ha":703,"x_min":111,"x_max":689,"o":"m 111 972 l 111 0 l 346 0 l 346 763 l 689 763 l 689 972 l 111 972 z "},"Ѓ":{"ha":703,"x_min":111,"x_max":689,"o":"m 111 972 l 111 0 l 346 0 l 346 763 l 689 763 l 689 972 l 111 972 m 650 1286 l 490 1360 l 282 1138 l 400 1078 l 650 1286 z "},"Д":{"ha":1225,"x_min":56,"x_max":1163,"o":"m 608 597 l 811 42 l 1082 42 l 608 1021 l 136 42 l 407 42 l 608 597 m 929 0 l 929 -153 l 1163 -153 l 1163 201 l 56 201 l 56 -153 l 289 -153 l 289 0 l 929 0 z "},"Е":{"ha":838,"x_min":103,"x_max":749,"o":"m 258 0 l 749 0 l 749 193 l 258 193 l 258 0 m 258 779 l 749 779 l 749 972 l 258 972 l 258 779 m 258 417 l 721 417 l 721 606 l 258 606 l 258 417 m 103 972 l 103 0 l 328 0 l 328 972 l 103 972 z "},"Ѐ":{"ha":838,"x_min":103,"x_max":749,"o":"m 258 0 l 749 0 l 749 193 l 258 193 l 258 0 m 258 779 l 749 779 l 749 972 l 258 972 l 258 779 m 258 417 l 721 417 l 721 606 l 258 606 l 258 417 m 103 972 l 103 0 l 328 0 l 328 972 l 103 972 m 176 1286 l 426 1078 l 544 1138 l 336 1360 l 176 1286 z "},"Ё":{"ha":838,"x_min":103,"x_max":749,"o":"m 258 0 l 749 0 l 749 193 l 258 193 l 258 0 m 258 779 l 749 779 l 749 972 l 258 972 l 258 779 m 258 417 l 721 417 l 721 606 l 258 606 l 258 417 m 103 972 l 103 0 l 328 0 l 328 972 l 103 972 m 474 1192 q 509 1110 474 1142 q 594 1078 544 1078 q 681 1110 646 1078 q 717 1192 717 1142 q 681 1274 717 1242 q 594 1306 646 1306 q 509 1274 544 1306 q 474 1192 474 1242 m 135 1192 q 171 1110 135 1142 q 257 1078 207 1078 q 344 1110 308 1078 q 379 1192 379 1142 q 344 1274 379 1242 q 257 1306 308 1306 q 171 1274 207 1306 q 135 1192 135 1242 z "},"Ж":{"ha":1507,"x_min":-1,"x_max":1508,"o":"m 294 972 l 19 972 l 422 517 l -1 0 l 274 0 l 696 514 l 294 972 m 635 972 l 635 0 l 878 0 l 878 972 l 635 972 m 1203 972 l 817 514 l 1224 0 l 1508 0 l 1083 517 l 1488 972 l 1203 972 z "},"З":{"ha":928,"x_min":67,"x_max":888,"o":"m 424 471 q 593 486 514 471 q 732 533 672 501 q 826 611 792 564 q 860 721 860 658 q 817 857 860 796 q 690 954 774 918 q 485 990 607 990 q 278 951 363 990 q 151 842 194 911 q 108 688 108 774 l 324 688 q 343 748 324 722 q 399 788 363 774 q 483 803 435 803 q 563 790 531 803 q 611 753 594 776 q 628 697 628 729 q 605 635 628 663 q 537 592 582 607 q 424 576 492 576 l 424 471 m 490 -22 q 710 15 622 -22 q 843 116 799 51 q 888 265 888 181 q 827 426 888 364 q 662 516 767 488 q 424 544 557 544 l 424 425 q 555 408 504 425 q 631 360 606 390 q 656 288 656 329 q 608 196 656 225 q 482 167 561 167 q 389 182 431 167 q 324 229 347 197 q 297 308 300 261 l 67 308 q 92 185 67 244 q 169 78 117 125 q 301 4 221 31 q 490 -22 381 -22 z "},"И":{"ha":1103,"x_min":103,"x_max":1000,"o":"m 993 728 l 1000 1021 l 110 244 l 103 -49 l 993 728 m 328 972 l 103 972 l 103 -49 l 328 182 l 328 972 m 1000 1021 l 774 782 l 774 0 l 1000 0 l 1000 1021 z "},"Ѝ":{"ha":1103,"x_min":103,"x_max":1000,"o":"m 993 728 l 1000 1021 l 110 244 l 103 -49 l 993 728 m 328 972 l 103 972 l 103 -49 l 328 182 l 328 972 m 1000 1021 l 774 782 l 774 0 l 1000 0 l 1000 1021 m 346 1260 l 596 1051 l 714 1111 l 506 1333 l 346 1260 z "},"Й":{"ha":1103,"x_min":103,"x_max":1000,"o":"m 993 728 l 1000 1021 l 110 244 l 103 -49 l 993 728 m 328 972 l 103 972 l 103 -49 l 328 182 l 328 972 m 1000 1021 l 774 782 l 774 0 l 1000 0 l 1000 1021 m 357 1274 q 383 1172 357 1218 q 461 1098 410 1125 q 585 1071 513 1071 q 709 1098 658 1071 q 786 1172 760 1125 q 813 1274 813 1218 l 675 1274 q 664 1231 675 1250 q 633 1202 653 1213 q 585 1192 613 1192 q 538 1202 558 1192 q 506 1231 517 1213 q 494 1274 494 1250 l 357 1274 z "},"К":{"ha":971,"x_min":103,"x_max":972,"o":"m 103 972 l 103 0 l 346 0 l 346 972 l 103 972 m 676 972 l 278 510 l 688 0 l 972 0 l 557 517 l 951 972 l 676 972 z "},"Ќ":{"ha":971,"x_min":103,"x_max":972,"o":"m 103 972 l 103 0 l 346 0 l 346 972 l 103 972 m 676 972 l 278 510 l 688 0 l 972 0 l 557 517 l 951 972 l 676 972 m 778 1286 l 618 1360 l 410 1138 l 528 1078 l 778 1286 z "},"Л":{"ha":1069,"x_min":14,"x_max":958,"o":"m 958 972 l 160 972 l 160 397 q 150 315 160 353 q 122 252 140 278 q 76 213 103 226 q 14 199 49 199 l 14 0 q 233 45 149 0 q 358 183 318 90 q 397 411 397 275 l 397 763 l 719 763 l 719 0 l 958 0 l 958 972 z "},"М":{"ha":1238,"x_min":47,"x_max":1190,"o":"m 353 496 l 618 90 l 885 496 l 943 0 l 1190 0 l 1033 1021 l 618 428 l 204 1021 l 47 0 l 294 0 l 353 496 z "},"Н":{"ha":1092,"x_min":103,"x_max":990,"o":"m 168 407 l 903 407 l 903 618 l 168 618 l 168 407 m 756 972 l 756 0 l 990 0 l 990 972 l 756 972 m 103 972 l 103 0 l 338 0 l 338 972 l 103 972 z "},"О":{"ha":1140,"x_min":47,"x_max":1093,"o":"m 296 486 q 330 638 296 572 q 426 742 364 704 q 571 779 488 779 q 717 742 656 779 q 811 638 778 704 q 844 486 844 572 q 810 334 844 400 q 715 231 776 268 q 571 193 653 193 q 426 231 488 193 q 330 334 364 268 q 296 486 296 400 m 47 486 q 85 279 47 374 q 194 115 124 185 q 360 8 264 46 q 571 -31 456 -31 q 781 8 685 -31 q 947 115 876 46 q 1055 279 1017 185 q 1093 486 1093 374 q 1054 692 1093 599 q 944 853 1015 785 q 778 958 874 921 q 571 994 683 994 q 364 958 460 994 q 197 853 268 921 q 87 692 126 785 q 47 486 47 599 z "},"П":{"ha":1071,"x_min":111,"x_max":960,"o":"m 721 763 l 721 0 l 960 0 l 960 972 l 111 972 l 111 0 l 350 0 l 350 763 l 721 763 z "},"Р":{"ha":865,"x_min":103,"x_max":818,"o":"m 103 972 l 103 0 l 338 0 l 338 972 l 103 972 m 250 779 l 440 779 q 551 747 511 779 q 592 654 592 715 q 551 563 592 594 q 440 531 511 531 l 250 531 l 250 338 l 440 338 q 648 376 564 338 q 775 485 732 414 q 818 654 818 557 q 775 825 818 754 q 648 934 732 896 q 440 972 564 972 l 250 972 l 250 779 z "},"С":{"ha":974,"x_min":47,"x_max":885,"o":"m 303 486 q 343 640 303 576 q 449 738 383 704 q 594 771 515 771 q 717 753 664 771 q 811 706 769 736 q 885 643 853 676 l 885 896 q 757 968 826 942 q 581 994 688 994 q 365 958 464 994 q 196 854 267 922 q 86 693 125 786 q 47 486 47 600 q 86 279 47 372 q 196 118 125 186 q 365 14 267 50 q 581 -22 464 -22 q 757 4 688 -22 q 885 76 826 31 l 885 329 q 811 267 853 296 q 717 219 769 238 q 594 201 664 201 q 449 235 515 201 q 343 333 383 268 q 303 486 303 397 z "},"Т":{"ha":779,"x_min":6,"x_max":775,"o":"m 6 763 l 272 763 l 272 0 l 507 0 l 507 763 l 775 763 l 775 972 l 6 972 l 6 763 z "},"У":{"ha":858,"x_min":-12,"x_max":871,"o":"m 871 972 l 626 972 l 368 394 l 469 393 l 250 972 l -12 972 l 306 296 l 174 0 l 414 0 l 871 972 z "},"Ў":{"ha":840,"x_min":-12,"x_max":854,"o":"m 854 972 l 618 972 l 360 394 l 461 393 l 240 972 l -12 972 l 297 296 l 165 0 l 397 0 l 854 972 m 193 1281 q 220 1178 193 1225 q 299 1105 247 1132 q 422 1078 350 1078 q 547 1105 496 1078 q 624 1178 597 1132 q 650 1281 650 1225 l 513 1281 q 501 1238 513 1257 q 469 1209 489 1219 q 422 1199 449 1199 q 374 1209 394 1199 q 342 1238 354 1219 q 331 1281 331 1257 l 193 1281 z "},"Ф":{"ha":1294,"x_min":56,"x_max":1239,"o":"m 528 972 l 528 0 l 767 0 l 767 972 l 528 972 m 1000 486 q 968 385 1000 424 q 878 331 936 347 q 743 315 821 315 l 551 315 q 416 331 474 315 q 326 385 358 347 q 294 486 294 424 q 326 588 294 550 q 416 641 358 625 q 551 657 474 657 l 743 657 q 878 641 821 657 q 968 588 936 625 q 1000 486 1000 550 m 1239 486 q 1179 688 1239 604 q 1017 816 1119 771 q 786 861 914 861 l 508 861 q 278 816 381 861 q 115 688 175 771 q 56 486 56 604 q 115 285 56 369 q 278 156 175 201 q 508 111 381 111 l 786 111 q 1017 156 914 111 q 1179 285 1119 201 q 1239 486 1239 369 z "},"Х":{"ha":951,"x_min":6,"x_max":947,"o":"m 636 972 l 481 690 l 331 972 l 40 972 l 339 499 l 6 0 l 296 0 l 479 324 l 657 0 l 947 0 l 621 499 l 926 972 l 636 972 z "},"Ц":{"ha":1193,"x_min":103,"x_max":1147,"o":"m 342 210 l 342 972 l 103 972 l 103 0 l 922 0 l 922 -187 l 1147 -187 l 1147 210 l 994 210 l 994 972 l 756 972 l 756 210 l 342 210 z "},"Ч":{"ha":997,"x_min":103,"x_max":886,"o":"m 429 307 l 731 307 l 731 515 l 497 515 l 429 307 m 642 972 l 642 0 l 886 0 l 886 972 l 642 972 m 339 972 l 103 972 l 103 650 q 140 478 103 557 q 251 353 178 400 q 429 307 324 307 l 497 515 q 415 534 451 515 q 359 590 379 553 q 339 681 339 626 l 339 972 z "},"Ш":{"ha":1501,"x_min":111,"x_max":1390,"o":"m 1156 210 l 864 210 l 864 972 l 638 972 l 638 210 l 346 210 l 346 972 l 111 972 l 111 0 l 1390 0 l 1390 972 l 1156 972 l 1156 210 z "},"Щ":{"ha":1599,"x_min":111,"x_max":1543,"o":"m 1156 210 l 864 210 l 864 972 l 638 972 l 638 210 l 346 210 l 346 972 l 111 972 l 111 0 l 1318 0 l 1318 -187 l 1543 -187 l 1543 210 l 1390 210 l 1390 972 l 1156 972 l 1156 210 z "},"Ъ":{"ha":1022,"x_min":14,"x_max":975,"o":"m 407 442 l 597 442 q 678 428 644 442 q 731 386 713 414 q 749 318 749 358 q 731 249 749 278 q 678 207 713 221 q 597 193 644 193 l 407 193 l 407 0 l 597 0 q 805 38 721 0 q 932 148 889 76 q 975 318 975 219 q 932 488 975 417 q 805 597 889 558 q 597 635 721 635 l 407 635 l 407 442 m 264 763 l 264 0 l 499 0 l 499 972 l 14 972 l 14 763 l 264 763 z "},"Ы":{"ha":1261,"x_min":103,"x_max":1158,"o":"m 919 972 l 919 0 l 1158 0 l 1158 972 l 919 972 m 103 972 l 103 0 l 338 0 l 338 972 l 103 972 m 250 442 l 440 442 q 522 428 488 442 q 574 386 556 414 q 592 318 592 358 q 574 249 592 278 q 522 207 556 221 q 440 193 488 193 l 250 193 l 250 0 l 440 0 q 648 38 564 0 q 775 148 732 76 q 818 318 818 219 q 775 488 818 417 q 648 597 732 558 q 440 635 564 635 l 250 635 l 250 442 z "},"Ь":{"ha":865,"x_min":103,"x_max":818,"o":"m 103 972 l 103 0 l 338 0 l 338 972 l 103 972 m 250 442 l 440 442 q 522 428 488 442 q 574 386 556 414 q 592 318 592 358 q 574 249 592 278 q 522 207 556 221 q 440 193 488 193 l 250 193 l 250 0 l 440 0 q 648 38 564 0 q 775 148 732 76 q 818 318 818 219 q 775 488 818 417 q 648 597 732 558 q 440 635 564 635 l 250 635 l 250 442 z "},"Э":{"ha":974,"x_min":89,"x_max":926,"o":"m 190 392 l 708 392 l 708 581 l 190 581 l 190 392 m 696 486 q 649 331 696 397 q 530 228 603 265 q 379 192 457 192 q 255 209 311 192 q 158 252 199 226 q 89 304 117 278 l 89 76 q 217 4 147 31 q 393 -22 288 -22 q 608 14 510 -22 q 776 118 706 50 q 887 279 847 186 q 926 486 926 372 q 887 693 926 600 q 776 854 847 786 q 608 958 706 922 q 393 994 510 994 q 217 968 288 994 q 89 896 147 942 l 89 668 q 158 720 117 694 q 255 763 199 746 q 379 781 311 781 q 530 744 457 781 q 649 642 603 708 q 696 486 696 576 z "},"Ю":{"ha":1586,"x_min":103,"x_max":1539,"o":"m 168 407 l 638 407 l 638 618 l 168 618 l 168 407 m 103 972 l 103 0 l 338 0 l 338 972 l 103 972 m 740 486 q 775 638 740 572 q 872 742 810 704 q 1015 779 933 779 q 1163 742 1101 779 q 1257 638 1224 704 q 1290 486 1290 572 q 1256 334 1290 400 q 1160 231 1221 268 q 1015 193 1099 193 q 872 231 933 193 q 775 334 810 268 q 740 486 740 400 m 493 486 q 531 279 493 374 q 640 115 569 185 q 806 8 710 46 q 1015 -31 901 -31 q 1226 8 1131 -31 q 1392 115 1322 46 q 1501 279 1463 185 q 1539 486 1539 374 q 1500 692 1539 599 q 1390 853 1461 785 q 1224 958 1319 921 q 1015 994 1129 994 q 810 958 906 994 q 643 853 714 921 q 533 692 572 785 q 493 486 493 599 z "},"Я":{"ha":899,"x_min":6,"x_max":796,"o":"m 553 440 l 310 440 l 6 0 l 281 0 l 553 440 m 796 972 l 561 972 l 561 0 l 796 0 l 796 972 m 649 774 l 649 972 l 442 972 q 234 932 318 972 q 107 820 150 892 q 64 654 64 749 q 107 490 64 561 q 234 378 150 418 q 442 338 318 338 l 649 338 l 649 519 l 458 519 q 378 534 413 519 q 325 577 343 549 q 307 646 307 606 q 325 715 307 686 q 378 758 343 743 q 458 774 413 774 l 649 774 z "},"a":{"ha":749,"x_min":33,"x_max":674,"o":"m 244 200 q 256 240 244 224 q 289 264 267 256 q 349 272 311 272 q 441 259 397 272 q 518 221 485 246 l 518 314 q 468 349 501 332 q 388 376 435 365 q 283 388 342 388 q 99 334 164 388 q 33 189 33 281 q 65 78 33 124 q 148 9 96 32 q 261 -14 200 -14 q 375 8 322 -14 q 461 72 428 29 q 494 175 494 114 l 472 258 q 453 183 472 214 q 403 138 433 153 q 336 122 372 122 q 290 131 311 122 q 257 158 269 140 q 244 200 244 175 m 151 443 q 196 465 165 451 q 267 488 226 478 q 351 497 308 497 q 403 492 381 497 q 442 474 426 486 q 465 444 457 461 q 472 403 472 426 l 472 0 l 674 0 l 674 450 q 635 563 674 517 q 529 633 596 608 q 378 657 463 657 q 211 633 288 657 q 81 583 135 610 l 151 443 z "},"à":{"ha":756,"x_min":33,"x_max":681,"o":"m 244 190 q 258 235 244 217 q 297 263 271 253 q 358 274 322 274 q 451 260 413 274 q 525 221 489 247 l 525 319 q 478 351 511 335 q 402 377 446 367 q 310 388 358 388 q 167 363 229 388 q 69 291 104 338 q 33 178 33 244 q 62 75 33 118 q 143 9 90 32 q 265 -14 196 -14 q 385 9 332 -14 q 470 76 439 32 q 501 181 501 119 l 479 258 q 460 178 479 207 q 408 136 440 149 q 336 124 375 124 q 289 131 310 124 q 256 153 268 139 q 244 190 244 168 m 163 442 q 208 465 178 451 q 280 488 239 478 q 367 497 321 497 q 449 473 419 497 q 479 408 479 449 l 479 0 l 681 0 l 681 450 q 642 563 681 517 q 537 633 604 608 q 383 657 469 657 q 222 633 297 657 q 92 583 146 610 l 163 442 m 144 949 l 394 740 l 513 800 l 304 1022 l 144 949 z "},"á":{"ha":756,"x_min":33,"x_max":681,"o":"m 244 190 q 258 235 244 217 q 297 263 271 253 q 358 274 322 274 q 451 260 413 274 q 525 221 489 247 l 525 319 q 478 351 511 335 q 402 377 446 367 q 310 388 358 388 q 167 363 229 388 q 69 291 104 338 q 33 178 33 244 q 62 75 33 118 q 143 9 90 32 q 265 -14 196 -14 q 385 9 332 -14 q 470 76 439 32 q 501 181 501 119 l 479 258 q 460 178 479 207 q 408 136 440 149 q 336 124 375 124 q 289 131 310 124 q 256 153 268 139 q 244 190 244 168 m 163 442 q 208 465 178 451 q 280 488 239 478 q 367 497 321 497 q 449 473 419 497 q 479 408 479 449 l 479 0 l 681 0 l 681 450 q 642 563 681 517 q 537 633 604 608 q 383 657 469 657 q 222 633 297 657 q 92 583 146 610 l 163 442 m 622 949 l 463 1022 l 254 800 l 372 740 l 622 949 z "},"â":{"ha":756,"x_min":33,"x_max":681,"o":"m 244 190 q 258 235 244 217 q 297 263 271 253 q 358 274 322 274 q 451 260 413 274 q 525 221 489 247 l 525 319 q 478 351 511 335 q 402 377 446 367 q 310 388 358 388 q 167 363 229 388 q 69 291 104 338 q 33 178 33 244 q 62 75 33 118 q 143 9 90 32 q 265 -14 196 -14 q 385 9 332 -14 q 470 76 439 32 q 501 181 501 119 l 479 258 q 460 178 479 207 q 408 136 440 149 q 336 124 375 124 q 289 131 310 124 q 256 153 268 139 q 244 190 244 168 m 163 442 q 208 465 178 451 q 280 488 239 478 q 367 497 321 497 q 449 473 419 497 q 479 408 479 449 l 479 0 l 681 0 l 681 450 q 642 563 681 517 q 537 633 604 608 q 383 657 469 657 q 222 633 297 657 q 92 583 146 610 l 163 442 m 383 860 l 510 740 l 657 839 l 383 1033 l 110 839 l 257 740 l 383 860 z "},"ã":{"ha":756,"x_min":33,"x_max":681,"o":"m 244 190 q 258 235 244 217 q 297 263 271 253 q 358 274 322 274 q 451 260 413 274 q 525 221 489 247 l 525 319 q 478 351 511 335 q 402 377 446 367 q 310 388 358 388 q 167 363 229 388 q 69 291 104 338 q 33 178 33 244 q 62 75 33 118 q 143 9 90 32 q 265 -14 196 -14 q 385 9 332 -14 q 470 76 439 32 q 501 181 501 119 l 479 258 q 460 178 479 207 q 408 136 440 149 q 336 124 375 124 q 289 131 310 124 q 256 153 268 139 q 244 190 244 168 m 163 442 q 208 465 178 451 q 280 488 239 478 q 367 497 321 497 q 449 473 419 497 q 479 408 479 449 l 479 0 l 681 0 l 681 450 q 642 563 681 517 q 537 633 604 608 q 383 657 469 657 q 222 633 297 657 q 92 583 146 610 l 163 442 m 111 832 l 211 746 q 216 774 211 757 q 235 803 221 790 q 275 817 250 817 q 340 798 310 817 q 401 761 369 779 q 469 743 432 743 q 551 762 513 743 q 617 808 589 781 q 656 861 644 836 l 557 964 q 515 910 536 931 q 467 890 493 890 q 417 901 438 890 q 377 926 396 913 q 335 951 358 940 q 276 963 311 963 q 198 944 233 963 q 140 896 163 925 q 111 832 118 867 z "},"ä":{"ha":756,"x_min":33,"x_max":681,"o":"m 244 190 q 258 235 244 217 q 297 263 271 253 q 358 274 322 274 q 451 260 413 274 q 525 221 489 247 l 525 319 q 478 351 511 335 q 402 377 446 367 q 310 388 358 388 q 167 363 229 388 q 69 291 104 338 q 33 178 33 244 q 62 75 33 118 q 143 9 90 32 q 265 -14 196 -14 q 385 9 332 -14 q 470 76 439 32 q 501 181 501 119 l 479 258 q 460 178 479 207 q 408 136 440 149 q 336 124 375 124 q 289 131 310 124 q 256 153 268 139 q 244 190 244 168 m 163 442 q 208 465 178 451 q 280 488 239 478 q 367 497 321 497 q 449 473 419 497 q 479 408 479 449 l 479 0 l 681 0 l 681 450 q 642 563 681 517 q 537 633 604 608 q 383 657 469 657 q 222 633 297 657 q 92 583 146 610 l 163 442 m 431 854 q 466 772 431 804 q 553 740 501 740 q 639 772 603 740 q 675 854 675 804 q 639 936 675 904 q 553 968 603 968 q 466 936 501 968 q 431 854 431 904 m 92 854 q 128 772 92 804 q 214 740 164 740 q 301 772 265 740 q 336 854 336 804 q 301 936 336 904 q 214 968 265 968 q 128 936 164 968 q 92 854 92 904 z "},"å":{"ha":756,"x_min":33,"x_max":681,"o":"m 244 190 q 258 235 244 217 q 297 263 271 253 q 358 274 322 274 q 451 260 413 274 q 525 221 489 247 l 525 319 q 478 351 511 335 q 402 377 446 367 q 310 388 358 388 q 167 363 229 388 q 69 291 104 338 q 33 178 33 244 q 62 75 33 118 q 143 9 90 32 q 265 -14 196 -14 q 385 9 332 -14 q 470 76 439 32 q 501 181 501 119 l 479 258 q 460 178 479 207 q 408 136 440 149 q 336 124 375 124 q 289 131 310 124 q 256 153 268 139 q 244 190 244 168 m 163 442 q 208 465 178 451 q 280 488 239 478 q 367 497 321 497 q 449 473 419 497 q 479 408 479 449 l 479 0 l 681 0 l 681 450 q 642 563 681 517 q 537 633 604 608 q 383 657 469 657 q 222 633 297 657 q 92 583 146 610 l 163 442 m 210 901 q 260 785 210 829 q 382 740 310 740 q 506 785 454 740 q 557 901 557 829 q 506 1017 557 972 q 382 1061 454 1061 q 260 1017 310 1061 q 210 901 210 972 m 318 901 q 337 950 318 932 q 382 968 356 968 q 428 950 408 968 q 447 901 447 932 q 428 852 447 869 q 382 835 408 835 q 337 852 356 835 q 318 901 318 869 z "},"ā":{"ha":756,"x_min":33,"x_max":681,"o":"m 244 190 q 258 235 244 217 q 297 263 271 253 q 358 274 322 274 q 451 260 413 274 q 525 221 489 247 l 525 319 q 478 351 511 335 q 402 377 446 367 q 310 388 358 388 q 167 363 229 388 q 69 291 104 338 q 33 178 33 244 q 62 75 33 118 q 143 9 90 32 q 265 -14 196 -14 q 385 9 332 -14 q 470 76 439 32 q 501 181 501 119 l 479 258 q 460 178 479 207 q 408 136 440 149 q 336 124 375 124 q 289 131 310 124 q 256 153 268 139 q 244 190 244 168 m 163 442 q 208 465 178 451 q 280 488 239 478 q 367 497 321 497 q 449 473 419 497 q 479 408 479 449 l 479 0 l 681 0 l 681 450 q 642 563 681 517 q 537 633 604 608 q 383 657 469 657 q 222 633 297 657 q 92 583 146 610 l 163 442 m 125 751 l 642 751 l 642 933 l 125 933 l 125 751 z "},"ă":{"ha":756,"x_min":33,"x_max":681,"o":"m 244 190 q 258 235 244 217 q 297 263 271 253 q 358 274 322 274 q 451 260 413 274 q 525 221 489 247 l 525 319 q 478 351 511 335 q 402 377 446 367 q 310 388 358 388 q 167 363 229 388 q 69 291 104 338 q 33 178 33 244 q 62 75 33 118 q 143 9 90 32 q 265 -14 196 -14 q 385 9 332 -14 q 470 76 439 32 q 501 181 501 119 l 479 258 q 460 178 479 207 q 408 136 440 149 q 336 124 375 124 q 289 131 310 124 q 256 153 268 139 q 244 190 244 168 m 163 442 q 208 465 178 451 q 280 488 239 478 q 367 497 321 497 q 449 473 419 497 q 479 408 479 449 l 479 0 l 681 0 l 681 450 q 642 563 681 517 q 537 633 604 608 q 383 657 469 657 q 222 633 297 657 q 92 583 146 610 l 163 442 m 156 943 q 182 841 156 888 q 260 767 208 794 q 383 740 311 740 q 508 767 457 740 q 585 841 558 794 q 611 943 611 888 l 474 943 q 463 901 474 919 q 431 872 451 882 q 383 861 410 861 q 335 872 356 861 q 304 901 315 882 q 293 943 293 919 l 156 943 z "},"ą":{"ha":756,"x_min":33,"x_max":690,"o":"m 244 190 q 258 235 244 217 q 297 263 271 253 q 358 274 322 274 q 451 260 413 274 q 525 221 489 247 l 525 319 q 478 351 511 335 q 402 377 446 367 q 310 388 358 388 q 164 363 226 388 q 67 292 101 338 q 33 182 33 246 q 63 76 33 119 q 146 9 93 32 q 265 -14 199 -14 q 385 9 332 -14 q 470 76 439 32 q 501 181 501 119 l 479 258 q 460 178 479 207 q 408 136 440 149 q 336 124 375 124 q 290 131 311 124 q 257 153 269 139 q 244 190 244 168 m 163 442 q 208 465 178 451 q 280 488 239 478 q 367 497 321 497 q 449 473 419 497 q 479 408 479 449 l 479 0 l 681 0 l 681 450 q 642 563 681 517 q 537 633 604 608 q 383 657 469 657 q 222 633 297 657 q 92 583 146 610 l 163 442 m 644 -154 q 613 -175 631 -168 q 575 -182 596 -182 q 539 -169 551 -182 q 526 -131 526 -156 q 539 -86 526 -108 q 576 -42 551 -64 q 638 0 601 -19 l 581 35 q 488 -20 532 10 q 417 -85 444 -50 q 389 -167 389 -121 q 410 -242 389 -211 q 469 -290 432 -274 q 551 -306 506 -306 q 642 -288 608 -306 q 690 -250 675 -271 l 644 -154 z "},"b":{"ha":857,"x_min":81,"x_max":813,"o":"m 290 1083 l 81 1083 l 81 0 l 290 0 l 290 1083 m 813 319 q 769 501 813 428 q 656 614 725 575 q 508 653 588 653 q 367 613 429 653 q 268 498 304 572 q 232 319 232 424 q 268 142 232 217 q 367 26 304 67 q 508 -14 429 -14 q 656 25 588 -14 q 769 138 725 64 q 813 319 813 213 m 592 319 q 571 233 592 269 q 515 176 550 196 q 439 156 481 156 q 369 175 403 156 q 313 231 335 194 q 290 319 290 268 q 313 408 290 371 q 369 464 335 444 q 439 483 403 483 q 515 463 481 483 q 571 406 550 443 q 592 319 592 369 z "},"c":{"ha":686,"x_min":42,"x_max":617,"o":"m 258 319 q 281 404 258 367 q 342 464 303 442 q 428 486 382 486 q 499 475 463 486 q 566 443 535 464 q 617 392 597 422 l 617 597 q 533 637 583 621 q 411 653 483 653 q 222 611 306 653 q 90 495 138 569 q 42 319 42 421 q 90 144 42 219 q 222 28 138 69 q 411 -14 306 -14 q 533 2 483 -14 q 617 44 583 18 l 617 249 q 567 197 597 218 q 502 165 538 176 q 428 153 467 153 q 342 174 382 153 q 281 231 303 194 q 258 319 258 268 z "},"ç":{"ha":686,"x_min":42,"x_max":617,"o":"m 258 319 q 281 404 258 367 q 342 464 303 442 q 428 486 382 486 q 499 475 463 486 q 566 443 535 464 q 617 392 597 422 l 617 597 q 533 637 583 621 q 411 653 483 653 q 222 611 306 653 q 90 495 138 569 q 42 319 42 421 q 90 144 42 219 q 222 28 138 69 q 411 -14 306 -14 q 533 2 483 -14 q 617 44 583 18 l 617 249 q 567 197 597 218 q 502 165 538 176 q 428 153 467 153 q 342 174 382 153 q 281 231 303 194 q 258 319 258 268 m 329 85 l 208 -186 q 278 -167 244 -171 q 322 -164 313 -164 q 380 -172 354 -164 q 406 -208 406 -181 q 386 -245 406 -233 q 331 -257 367 -257 q 279 -249 310 -257 q 222 -222 249 -242 l 158 -317 q 253 -360 207 -349 q 358 -372 300 -372 q 444 -355 403 -372 q 513 -303 485 -337 q 540 -221 540 -269 q 520 -144 540 -175 q 471 -99 500 -114 q 414 -85 442 -85 q 386 -85 399 -85 q 363 -90 374 -86 l 482 79 l 329 85 z "},"ć":{"ha":686,"x_min":42,"x_max":617,"o":"m 258 319 q 281 404 258 367 q 342 464 303 442 q 428 486 382 486 q 499 475 463 486 q 566 443 535 464 q 617 392 597 422 l 617 597 q 533 637 583 621 q 411 653 483 653 q 222 611 306 653 q 90 495 138 569 q 42 319 42 421 q 90 144 42 219 q 222 28 138 69 q 411 -14 306 -14 q 533 2 483 -14 q 617 44 583 18 l 617 249 q 567 197 597 218 q 502 165 538 176 q 428 153 467 153 q 342 174 382 153 q 281 231 303 194 q 258 319 258 268 m 592 946 l 432 1018 l 224 796 l 342 738 l 592 946 z "},"ĉ":{"ha":686,"x_min":42,"x_max":642,"o":"m 258 319 q 281 404 258 367 q 342 464 303 442 q 428 486 382 486 q 499 475 463 486 q 566 443 535 464 q 617 392 597 422 l 617 597 q 533 637 583 621 q 411 653 483 653 q 222 611 306 653 q 90 495 138 569 q 42 319 42 421 q 90 144 42 219 q 222 28 138 69 q 411 -14 306 -14 q 533 2 483 -14 q 617 44 583 18 l 617 249 q 567 197 597 218 q 502 165 538 176 q 428 153 467 153 q 342 174 382 153 q 281 231 303 194 q 258 319 258 268 m 368 856 l 494 738 l 642 836 l 368 1031 l 94 836 l 242 738 l 368 856 z "},"ċ":{"ha":686,"x_min":42,"x_max":617,"o":"m 258 319 q 281 404 258 367 q 342 464 303 442 q 428 486 382 486 q 499 475 463 486 q 566 443 535 464 q 617 392 597 422 l 617 597 q 533 637 583 621 q 411 653 483 653 q 222 611 306 653 q 90 495 138 569 q 42 319 42 421 q 90 144 42 219 q 222 28 138 69 q 411 -14 306 -14 q 533 2 483 -14 q 617 44 583 18 l 617 249 q 567 197 597 218 q 502 165 538 176 q 428 153 467 153 q 342 174 382 153 q 281 231 303 194 q 258 319 258 268 m 254 860 q 290 778 254 810 q 376 746 326 746 q 463 778 428 746 q 499 860 499 810 q 463 941 499 910 q 376 972 428 972 q 290 941 326 972 q 254 860 254 910 z "},"č":{"ha":686,"x_min":42,"x_max":642,"o":"m 258 319 q 281 404 258 367 q 342 464 303 442 q 428 486 382 486 q 499 475 463 486 q 566 443 535 464 q 617 392 597 422 l 617 597 q 533 637 583 621 q 411 653 483 653 q 222 611 306 653 q 90 495 138 569 q 42 319 42 421 q 90 144 42 219 q 222 28 138 69 q 411 -14 306 -14 q 533 2 483 -14 q 617 44 583 18 l 617 249 q 567 197 597 218 q 502 165 538 176 q 428 153 467 153 q 342 174 382 153 q 281 231 303 194 q 258 319 258 268 m 368 911 l 242 1031 l 94 932 l 368 738 l 642 932 l 494 1031 l 368 911 z "},"d":{"ha":857,"x_min":44,"x_max":776,"o":"m 567 1083 l 567 0 l 776 0 l 776 1083 l 567 1083 m 44 319 q 88 138 44 213 q 201 25 132 64 q 349 -14 271 -14 q 491 26 429 -14 q 589 142 553 67 q 625 319 625 217 q 589 498 625 424 q 491 613 553 572 q 349 653 429 653 q 201 614 271 653 q 88 501 132 575 q 44 319 44 428 m 265 319 q 286 406 265 369 q 342 463 307 443 q 418 483 376 483 q 488 464 454 483 q 544 408 522 444 q 567 319 567 371 q 544 231 567 268 q 488 175 522 194 q 418 156 454 156 q 342 176 376 156 q 286 233 307 196 q 265 319 265 269 z "},"ď":{"ha":857,"x_min":44,"x_max":1150,"o":"m 567 1083 l 567 0 l 776 0 l 776 1083 l 567 1083 m 44 319 q 88 138 44 213 q 201 25 132 64 q 349 -14 271 -14 q 491 26 429 -14 q 589 142 553 67 q 625 319 625 217 q 589 498 625 424 q 491 613 553 572 q 349 653 429 653 q 201 614 271 653 q 88 501 132 575 q 44 319 44 428 m 265 319 q 286 406 265 369 q 342 463 307 443 q 418 483 376 483 q 488 464 454 483 q 544 408 522 444 q 567 319 567 371 q 544 231 567 268 q 488 175 522 194 q 418 156 454 156 q 342 176 376 156 q 286 233 307 196 q 265 319 265 269 m 940 1083 l 818 724 l 976 692 l 1150 1039 l 940 1083 z "},"e":{"ha":796,"x_min":44,"x_max":750,"o":"m 407 -14 q 615 33 529 -14 q 750 175 700 81 l 563 221 q 499 158 539 179 q 404 138 460 138 q 322 159 356 138 q 272 222 289 181 q 256 322 256 264 q 273 428 257 386 q 321 492 289 471 q 400 513 353 513 q 465 496 438 513 q 508 449 493 479 q 524 376 524 418 q 519 352 524 367 q 507 328 514 338 l 557 392 l 163 392 l 163 275 l 746 275 q 749 299 749 285 q 749 329 749 314 q 708 504 749 432 q 592 615 668 576 q 404 653 515 653 q 212 613 293 653 q 88 497 131 572 q 44 319 44 422 q 89 143 44 218 q 215 27 133 68 q 407 -14 296 -14 z "},"è":{"ha":796,"x_min":44,"x_max":750,"o":"m 163 275 l 746 275 q 749 306 749 292 q 749 329 749 321 q 709 503 749 431 q 592 614 669 575 q 404 653 515 653 q 226 619 300 653 q 108 526 151 586 q 50 388 64 467 q 46 354 47 371 q 44 319 44 338 q 87 148 44 224 q 210 29 129 72 q 407 -14 292 -14 q 565 9 500 -14 q 674 74 629 32 q 750 175 718 117 l 563 221 q 525 176 547 194 q 473 147 503 157 q 404 138 443 138 q 329 156 363 138 q 276 214 296 174 q 256 319 256 254 l 258 353 q 276 440 258 404 q 326 494 294 475 q 400 513 357 513 q 463 498 438 513 q 503 457 489 483 q 524 392 518 431 l 163 392 l 163 275 m 175 950 l 425 742 l 543 801 l 335 1024 l 175 950 z "},"é":{"ha":796,"x_min":44,"x_max":750,"o":"m 163 275 l 746 275 q 749 306 749 292 q 749 329 749 321 q 709 503 749 431 q 592 614 669 575 q 404 653 515 653 q 226 619 300 653 q 108 526 151 586 q 50 388 64 467 q 46 354 47 371 q 44 319 44 338 q 87 148 44 224 q 210 29 129 72 q 407 -14 292 -14 q 565 9 500 -14 q 674 74 629 32 q 750 175 718 117 l 563 221 q 525 176 547 194 q 473 147 503 157 q 404 138 443 138 q 329 156 363 138 q 276 214 296 174 q 256 319 256 254 l 258 353 q 276 440 258 404 q 326 494 294 475 q 400 513 357 513 q 463 498 438 513 q 503 457 489 483 q 524 392 518 431 l 163 392 l 163 275 m 643 950 l 483 1024 l 275 801 l 393 742 l 643 950 z "},"ê":{"ha":796,"x_min":44,"x_max":750,"o":"m 163 275 l 746 275 q 749 306 749 292 q 749 329 749 321 q 709 503 749 431 q 592 614 669 575 q 404 653 515 653 q 226 619 300 653 q 108 526 151 586 q 50 388 64 467 q 46 354 47 371 q 44 319 44 338 q 87 148 44 224 q 210 29 129 72 q 407 -14 292 -14 q 565 9 500 -14 q 674 74 629 32 q 750 175 718 117 l 563 221 q 525 176 547 194 q 473 147 503 157 q 404 138 443 138 q 329 156 363 138 q 276 214 296 174 q 256 319 256 254 l 258 353 q 276 440 258 404 q 326 494 294 475 q 400 513 357 513 q 463 498 438 513 q 503 457 489 483 q 524 392 518 431 l 163 392 l 163 275 m 404 856 l 531 738 l 678 836 l 404 1031 l 131 836 l 278 738 l 404 856 z "},"ë":{"ha":796,"x_min":44,"x_max":750,"o":"m 163 275 l 746 275 q 749 306 749 292 q 749 329 749 321 q 709 503 749 431 q 592 614 669 575 q 404 653 515 653 q 226 619 300 653 q 108 526 151 586 q 50 388 64 467 q 46 354 47 371 q 44 319 44 338 q 87 148 44 224 q 210 29 129 72 q 407 -14 292 -14 q 565 9 500 -14 q 674 74 629 32 q 750 175 718 117 l 563 221 q 525 176 547 194 q 473 147 503 157 q 404 138 443 138 q 329 156 363 138 q 276 214 296 174 q 256 319 256 254 l 258 353 q 276 440 258 404 q 326 494 294 475 q 400 513 357 513 q 463 498 438 513 q 503 457 489 483 q 524 392 518 431 l 163 392 l 163 275 m 451 850 q 487 769 451 801 q 574 738 522 738 q 660 769 624 738 q 696 850 696 801 q 660 932 696 900 q 574 964 624 964 q 487 932 522 964 q 451 850 451 900 m 113 850 q 149 769 113 801 q 235 738 185 738 q 322 769 286 738 q 357 850 357 801 q 322 932 357 900 q 235 964 286 964 q 149 932 185 964 q 113 850 113 900 z "},"ē":{"ha":796,"x_min":44,"x_max":750,"o":"m 163 275 l 746 275 q 749 306 749 292 q 749 329 749 321 q 709 503 749 431 q 592 614 669 575 q 404 653 515 653 q 226 619 300 653 q 108 526 151 586 q 50 388 64 467 q 46 354 47 371 q 44 319 44 338 q 87 148 44 224 q 210 29 129 72 q 407 -14 292 -14 q 565 9 500 -14 q 674 74 629 32 q 750 175 718 117 l 563 221 q 525 176 547 194 q 473 147 503 157 q 404 138 443 138 q 329 156 363 138 q 276 214 296 174 q 256 319 256 254 l 258 353 q 276 440 258 404 q 326 494 294 475 q 400 513 357 513 q 463 498 438 513 q 503 457 489 483 q 524 392 518 431 l 163 392 l 163 275 m 146 738 l 663 738 l 663 919 l 146 919 l 146 738 z "},"ĕ":{"ha":796,"x_min":44,"x_max":750,"o":"m 163 275 l 746 275 q 749 306 749 292 q 749 329 749 321 q 709 503 749 431 q 592 614 669 575 q 404 653 515 653 q 226 619 300 653 q 108 526 151 586 q 50 388 64 467 q 46 354 47 371 q 44 319 44 338 q 87 148 44 224 q 210 29 129 72 q 407 -14 292 -14 q 565 9 500 -14 q 674 74 629 32 q 750 175 718 117 l 563 221 q 525 176 547 194 q 473 147 503 157 q 404 138 443 138 q 329 156 363 138 q 276 214 296 174 q 256 319 256 254 l 258 353 q 276 440 258 404 q 326 494 294 475 q 400 513 357 513 q 463 498 438 513 q 503 457 489 483 q 524 392 518 431 l 163 392 l 163 275 m 176 940 q 203 838 176 885 q 281 765 229 792 q 404 738 332 738 q 528 765 478 738 q 606 838 579 792 q 632 940 632 885 l 494 940 q 483 897 494 915 q 451 868 472 879 q 404 857 431 857 q 356 868 376 857 q 325 897 336 879 q 314 940 314 915 l 176 940 z "},"ė":{"ha":796,"x_min":44,"x_max":750,"o":"m 163 275 l 746 275 q 749 306 749 292 q 749 329 749 321 q 709 503 749 431 q 592 614 669 575 q 404 653 515 653 q 226 619 300 653 q 108 526 151 586 q 50 388 64 467 q 46 354 47 371 q 44 319 44 338 q 87 148 44 224 q 210 29 129 72 q 407 -14 292 -14 q 565 9 500 -14 q 674 74 629 32 q 750 175 718 117 l 563 221 q 525 176 547 194 q 473 147 503 157 q 404 138 443 138 q 329 156 363 138 q 276 214 296 174 q 256 319 256 254 l 258 353 q 276 440 258 404 q 326 494 294 475 q 400 513 357 513 q 463 498 438 513 q 503 457 489 483 q 524 392 518 431 l 163 392 l 163 275 m 282 850 q 318 769 282 801 q 404 738 354 738 q 491 769 456 738 q 526 850 526 801 q 491 932 526 900 q 404 964 456 964 q 318 932 354 964 q 282 850 282 900 z "},"ę":{"ha":796,"x_min":44,"x_max":765,"o":"m 163 275 l 746 275 q 749 306 749 292 q 749 329 749 321 q 709 503 749 431 q 592 614 669 575 q 404 653 515 653 q 226 619 300 653 q 108 526 151 586 q 50 388 64 467 q 46 354 47 371 q 44 319 44 338 q 87 148 44 224 q 210 29 129 72 q 407 -14 292 -14 q 524 1 476 -14 q 610 44 572 17 q 680 105 647 71 q 750 175 713 139 l 563 221 q 525 176 547 194 q 473 147 503 157 q 404 138 443 138 q 329 156 363 138 q 276 214 296 174 q 256 319 256 254 l 258 353 q 276 440 258 404 q 326 494 294 475 q 400 513 357 513 q 463 498 438 513 q 503 457 489 483 q 524 392 518 431 l 163 392 l 163 275 m 719 -47 q 688 -68 706 -61 q 650 -75 671 -75 q 613 -62 625 -75 q 600 -28 600 -49 q 614 17 600 -6 q 661 76 628 39 q 750 175 694 113 l 656 142 q 587 97 621 119 q 525 49 553 74 q 481 -6 497 24 q 464 -68 464 -35 q 487 -142 464 -112 q 546 -185 510 -171 q 621 -199 582 -199 q 714 -181 678 -199 q 765 -143 750 -164 l 719 -47 z "},"ě":{"ha":796,"x_min":44,"x_max":750,"o":"m 163 275 l 746 275 q 749 306 749 292 q 749 329 749 321 q 709 503 749 431 q 592 614 669 575 q 404 653 515 653 q 226 619 300 653 q 108 526 151 586 q 50 388 64 467 q 46 354 47 371 q 44 319 44 338 q 87 148 44 224 q 210 29 129 72 q 407 -14 292 -14 q 565 9 500 -14 q 674 74 629 32 q 750 175 718 117 l 563 221 q 525 176 547 194 q 473 147 503 157 q 404 138 443 138 q 329 156 363 138 q 276 214 296 174 q 256 319 256 254 l 258 353 q 276 440 258 404 q 326 494 294 475 q 400 513 357 513 q 463 498 438 513 q 503 457 489 483 q 524 392 518 431 l 163 392 l 163 275 m 404 911 l 278 1031 l 131 932 l 404 738 l 678 932 l 531 1031 l 404 911 z "},"f":{"ha":478,"x_min":25,"x_max":522,"o":"m 25 639 l 25 465 l 461 465 l 461 639 l 25 639 m 438 882 l 522 1036 q 485 1066 508 1050 q 427 1094 461 1082 q 346 1106 393 1106 q 213 1078 267 1106 q 133 999 160 1050 q 106 875 106 947 l 106 0 l 307 0 l 307 822 q 315 876 307 856 q 338 907 324 897 q 374 917 353 917 q 408 908 392 917 q 438 882 424 900 z "},"g":{"ha":847,"x_min":44,"x_max":768,"o":"m 58 -46 q 104 -195 65 -131 q 220 -296 143 -260 q 415 -332 297 -332 q 593 -297 514 -332 q 720 -185 672 -261 q 768 14 768 -108 l 768 639 l 567 639 l 567 14 q 545 -84 567 -44 q 488 -144 524 -124 q 407 -164 451 -164 q 335 -151 367 -164 q 284 -111 303 -137 q 261 -46 265 -85 l 58 -46 m 44 328 q 88 149 44 221 q 201 40 132 76 q 349 3 271 3 q 491 41 429 3 q 589 152 553 79 q 625 328 625 225 q 589 504 625 432 q 491 615 553 576 q 349 653 429 653 q 201 617 271 653 q 88 508 132 581 q 44 328 44 436 m 265 328 q 286 413 265 378 q 342 465 307 447 q 418 483 376 483 q 471 474 444 483 q 519 444 497 464 q 553 396 540 425 q 567 328 567 367 q 544 242 567 276 q 488 190 522 207 q 418 172 454 172 q 342 190 376 172 q 286 244 307 208 q 265 328 265 279 z "},"ĝ":{"ha":847,"x_min":44,"x_max":768,"o":"m 58 -46 q 104 -195 65 -131 q 220 -296 143 -260 q 415 -332 297 -332 q 593 -297 514 -332 q 720 -185 672 -261 q 768 14 768 -108 l 768 639 l 567 639 l 567 14 q 545 -84 567 -44 q 488 -144 524 -124 q 407 -164 451 -164 q 335 -151 367 -164 q 284 -111 303 -137 q 261 -46 265 -85 l 58 -46 m 44 328 q 88 149 44 221 q 201 40 132 76 q 349 3 271 3 q 491 41 429 3 q 589 152 553 79 q 625 328 625 225 q 589 504 625 432 q 491 615 553 576 q 349 653 429 653 q 201 617 271 653 q 88 508 132 581 q 44 328 44 436 m 265 328 q 286 413 265 378 q 342 465 307 447 q 418 483 376 483 q 471 474 444 483 q 519 444 497 464 q 553 396 540 425 q 567 328 567 367 q 544 242 567 276 q 488 190 522 207 q 418 172 454 172 q 342 190 376 172 q 286 244 307 208 q 265 328 265 279 m 443 856 l 569 738 l 717 836 l 443 1031 l 169 836 l 317 738 l 443 856 z "},"ğ":{"ha":847,"x_min":44,"x_max":768,"o":"m 58 -46 q 104 -195 65 -131 q 220 -296 143 -260 q 415 -332 297 -332 q 593 -297 514 -332 q 720 -185 672 -261 q 768 14 768 -108 l 768 639 l 567 639 l 567 14 q 545 -84 567 -44 q 488 -144 524 -124 q 407 -164 451 -164 q 335 -151 367 -164 q 284 -111 303 -137 q 261 -46 265 -85 l 58 -46 m 44 328 q 88 149 44 221 q 201 40 132 76 q 349 3 271 3 q 491 41 429 3 q 589 152 553 79 q 625 328 625 225 q 589 504 625 432 q 491 615 553 576 q 349 653 429 653 q 201 617 271 653 q 88 508 132 581 q 44 328 44 436 m 265 328 q 286 413 265 378 q 342 465 307 447 q 418 483 376 483 q 471 474 444 483 q 519 444 497 464 q 553 396 540 425 q 567 328 567 367 q 544 242 567 276 q 488 190 522 207 q 418 172 454 172 q 342 190 376 172 q 286 244 307 208 q 265 328 265 279 m 215 940 q 242 838 215 885 q 319 765 268 792 q 443 738 371 738 q 567 765 517 738 q 644 838 618 792 q 671 940 671 885 l 533 940 q 522 897 533 915 q 490 868 511 879 q 443 857 469 857 q 395 868 415 857 q 364 897 375 879 q 353 940 353 915 l 215 940 z "},"ġ":{"ha":847,"x_min":44,"x_max":768,"o":"m 58 -46 q 104 -195 65 -131 q 220 -296 143 -260 q 415 -332 297 -332 q 593 -297 514 -332 q 720 -185 672 -261 q 768 14 768 -108 l 768 639 l 567 639 l 567 14 q 545 -84 567 -44 q 488 -144 524 -124 q 407 -164 451 -164 q 335 -151 367 -164 q 284 -111 303 -137 q 261 -46 265 -85 l 58 -46 m 44 328 q 88 149 44 221 q 201 40 132 76 q 349 3 271 3 q 491 41 429 3 q 589 152 553 79 q 625 328 625 225 q 589 504 625 432 q 491 615 553 576 q 349 653 429 653 q 201 617 271 653 q 88 508 132 581 q 44 328 44 436 m 265 328 q 286 413 265 378 q 342 465 307 447 q 418 483 376 483 q 471 474 444 483 q 519 444 497 464 q 553 396 540 425 q 567 328 567 367 q 544 242 567 276 q 488 190 522 207 q 418 172 454 172 q 342 190 376 172 q 286 244 307 208 q 265 328 265 279 m 306 871 q 342 790 306 822 q 428 758 378 758 q 515 790 479 758 q 550 871 550 822 q 515 953 550 922 q 428 985 479 985 q 342 953 378 985 q 306 871 306 922 z "},"ģ":{"ha":792,"x_min":44,"x_max":768,"o":"m 58 -46 q 104 -195 65 -131 q 220 -296 143 -260 q 415 -332 297 -332 q 593 -297 514 -332 q 720 -185 672 -261 q 768 14 768 -108 l 768 639 l 567 639 l 567 14 q 545 -84 567 -44 q 488 -144 524 -124 q 407 -164 451 -164 q 335 -151 367 -164 q 284 -111 303 -137 q 261 -46 265 -85 l 58 -46 m 44 328 q 88 149 44 221 q 201 40 132 76 q 349 3 271 3 q 491 41 429 3 q 589 152 553 79 q 625 328 625 225 q 589 504 625 432 q 491 615 553 576 q 349 653 429 653 q 201 617 271 653 q 88 508 132 581 q 44 328 44 436 m 265 328 q 286 413 265 378 q 342 465 307 447 q 418 483 376 483 q 471 474 444 483 q 519 444 497 464 q 553 396 540 425 q 567 328 567 367 q 544 242 567 276 q 488 190 522 207 q 418 172 454 172 q 342 190 376 172 q 286 244 307 208 q 265 328 265 279 m 431 753 l 606 1089 l 456 1146 l 229 829 l 431 753 z "},"h":{"ha":789,"x_min":82,"x_max":707,"o":"m 293 1083 l 82 1083 l 82 0 l 293 0 l 293 1083 m 497 389 l 497 0 l 707 0 l 707 419 q 685 553 707 499 q 615 635 663 607 q 488 663 567 663 q 358 626 408 663 q 282 527 307 589 q 257 389 257 465 l 293 389 q 307 452 293 426 q 346 492 321 478 q 404 507 371 507 q 476 476 456 507 q 497 389 497 446 z "},"ĥ":{"ha":789,"x_min":-82,"x_max":707,"o":"m 293 1083 l 82 1083 l 82 0 l 293 0 l 293 1083 m 497 389 l 497 0 l 707 0 l 707 419 q 685 553 707 499 q 615 635 663 607 q 488 663 567 663 q 356 626 408 663 q 278 527 304 589 q 251 389 251 465 l 293 389 q 307 452 293 426 q 346 492 321 478 q 404 507 371 507 q 476 476 456 507 q 497 389 497 446 m 192 1286 l 319 1167 l 465 1265 l 192 1460 l -82 1265 l 65 1167 l 192 1286 z "},"i":{"ha":383,"x_min":69,"x_max":314,"o":"m 69 879 q 106 797 69 829 q 192 765 142 765 q 278 797 243 765 q 314 879 314 829 q 278 960 314 929 q 192 992 243 992 q 106 960 142 992 q 69 879 69 929 m 90 639 l 90 0 l 293 0 l 293 639 l 90 639 z "},"ì":{"ha":383,"x_min":-58,"x_max":310,"o":"m 90 639 l 90 0 l 293 0 l 293 639 l 90 639 m -58 956 l 192 747 l 310 807 l 101 1029 l -58 956 z "},"í":{"ha":383,"x_min":61,"x_max":431,"o":"m 90 639 l 90 0 l 293 0 l 293 639 l 90 639 m 431 956 l 269 1029 l 61 807 l 181 747 l 431 956 z "},"î":{"ha":383,"x_min":-83,"x_max":465,"o":"m 90 639 l 90 0 l 293 0 l 293 639 l 90 639 m 190 861 l 318 742 l 465 840 l 190 1035 l -83 840 l 64 742 l 190 861 z "},"ï":{"ha":383,"x_min":-100,"x_max":483,"o":"m 90 639 l 90 0 l 293 0 l 293 639 l 90 639 m 239 867 q 275 785 239 817 q 361 753 311 753 q 447 785 411 753 q 483 867 483 817 q 447 948 483 917 q 361 979 411 979 q 275 948 311 979 q 239 867 239 917 m -100 867 q -64 785 -100 817 q 22 753 -28 753 q 109 785 74 753 q 144 867 144 817 q 109 948 144 917 q 22 979 74 979 q -64 948 -28 979 q -100 867 -100 917 z "},"ĩ":{"ha":383,"x_min":-81,"x_max":464,"o":"m 90 639 l 90 0 l 293 0 l 293 639 l 90 639 m -81 828 l 18 742 q 24 769 18 753 q 44 799 29 786 q 85 813 58 813 q 148 794 118 813 q 209 758 178 776 q 278 739 240 739 q 359 758 321 739 q 425 805 397 776 q 464 858 453 833 l 365 961 q 322 908 344 928 q 274 888 300 888 q 224 899 244 888 q 185 924 203 910 q 143 949 167 938 q 85 960 119 960 q 6 940 42 960 q -51 892 -29 921 q -81 828 -74 863 z "},"ī":{"ha":383,"x_min":-67,"x_max":450,"o":"m 90 639 l 90 0 l 293 0 l 293 639 l 90 639 m -67 738 l 450 738 l 450 919 l -67 919 l -67 738 z "},"ĭ":{"ha":383,"x_min":-37,"x_max":419,"o":"m 90 639 l 90 0 l 293 0 l 293 639 l 90 639 m -37 940 q -11 838 -37 885 q 67 765 15 792 q 190 738 118 738 q 315 765 264 738 q 393 838 367 792 q 419 940 419 885 l 282 940 q 270 897 282 915 q 238 868 258 879 q 190 857 218 857 q 144 868 164 857 q 112 897 124 879 q 100 940 100 915 l -37 940 z "},"į":{"ha":383,"x_min":10,"x_max":314,"o":"m 69 879 q 106 797 69 829 q 192 765 142 765 q 278 797 243 765 q 314 879 314 829 q 278 960 314 929 q 192 992 243 992 q 106 960 142 992 q 69 879 69 929 m 90 639 l 90 0 l 293 0 l 293 639 l 90 639 m 265 -154 q 234 -175 251 -168 q 196 -182 217 -182 q 160 -169 172 -182 q 147 -131 147 -156 q 160 -86 147 -108 q 197 -42 172 -64 q 258 0 222 -19 l 201 35 q 109 -20 153 10 q 38 -85 65 -50 q 10 -167 10 -121 q 31 -242 10 -211 q 90 -290 53 -274 q 172 -306 126 -306 q 263 -288 229 -306 q 311 -250 296 -271 l 265 -154 z "},"j":{"ha":378,"x_min":-131,"x_max":306,"o":"m 63 879 q 98 797 63 829 q 185 765 133 765 q 270 797 235 765 q 306 879 306 829 q 270 960 306 929 q 185 992 235 992 q 98 960 133 992 q 63 879 63 929 m -46 -107 l -131 -261 q -91 -293 -114 -276 q -34 -321 -68 -310 q 46 -332 0 -332 q 180 -303 126 -332 q 260 -222 233 -274 q 288 -100 288 -169 l 288 639 l 85 639 l 85 -47 q 78 -101 85 -81 q 56 -133 71 -122 q 18 -143 40 -143 q -17 -133 -1 -143 q -46 -107 -33 -124 z "},"ĵ":{"ha":378,"x_min":-131,"x_max":460,"o":"m -46 -107 l -131 -261 q -92 -292 -115 -275 q -35 -320 -69 -308 q 46 -332 0 -332 q 180 -303 126 -332 q 260 -223 233 -275 q 288 -100 288 -171 l 288 639 l 85 639 l 85 -47 q 77 -101 85 -81 q 54 -133 69 -122 q 18 -143 39 -143 q -16 -135 0 -143 q -46 -107 -32 -126 m 186 856 l 313 738 l 460 836 l 186 1031 l -89 836 l 58 738 l 186 856 z "},"k":{"ha":801,"x_min":81,"x_max":792,"o":"m 81 1083 l 81 0 l 282 0 l 282 1083 l 81 1083 m 514 639 l 240 375 l 546 0 l 792 0 l 492 375 l 764 639 l 514 639 z "},"ķ":{"ha":801,"x_min":81,"x_max":792,"o":"m 81 1083 l 81 0 l 282 0 l 282 1083 l 81 1083 m 514 639 l 240 375 l 546 0 l 792 0 l 492 375 l 764 639 l 514 639 m 357 -83 l 235 -443 l 393 -475 l 568 -128 l 357 -83 z "},"l":{"ha":375,"x_min":82,"x_max":293,"o":"m 82 1083 l 82 0 l 293 0 l 293 1083 l 82 1083 z "},"ĺ":{"ha":375,"x_min":43,"x_max":413,"o":"m 82 1083 l 82 0 l 293 0 l 293 1083 l 82 1083 m 413 1375 l 251 1447 l 43 1225 l 163 1167 l 413 1375 z "},"ļ":{"ha":375,"x_min":21,"x_max":354,"o":"m 82 1083 l 82 0 l 293 0 l 293 1083 l 82 1083 m 143 -83 l 21 -443 l 179 -475 l 354 -128 l 143 -83 z "},"ľ":{"ha":375,"x_min":82,"x_max":694,"o":"m 82 1083 l 82 0 l 293 0 l 293 1083 l 82 1083 m 485 1083 l 363 724 l 521 692 l 694 1039 l 485 1083 z "},"m":{"ha":1139,"x_min":82,"x_max":1057,"o":"m 1057 411 q 1038 543 1057 489 q 974 626 1018 597 q 856 654 931 654 q 739 626 790 654 q 653 549 688 599 q 589 627 633 600 q 469 654 544 654 q 358 625 404 654 q 285 544 311 596 l 285 639 l 82 639 l 82 0 l 285 0 l 285 389 q 297 454 285 428 q 330 494 308 481 q 379 507 351 507 q 441 477 422 507 q 460 389 460 447 l 460 0 l 671 0 l 671 389 q 683 454 671 428 q 716 494 694 481 q 765 507 738 507 q 827 477 808 507 q 846 389 846 447 l 846 0 l 1057 0 l 1057 411 z "},"n":{"ha":799,"x_min":82,"x_max":715,"o":"m 497 389 l 497 0 l 715 0 l 715 411 q 661 590 715 526 q 488 654 607 654 q 369 625 417 654 q 293 543 321 596 l 293 639 l 82 639 l 82 0 l 293 0 l 293 389 q 307 453 293 426 q 346 493 321 479 q 404 507 371 507 q 476 476 454 507 q 497 389 497 446 z "},"ñ":{"ha":799,"x_min":82,"x_max":715,"o":"m 293 639 l 82 639 l 82 0 l 293 0 l 293 639 m 497 389 l 497 0 l 715 0 l 715 411 q 660 592 715 529 q 488 654 606 654 q 356 617 408 654 q 278 519 304 581 q 251 381 251 457 l 293 389 q 307 452 293 426 q 346 492 321 478 q 404 507 371 507 q 476 476 456 507 q 497 389 497 446 m 128 828 l 226 742 q 232 769 226 753 q 252 799 238 786 q 292 813 267 813 q 356 794 326 813 q 417 758 386 776 q 485 739 447 739 q 567 758 529 739 q 633 805 606 776 q 672 858 661 833 l 574 961 q 531 908 553 928 q 482 888 508 888 q 432 899 453 888 q 392 924 411 910 q 350 949 374 938 q 293 960 326 960 q 214 940 249 960 q 157 892 179 921 q 128 828 135 863 z "},"ń":{"ha":799,"x_min":82,"x_max":715,"o":"m 293 639 l 82 639 l 82 0 l 293 0 l 293 639 m 497 389 l 497 0 l 715 0 l 715 411 q 660 592 715 529 q 488 654 606 654 q 358 617 408 654 q 282 519 307 581 q 257 381 257 457 l 293 389 q 307 452 293 426 q 346 492 321 478 q 404 507 371 507 q 476 476 456 507 q 497 389 497 446 m 628 946 l 468 1018 l 260 796 l 378 738 l 628 946 z "},"ņ":{"ha":799,"x_min":82,"x_max":715,"o":"m 293 639 l 82 639 l 82 0 l 293 0 l 293 639 m 497 389 l 497 0 l 715 0 l 715 411 q 660 592 715 529 q 488 654 606 654 q 356 617 408 654 q 278 519 304 581 q 251 381 251 457 l 293 389 q 307 452 293 426 q 346 492 321 478 q 404 507 371 507 q 476 476 456 507 q 497 389 497 446 m 354 -83 l 232 -443 l 390 -475 l 565 -128 l 354 -83 z "},"ň":{"ha":799,"x_min":82,"x_max":715,"o":"m 293 639 l 82 639 l 82 0 l 293 0 l 293 639 m 497 389 l 497 0 l 715 0 l 715 411 q 660 592 715 529 q 488 654 606 654 q 356 617 408 654 q 278 519 304 581 q 251 381 251 457 l 293 389 q 307 452 293 426 q 346 492 321 478 q 404 507 371 507 q 476 476 456 507 q 497 389 497 446 m 399 911 l 271 1031 l 125 932 l 399 738 l 672 932 l 525 1031 l 399 911 z "},"o":{"ha":818,"x_min":44,"x_max":775,"o":"m 44 319 q 92 144 44 219 q 222 28 139 69 q 410 -14 306 -14 q 597 28 514 -14 q 727 144 679 69 q 775 319 775 219 q 727 496 775 421 q 597 613 679 571 q 410 654 514 654 q 222 613 306 654 q 92 496 139 571 q 44 319 44 421 m 260 319 q 281 406 260 369 q 335 461 301 442 q 410 481 368 481 q 484 461 450 481 q 538 406 518 442 q 558 319 558 369 q 538 234 558 269 q 484 179 518 199 q 410 160 450 160 q 335 179 368 160 q 281 234 301 199 q 260 319 260 269 z "},"ò":{"ha":818,"x_min":44,"x_max":775,"o":"m 44 319 q 92 144 44 219 q 222 28 139 69 q 410 -14 306 -14 q 597 28 514 -14 q 727 144 679 69 q 775 319 775 219 q 727 496 775 421 q 597 613 679 571 q 410 654 514 654 q 222 613 306 654 q 92 496 139 571 q 44 319 44 421 m 260 319 q 281 406 260 369 q 335 461 301 442 q 410 481 368 481 q 484 461 450 481 q 538 406 518 442 q 558 319 558 369 q 538 234 558 269 q 484 179 518 199 q 410 160 450 160 q 335 179 368 160 q 281 234 301 199 q 260 319 260 269 m 188 956 l 438 747 l 556 807 l 347 1029 l 188 956 z "},"ó":{"ha":818,"x_min":44,"x_max":775,"o":"m 44 319 q 92 144 44 219 q 222 28 139 69 q 410 -14 306 -14 q 597 28 514 -14 q 727 144 679 69 q 775 319 775 219 q 727 496 775 421 q 597 613 679 571 q 410 654 514 654 q 222 613 306 654 q 92 496 139 571 q 44 319 44 421 m 260 319 q 281 406 260 369 q 335 461 301 442 q 410 481 368 481 q 484 461 450 481 q 538 406 518 442 q 558 319 558 369 q 538 234 558 269 q 484 179 518 199 q 410 160 450 160 q 335 179 368 160 q 281 234 301 199 q 260 319 260 269 m 632 956 l 471 1029 l 263 807 l 382 747 l 632 956 z "},"ô":{"ha":818,"x_min":44,"x_max":775,"o":"m 44 319 q 92 144 44 219 q 222 28 139 69 q 410 -14 306 -14 q 597 28 514 -14 q 727 144 679 69 q 775 319 775 219 q 727 496 775 421 q 597 613 679 571 q 410 654 514 654 q 222 613 306 654 q 92 496 139 571 q 44 319 44 421 m 260 319 q 281 406 260 369 q 335 461 301 442 q 410 481 368 481 q 484 461 450 481 q 538 406 518 442 q 558 319 558 369 q 538 234 558 269 q 484 179 518 199 q 410 160 450 160 q 335 179 368 160 q 281 234 301 199 q 260 319 260 269 m 410 867 l 536 747 l 683 846 l 410 1040 l 135 846 l 282 747 l 410 867 z "},"õ":{"ha":818,"x_min":44,"x_max":775,"o":"m 44 319 q 92 144 44 219 q 222 28 139 69 q 410 -14 306 -14 q 597 28 514 -14 q 727 144 679 69 q 775 319 775 219 q 727 496 775 421 q 597 613 679 571 q 410 654 514 654 q 222 613 306 654 q 92 496 139 571 q 44 319 44 421 m 260 319 q 281 406 260 369 q 335 461 301 442 q 410 481 368 481 q 484 461 450 481 q 538 406 518 442 q 558 319 558 369 q 538 234 558 269 q 484 179 518 199 q 410 160 450 160 q 335 179 368 160 q 281 234 301 199 q 260 319 260 269 m 138 828 l 236 742 q 242 769 236 753 q 261 799 247 786 q 301 813 275 813 q 365 794 336 813 q 426 758 394 776 q 496 739 458 739 q 577 758 539 739 q 643 805 615 776 q 682 858 671 833 l 583 961 q 541 908 563 928 q 493 888 519 888 q 442 899 463 888 q 403 924 422 910 q 361 949 385 938 q 303 960 338 960 q 224 940 260 960 q 167 892 189 921 q 138 828 144 863 z "},"ö":{"ha":818,"x_min":44,"x_max":775,"o":"m 44 319 q 92 144 44 219 q 222 28 139 69 q 410 -14 306 -14 q 597 28 514 -14 q 727 144 679 69 q 775 319 775 219 q 727 496 775 421 q 597 613 679 571 q 410 654 514 654 q 222 613 306 654 q 92 496 139 571 q 44 319 44 421 m 260 319 q 281 406 260 369 q 335 461 301 442 q 410 481 368 481 q 484 461 450 481 q 538 406 518 442 q 558 319 558 369 q 538 234 558 269 q 484 179 518 199 q 410 160 450 160 q 335 179 368 160 q 281 234 301 199 q 260 319 260 269 m 457 867 q 492 785 457 817 q 578 753 528 753 q 665 785 629 753 q 700 867 700 817 q 665 948 700 917 q 578 979 629 979 q 492 948 528 979 q 457 867 457 917 m 118 867 q 154 785 118 817 q 240 753 190 753 q 327 785 292 753 q 363 867 363 817 q 327 948 363 917 q 240 979 292 979 q 154 948 190 979 q 118 867 118 917 z "},"ō":{"ha":818,"x_min":44,"x_max":775,"o":"m 44 319 q 92 144 44 219 q 222 28 139 69 q 410 -14 306 -14 q 597 28 514 -14 q 727 144 679 69 q 775 319 775 219 q 727 496 775 421 q 597 613 679 571 q 410 654 514 654 q 222 613 306 654 q 92 496 139 571 q 44 319 44 421 m 260 319 q 281 406 260 369 q 335 461 301 442 q 410 481 368 481 q 484 461 450 481 q 538 406 518 442 q 558 319 558 369 q 538 234 558 269 q 484 179 518 199 q 410 160 450 160 q 335 179 368 160 q 281 234 301 199 q 260 319 260 269 m 151 738 l 667 738 l 667 919 l 151 919 l 151 738 z "},"ŏ":{"ha":818,"x_min":44,"x_max":775,"o":"m 44 319 q 92 144 44 219 q 222 28 139 69 q 410 -14 306 -14 q 597 28 514 -14 q 727 144 679 69 q 775 319 775 219 q 727 496 775 421 q 597 613 679 571 q 410 654 514 654 q 222 613 306 654 q 92 496 139 571 q 44 319 44 421 m 260 319 q 281 406 260 369 q 335 461 301 442 q 410 481 368 481 q 484 461 450 481 q 538 406 518 442 q 558 319 558 369 q 538 234 558 269 q 484 179 518 199 q 410 160 450 160 q 335 179 368 160 q 281 234 301 199 q 260 319 260 269 m 182 940 q 208 838 182 885 q 286 765 235 792 q 410 738 338 738 q 534 765 483 738 q 611 838 585 792 q 638 940 638 885 l 500 940 q 489 897 500 915 q 457 868 478 879 q 410 857 436 857 q 362 868 382 857 q 330 897 342 879 q 318 940 318 915 l 182 940 z "},"ő":{"ha":818,"x_min":44,"x_max":775,"o":"m 279 738 l 481 992 l 310 1033 l 151 772 l 279 738 m 539 738 l 740 992 l 568 1033 l 411 772 l 539 738 m 44 319 q 92 144 44 219 q 222 28 139 69 q 410 -14 306 -14 q 597 28 514 -14 q 727 144 679 69 q 775 319 775 219 q 727 496 775 421 q 597 613 679 571 q 410 654 514 654 q 222 613 306 654 q 92 496 139 571 q 44 319 44 421 m 260 319 q 281 406 260 369 q 335 461 301 442 q 410 481 368 481 q 484 461 450 481 q 538 406 518 442 q 558 319 558 369 q 538 234 558 269 q 484 179 518 199 q 410 160 450 160 q 335 179 368 160 q 281 234 301 199 q 260 319 260 269 z "},"p":{"ha":857,"x_min":81,"x_max":813,"o":"m 290 -306 l 290 639 l 81 639 l 81 -306 l 290 -306 m 813 319 q 769 508 813 432 q 656 622 725 583 q 508 661 588 661 q 365 619 425 661 q 272 500 304 576 q 240 319 240 424 q 272 140 240 217 q 365 20 304 63 q 508 -22 425 -22 q 656 17 588 -22 q 769 132 725 56 q 813 319 813 208 m 592 319 q 571 235 592 269 q 515 182 550 200 q 439 164 481 164 q 369 181 403 164 q 313 233 335 199 q 290 319 290 268 q 313 406 290 371 q 369 458 335 440 q 439 475 403 475 q 515 457 481 475 q 571 404 550 439 q 592 319 592 369 z "},"q":{"ha":857,"x_min":44,"x_max":776,"o":"m 567 -306 l 776 -306 l 776 639 l 567 639 l 567 -306 m 44 319 q 88 132 44 208 q 201 17 132 56 q 349 -22 271 -22 q 493 20 433 -22 q 585 140 553 63 q 617 319 617 217 q 585 500 617 424 q 493 619 553 576 q 349 661 433 661 q 201 622 271 661 q 88 508 132 583 q 44 319 44 432 m 265 319 q 286 404 265 369 q 342 457 307 439 q 418 475 376 475 q 488 458 454 475 q 544 406 522 440 q 567 319 567 371 q 544 233 567 268 q 488 181 522 199 q 418 164 454 164 q 342 182 376 164 q 286 235 307 200 q 265 319 265 269 z "},"r":{"ha":571,"x_min":82,"x_max":564,"o":"m 289 639 l 82 639 l 82 0 l 289 0 l 289 639 m 474 422 l 564 601 q 515 640 547 626 q 449 654 483 654 q 347 619 396 654 q 269 525 299 585 q 239 389 239 465 l 289 315 q 301 393 289 361 q 338 442 314 425 q 392 458 361 458 q 438 449 419 458 q 474 422 457 439 z "},"ŕ":{"ha":571,"x_min":82,"x_max":564,"o":"m 289 639 l 82 639 l 82 0 l 289 0 l 289 639 m 474 422 l 564 601 q 515 640 547 626 q 449 654 483 654 q 347 619 396 654 q 269 525 299 585 q 239 389 239 465 l 289 315 q 301 393 289 361 q 338 442 314 425 q 392 458 361 458 q 438 449 419 458 q 474 422 457 439 m 547 946 l 388 1019 l 179 797 l 297 738 l 547 946 z "},"ŗ":{"ha":571,"x_min":19,"x_max":564,"o":"m 289 639 l 82 639 l 82 0 l 289 0 l 289 639 m 474 422 l 564 601 q 515 640 547 626 q 449 654 483 654 q 347 619 396 654 q 269 525 299 585 q 239 389 239 465 l 289 315 q 301 393 289 361 q 338 442 314 425 q 392 458 361 458 q 438 449 419 458 q 474 422 457 439 m 142 -83 l 19 -443 l 178 -475 l 351 -128 l 142 -83 z "},"ř":{"ha":571,"x_min":49,"x_max":597,"o":"m 289 639 l 82 639 l 82 0 l 289 0 l 289 639 m 474 422 l 564 601 q 515 640 547 626 q 449 654 483 654 q 347 619 396 654 q 269 525 299 585 q 239 389 239 465 l 289 315 q 301 393 289 361 q 338 442 314 425 q 392 458 361 458 q 438 449 419 458 q 474 422 457 439 m 324 913 l 196 1031 l 49 932 l 324 738 l 597 932 l 450 1031 l 324 913 z "},"ȓ":{"ha":571,"x_min":82,"x_max":564,"o":"m 289 639 l 82 639 l 82 0 l 289 0 l 289 639 m 474 422 l 564 601 q 515 640 547 626 q 449 654 483 654 q 347 619 396 654 q 269 525 299 585 q 239 389 239 465 l 289 315 q 301 393 289 361 q 338 442 314 425 q 392 458 361 458 q 438 449 419 458 q 474 422 457 439 m 96 738 q 122 840 96 794 q 200 913 149 886 q 324 940 251 940 q 448 913 397 940 q 525 840 499 886 q 551 738 551 794 l 414 738 q 403 781 414 763 q 372 810 392 800 q 324 821 351 821 q 276 810 297 821 q 244 781 256 800 q 233 738 233 763 l 96 738 z "},"s":{"ha":633,"x_min":29,"x_max":600,"o":"m 117 232 l 29 93 q 122 33 72 60 q 231 -10 172 6 q 358 -26 290 -26 q 537 26 474 -26 q 600 181 600 78 q 574 276 600 240 q 506 336 549 313 q 414 378 464 360 q 334 408 367 396 q 284 433 301 419 q 267 468 267 447 q 281 497 267 486 q 325 508 296 508 q 419 484 368 508 q 511 422 471 460 l 586 558 q 506 607 549 586 q 416 640 464 628 q 313 653 368 653 q 190 632 243 653 q 105 571 136 611 q 74 472 74 531 q 100 372 74 411 q 167 310 126 333 q 254 271 208 288 q 335 242 306 256 q 378 213 365 228 q 390 178 390 199 q 375 142 390 156 q 328 128 360 128 q 275 137 306 128 q 205 169 244 146 q 117 232 165 192 z "},"ś":{"ha":633,"x_min":26,"x_max":600,"o":"m 115 243 l 26 104 q 117 35 67 65 q 226 -10 167 6 q 354 -26 286 -26 q 535 22 469 -26 q 600 181 600 71 q 575 272 600 236 q 510 332 550 308 q 424 372 469 356 q 346 401 383 389 q 284 428 308 414 q 260 461 260 442 q 276 491 260 482 q 326 500 293 500 q 386 490 353 500 q 453 463 419 481 q 511 422 486 446 l 586 558 q 509 607 551 586 q 417 640 467 628 q 313 653 368 653 q 185 632 243 653 q 93 570 128 611 q 58 468 58 529 q 81 376 58 413 q 141 317 104 340 q 219 274 178 293 q 297 244 257 257 q 363 217 336 232 q 390 178 390 203 q 372 144 390 153 q 326 135 354 135 q 273 144 304 135 q 202 178 242 154 q 115 243 163 201 m 563 946 l 401 1018 l 193 796 l 313 738 l 563 946 z "},"ŝ":{"ha":633,"x_min":26,"x_max":603,"o":"m 115 243 l 26 104 q 117 35 67 65 q 226 -10 167 6 q 354 -26 286 -26 q 535 22 469 -26 q 600 181 600 71 q 575 272 600 236 q 510 332 550 308 q 424 372 469 356 q 346 401 383 389 q 284 428 308 414 q 260 461 260 442 q 276 491 260 482 q 326 500 293 500 q 386 490 353 500 q 453 463 419 481 q 511 422 486 446 l 586 558 q 509 607 551 586 q 417 640 467 628 q 313 653 368 653 q 185 632 243 653 q 93 570 128 611 q 58 468 58 529 q 81 376 58 413 q 141 317 104 340 q 219 274 178 293 q 297 244 257 257 q 363 217 336 232 q 390 178 390 203 q 372 144 390 153 q 326 135 354 135 q 273 144 304 135 q 202 178 242 154 q 115 243 163 201 m 329 856 l 457 738 l 603 836 l 329 1031 l 56 836 l 203 738 l 329 856 z "},"ş":{"ha":633,"x_min":26,"x_max":600,"o":"m 114 243 l 26 106 q 122 37 71 67 q 233 -10 174 7 q 358 -26 292 -26 q 535 22 471 -26 q 600 181 600 71 q 575 275 600 239 q 510 335 550 311 q 424 375 469 358 q 348 403 383 392 q 290 428 313 414 q 267 467 267 442 q 284 497 267 486 q 335 508 301 508 q 424 484 374 508 q 511 422 474 460 l 586 558 q 463 626 531 599 q 313 653 394 653 q 190 633 243 653 q 105 572 136 613 q 74 471 74 531 q 100 371 74 408 q 168 311 126 333 q 254 272 210 289 q 321 247 290 260 q 371 219 351 235 q 390 179 390 204 q 373 142 390 156 q 329 129 356 129 q 279 139 310 129 q 208 173 249 149 q 114 243 167 197 m 313 89 l 192 -181 q 260 -162 226 -165 q 304 -158 294 -158 q 363 -167 338 -158 q 389 -204 389 -176 q 369 -241 389 -229 q 313 -253 349 -253 q 262 -244 293 -253 q 204 -217 231 -236 l 142 -312 q 236 -355 190 -343 q 340 -367 282 -367 q 426 -350 385 -367 q 496 -299 468 -333 q 524 -215 524 -265 q 503 -140 524 -169 q 453 -95 482 -110 q 396 -81 424 -81 q 369 -81 382 -81 q 346 -85 357 -82 l 465 85 l 313 89 z "},"š":{"ha":633,"x_min":26,"x_max":600,"o":"m 115 243 l 26 104 q 117 35 67 65 q 226 -10 167 6 q 354 -26 286 -26 q 535 22 469 -26 q 600 181 600 71 q 575 272 600 236 q 510 332 550 308 q 424 372 469 356 q 346 401 383 389 q 284 428 308 414 q 260 461 260 442 q 276 491 260 482 q 326 500 293 500 q 386 490 353 500 q 453 463 419 481 q 511 422 486 446 l 586 558 q 509 607 551 586 q 417 640 467 628 q 313 653 368 653 q 185 632 243 653 q 93 570 128 611 q 58 468 58 529 q 81 376 58 413 q 141 317 104 340 q 219 274 178 293 q 297 244 257 257 q 363 217 336 232 q 390 178 390 203 q 372 144 390 153 q 326 135 354 135 q 273 144 304 135 q 202 178 242 154 q 115 243 163 201 m 313 894 l 185 1013 l 38 914 l 313 719 l 586 914 l 439 1013 l 313 894 z "},"ș":{"ha":633,"x_min":26,"x_max":600,"o":"m 115 243 l 26 104 q 117 35 67 65 q 226 -10 167 6 q 354 -26 286 -26 q 535 22 469 -26 q 600 181 600 71 q 575 272 600 236 q 510 332 550 308 q 424 372 469 356 q 346 401 383 389 q 284 428 308 414 q 260 461 260 442 q 276 491 260 482 q 326 500 293 500 q 386 490 353 500 q 453 463 419 481 q 511 422 486 446 l 586 558 q 509 607 551 586 q 417 640 467 628 q 313 653 368 653 q 185 632 243 653 q 93 570 128 611 q 58 468 58 529 q 81 376 58 413 q 141 317 104 340 q 219 274 178 293 q 297 244 257 257 q 363 217 336 232 q 390 178 390 203 q 372 144 390 153 q 326 135 354 135 q 273 144 304 135 q 202 178 242 154 q 115 243 163 201 m 275 -93 l 153 -453 l 311 -485 l 485 -137 l 275 -93 z "},"t":{"ha":442,"x_min":7,"x_max":435,"o":"m 7 639 l 7 465 l 435 465 l 435 639 l 7 639 m 119 861 l 119 0 l 321 0 l 321 861 l 119 861 z "},"ţ":{"ha":442,"x_min":-26,"x_max":435,"o":"m 146 15 l 24 -256 q 94 -236 60 -240 q 138 -232 128 -232 q 196 -241 169 -232 q 222 -278 222 -250 q 202 -315 222 -303 q 146 -326 182 -326 q 95 -318 126 -326 q 38 -290 64 -310 l -26 -386 q 69 -428 24 -417 q 174 -440 115 -440 q 260 -424 218 -440 q 328 -373 301 -407 q 356 -289 356 -339 q 335 -213 356 -243 q 286 -169 315 -183 q 229 -154 257 -154 q 203 -155 215 -154 q 178 -158 190 -156 l 299 10 l 146 15 m 7 639 l 7 465 l 435 465 l 435 639 l 7 639 m 119 861 l 119 0 l 321 0 l 321 861 l 119 861 z "},"ť":{"ha":672,"x_min":7,"x_max":739,"o":"m 7 639 l 7 465 l 435 465 l 435 639 l 7 639 m 119 861 l 119 0 l 321 0 l 321 861 l 119 861 m 528 1092 l 406 732 l 564 700 l 739 1047 l 528 1092 z "},"ț":{"ha":442,"x_min":7,"x_max":435,"o":"m 7 639 l 7 465 l 435 465 l 435 639 l 7 639 m 119 861 l 119 0 l 321 0 l 321 861 l 119 861 m 176 -83 l 54 -443 l 213 -475 l 388 -128 l 176 -83 z "},"u":{"ha":799,"x_min":82,"x_max":715,"o":"m 301 250 l 301 639 l 82 639 l 82 228 q 137 49 82 114 q 311 -15 192 -15 q 429 15 382 -15 q 506 96 476 44 l 506 0 l 715 0 l 715 639 l 506 639 l 506 250 q 492 186 506 213 q 453 146 478 160 q 394 132 429 132 q 322 163 343 132 q 301 250 301 194 z "},"ù":{"ha":799,"x_min":82,"x_max":715,"o":"m 506 0 l 715 0 l 715 639 l 506 639 l 506 0 m 301 250 l 301 639 l 82 639 l 82 228 q 137 47 82 110 q 311 -15 192 -15 q 442 22 390 -15 q 521 121 494 58 q 547 258 547 183 l 506 250 q 492 187 506 213 q 453 147 478 161 q 394 132 429 132 q 322 163 343 132 q 301 250 301 193 m 197 956 l 447 747 l 567 807 l 358 1029 l 197 956 z "},"ú":{"ha":799,"x_min":82,"x_max":715,"o":"m 506 0 l 715 0 l 715 639 l 506 639 l 506 0 m 301 250 l 301 639 l 82 639 l 82 228 q 137 47 82 110 q 311 -15 192 -15 q 442 22 390 -15 q 521 121 494 58 q 547 258 547 183 l 506 250 q 492 187 506 213 q 453 147 478 161 q 394 132 429 132 q 322 163 343 132 q 301 250 301 193 m 600 956 l 440 1029 l 232 807 l 350 747 l 600 956 z "},"û":{"ha":799,"x_min":82,"x_max":715,"o":"m 506 0 l 715 0 l 715 639 l 506 639 l 506 0 m 301 250 l 301 639 l 82 639 l 82 228 q 137 47 82 110 q 311 -15 192 -15 q 442 22 390 -15 q 521 121 494 58 q 547 258 547 183 l 506 250 q 492 187 506 213 q 453 147 478 161 q 394 132 429 132 q 322 163 343 132 q 301 250 301 193 m 399 867 l 525 747 l 672 846 l 399 1040 l 125 846 l 271 747 l 399 867 z "},"ü":{"ha":799,"x_min":82,"x_max":715,"o":"m 506 0 l 715 0 l 715 639 l 506 639 l 506 0 m 301 250 l 301 639 l 82 639 l 82 228 q 137 47 82 110 q 311 -15 192 -15 q 442 22 390 -15 q 521 121 494 58 q 547 258 547 183 l 506 250 q 492 187 506 213 q 453 147 478 161 q 394 132 429 132 q 322 163 343 132 q 301 250 301 193 m 447 861 q 483 779 447 811 q 568 747 518 747 q 656 779 619 747 q 692 861 692 811 q 656 943 692 911 q 568 975 619 975 q 483 943 518 975 q 447 861 447 911 m 108 861 q 144 779 108 811 q 231 747 179 747 q 317 779 281 747 q 353 861 353 811 q 317 943 353 911 q 231 975 281 975 q 144 943 179 975 q 108 861 108 911 z "},"ũ":{"ha":799,"x_min":82,"x_max":715,"o":"m 506 0 l 715 0 l 715 639 l 506 639 l 506 0 m 301 250 l 301 639 l 82 639 l 82 228 q 137 47 82 110 q 311 -15 192 -15 q 441 22 390 -15 q 517 121 492 58 q 542 258 542 183 l 506 250 q 492 187 506 213 q 453 147 478 161 q 394 132 429 132 q 322 163 343 132 q 301 250 301 193 m 128 828 l 226 742 q 232 769 226 753 q 252 799 238 786 q 292 813 267 813 q 356 794 326 813 q 417 758 386 776 q 486 739 449 739 q 567 758 529 739 q 633 805 606 776 q 672 858 661 833 l 574 961 q 531 908 553 928 q 483 888 510 888 q 433 899 454 888 q 394 924 413 910 q 351 949 375 938 q 293 960 328 960 q 215 940 250 960 q 157 892 179 921 q 128 828 135 863 z "},"ū":{"ha":799,"x_min":82,"x_max":715,"o":"m 506 0 l 715 0 l 715 639 l 506 639 l 506 0 m 301 250 l 301 639 l 82 639 l 82 228 q 137 47 82 110 q 311 -15 192 -15 q 441 22 390 -15 q 517 121 492 58 q 542 258 542 183 l 506 250 q 492 187 506 213 q 453 147 478 161 q 394 132 429 132 q 322 163 343 132 q 301 250 301 193 m 142 738 l 657 738 l 657 919 l 142 919 l 142 738 z "},"ŭ":{"ha":799,"x_min":82,"x_max":715,"o":"m 506 0 l 715 0 l 715 639 l 506 639 l 506 0 m 301 250 l 301 639 l 82 639 l 82 228 q 137 47 82 110 q 311 -15 192 -15 q 441 22 390 -15 q 517 121 492 58 q 542 258 542 183 l 506 250 q 492 187 506 213 q 453 147 478 161 q 394 132 429 132 q 322 163 343 132 q 301 250 301 193 m 172 940 q 199 838 172 885 q 276 765 225 792 q 400 738 328 738 q 524 765 474 738 q 601 838 575 792 q 628 940 628 885 l 490 940 q 479 897 490 915 q 447 868 468 879 q 400 857 426 857 q 352 868 372 857 q 321 897 332 879 q 310 940 310 915 l 172 940 z "},"ů":{"ha":799,"x_min":82,"x_max":715,"o":"m 506 0 l 715 0 l 715 639 l 506 639 l 506 0 m 301 250 l 301 639 l 82 639 l 82 228 q 137 47 82 110 q 311 -15 192 -15 q 441 22 390 -15 q 517 121 492 58 q 542 258 542 183 l 506 250 q 492 187 506 213 q 453 147 478 161 q 394 132 429 132 q 322 163 343 132 q 301 250 301 193 m 226 897 q 276 782 226 826 q 399 738 326 738 q 522 782 471 738 q 574 897 574 826 q 522 1014 574 969 q 399 1058 471 1058 q 276 1014 326 1058 q 226 897 226 969 m 335 897 q 353 947 335 929 q 399 964 372 964 q 444 947 425 964 q 464 897 464 929 q 444 849 464 867 q 399 832 425 832 q 353 849 372 832 q 335 897 335 867 z "},"ű":{"ha":799,"x_min":82,"x_max":731,"o":"m 269 738 l 471 992 l 300 1033 l 142 772 l 269 738 m 529 738 l 731 992 l 558 1033 l 401 772 l 529 738 m 301 250 l 301 639 l 82 639 l 82 228 q 137 49 82 114 q 311 -15 192 -15 q 429 15 382 -15 q 506 96 476 44 l 506 0 l 715 0 l 715 639 l 506 639 l 506 250 q 492 186 506 213 q 453 146 478 160 q 394 132 429 132 q 322 163 343 132 q 301 250 301 194 z "},"ų":{"ha":799,"x_min":82,"x_max":754,"o":"m 708 -154 q 677 -175 694 -168 q 639 -182 660 -182 q 601 -169 614 -182 q 589 -131 589 -156 q 602 -86 589 -108 q 640 -42 615 -64 q 701 0 665 -19 l 644 35 q 552 -20 596 10 q 481 -85 508 -50 q 453 -167 453 -121 q 474 -242 453 -211 q 533 -290 496 -274 q 615 -306 569 -306 q 706 -288 672 -306 q 754 -250 739 -271 l 708 -154 m 301 250 l 301 639 l 82 639 l 82 228 q 137 49 82 114 q 311 -15 192 -15 q 429 15 382 -15 q 506 96 476 44 l 506 0 l 715 0 l 715 639 l 506 639 l 506 250 q 492 186 506 213 q 453 146 478 160 q 394 132 429 132 q 322 163 343 132 q 301 250 301 194 z "},"v":{"ha":732,"x_min":-4,"x_max":736,"o":"m -4 639 l 365 -75 l 736 639 l 513 639 l 365 285 l 219 639 l -4 639 z "},"w":{"ha":1057,"x_min":-10,"x_max":1067,"o":"m -10 639 l 319 -40 l 526 340 l 738 -40 l 1067 639 l 847 639 l 714 311 l 525 688 l 343 311 l 210 639 l -10 639 z "},"ŵ":{"ha":1057,"x_min":-10,"x_max":1067,"o":"m -10 639 l 319 -40 l 526 340 l 738 -40 l 1067 639 l 847 639 l 714 311 l 525 688 l 343 311 l 210 639 l -10 639 m 525 890 l 653 771 l 800 869 l 525 1064 l 251 869 l 399 771 l 525 890 z "},"ẁ":{"ha":1057,"x_min":-10,"x_max":1067,"o":"m 525 771 l 643 829 l 435 1051 l 275 979 l 525 771 m -10 639 l 319 -40 l 526 340 l 738 -40 l 1067 639 l 847 639 l 714 311 l 525 688 l 343 311 l 210 639 l -10 639 z "},"ẃ":{"ha":1057,"x_min":-10,"x_max":1067,"o":"m 525 771 l 775 979 l 615 1051 l 407 829 l 525 771 m -10 639 l 319 -40 l 526 340 l 738 -40 l 1067 639 l 847 639 l 714 311 l 525 688 l 343 311 l 210 639 l -10 639 z "},"ẅ":{"ha":1057,"x_min":-10,"x_max":1067,"o":"m 572 885 q 608 803 572 835 q 694 771 644 771 q 781 803 746 771 q 817 885 817 835 q 781 967 817 935 q 694 999 746 999 q 608 967 644 999 q 572 885 572 935 m 235 885 q 270 803 235 835 q 357 771 306 771 q 443 803 407 771 q 479 885 479 835 q 443 967 479 935 q 357 999 407 999 q 270 967 306 999 q 235 885 235 935 m -10 639 l 319 -40 l 526 340 l 738 -40 l 1067 639 l 847 639 l 714 311 l 525 688 l 343 311 l 210 639 l -10 639 z "},"ẇ":{"ha":1057,"x_min":-10,"x_max":1067,"o":"m 403 885 q 439 803 403 835 q 525 771 475 771 q 612 803 576 771 q 647 885 647 835 q 612 967 647 935 q 525 999 576 999 q 439 967 475 999 q 403 885 403 935 m -10 639 l 319 -40 l 526 340 l 738 -40 l 1067 639 l 847 639 l 714 311 l 525 688 l 343 311 l 210 639 l -10 639 z "},"ẉ":{"ha":1057,"x_min":-10,"x_max":1067,"o":"m 406 -236 q 442 -318 406 -286 q 528 -350 478 -350 q 615 -318 579 -350 q 650 -236 650 -286 q 615 -154 650 -186 q 528 -122 579 -122 q 442 -154 478 -122 q 406 -236 406 -186 m -10 639 l 319 -40 l 526 340 l 738 -40 l 1067 639 l 847 639 l 714 311 l 525 688 l 343 311 l 210 639 l -10 639 z "},"x":{"ha":739,"x_min":0,"x_max":739,"o":"m 492 639 l 372 471 l 256 639 l 14 639 l 263 328 l 0 0 l 242 0 l 372 186 l 506 0 l 739 0 l 481 328 l 725 639 l 492 639 z "},"y":{"ha":724,"x_min":-12,"x_max":736,"o":"m 736 639 l 521 639 l 317 128 l 425 126 l 218 639 l -12 639 l 264 51 l 108 -306 l 319 -306 l 736 639 z "},"ý":{"ha":724,"x_min":-12,"x_max":736,"o":"m 736 639 l 521 639 l 317 128 l 425 126 l 218 639 l -12 639 l 264 51 l 108 -306 l 319 -306 l 736 639 m 585 956 l 425 1029 l 217 807 l 335 747 l 585 956 z "},"ÿ":{"ha":724,"x_min":-12,"x_max":736,"o":"m 736 639 l 521 639 l 317 128 l 425 126 l 218 639 l -12 639 l 264 51 l 108 -306 l 319 -306 l 736 639 m 408 850 q 444 769 408 801 q 531 738 481 738 q 617 769 582 738 q 653 850 653 801 q 617 932 653 900 q 531 964 582 964 q 444 932 481 964 q 408 850 408 900 m 71 850 q 106 769 71 801 q 193 738 142 738 q 279 769 243 738 q 315 850 315 801 q 279 932 315 900 q 193 964 243 964 q 106 932 142 964 q 71 850 71 900 z "},"ŷ":{"ha":724,"x_min":-12,"x_max":736,"o":"m 736 639 l 521 639 l 317 128 l 425 126 l 218 639 l -12 639 l 264 51 l 108 -306 l 319 -306 l 736 639 m 361 856 l 489 738 l 636 836 l 361 1031 l 88 836 l 235 738 l 361 856 z "},"ỳ":{"ha":724,"x_min":-12,"x_max":736,"o":"m 361 738 l 479 796 l 271 1018 l 111 946 l 361 738 m 736 639 l 521 639 l 317 128 l 425 126 l 218 639 l -12 639 l 264 51 l 108 -306 l 319 -306 l 736 639 z "},"z":{"ha":725,"x_min":21,"x_max":704,"o":"m 357 449 l 21 0 l 660 0 l 660 190 l 385 190 l 704 639 l 79 639 l 79 449 l 357 449 z "},"ź":{"ha":725,"x_min":21,"x_max":704,"o":"m 357 449 l 21 0 l 660 0 l 660 190 l 385 190 l 704 639 l 79 639 l 79 449 l 357 449 m 632 956 l 471 1029 l 263 807 l 382 747 l 632 956 z "},"ż":{"ha":725,"x_min":21,"x_max":704,"o":"m 357 449 l 21 0 l 660 0 l 660 190 l 385 190 l 704 639 l 79 639 l 79 449 l 357 449 m 269 867 q 306 785 269 817 q 392 753 342 753 q 478 785 443 753 q 514 867 514 817 q 478 948 514 917 q 392 979 443 979 q 306 948 342 979 q 269 867 269 917 z "},"ž":{"ha":717,"x_min":21,"x_max":704,"o":"m 392 911 l 265 1029 l 118 931 l 392 736 l 667 931 l 519 1029 l 392 911 m 358 449 l 21 0 l 660 0 l 660 190 l 383 190 l 704 639 l 79 639 l 79 449 l 358 449 z "},"ß":{"ha":838,"x_min":64,"x_max":838,"o":"m 518 -17 q 637 6 579 -17 q 740 67 694 28 q 811 158 785 106 q 838 268 838 210 q 823 353 838 318 q 784 412 808 388 q 733 454 760 436 q 683 487 707 472 q 644 518 660 501 q 629 557 629 535 q 642 602 629 581 q 672 646 654 624 q 708 695 690 668 q 739 760 726 722 q 751 849 751 797 q 706 990 751 932 q 585 1078 661 1049 q 417 1107 510 1107 q 226 1067 304 1107 q 106 952 147 1028 q 64 768 64 876 l 65 -3 l 275 -3 l 274 765 q 290 853 274 819 q 336 903 306 888 q 410 919 367 919 q 474 908 446 919 q 517 872 501 896 q 533 808 533 847 q 521 743 533 772 q 490 689 508 714 q 452 641 471 664 q 421 592 433 618 q 408 536 408 567 q 424 481 408 504 q 463 438 439 457 q 515 403 488 419 q 565 368 542 386 q 604 325 589 350 q 619 267 619 300 q 604 209 619 235 q 563 168 589 183 q 500 153 536 153 q 454 159 479 153 q 406 176 429 165 q 365 199 383 186 l 322 39 q 378 10 346 24 q 445 -10 410 -3 q 518 -17 481 -17 z "},"æ":{"ha":1244,"x_min":33,"x_max":1199,"o":"m 301 -14 q 492 27 417 -14 q 589 143 567 68 l 572 143 q 678 24 608 63 q 856 -14 747 -14 q 1062 33 978 -14 q 1199 175 1146 79 l 1011 221 q 947 159 989 181 q 851 138 904 138 q 774 156 806 138 q 724 210 742 174 q 704 300 707 246 l 676 275 l 1193 275 q 1195 297 1194 281 q 1196 329 1196 313 q 1159 503 1196 431 q 1052 614 1122 575 q 883 653 982 653 q 762 635 818 653 q 663 584 706 618 q 590 500 619 550 l 607 500 q 542 619 597 581 q 383 657 486 657 q 241 639 313 657 q 92 583 169 621 l 163 442 q 226 471 190 458 q 299 490 261 483 q 367 497 336 497 q 451 470 422 497 q 479 393 479 443 l 479 311 l 576 311 q 428 371 488 354 q 310 388 369 388 q 165 361 228 388 q 68 288 103 335 q 33 178 33 242 q 104 37 33 88 q 301 -14 175 -14 m 336 124 q 267 140 289 124 q 244 190 244 157 q 273 253 244 232 q 358 274 301 274 q 438 263 399 274 q 508 233 476 253 l 478 271 l 485 185 l 485 258 q 443 158 481 192 q 336 124 406 124 m 704 328 q 721 428 704 388 q 769 491 738 469 q 847 513 801 513 q 915 496 888 513 q 958 447 943 479 q 974 369 974 415 q 974 359 974 363 q 971 347 974 356 l 1003 392 l 676 392 l 704 328 z "},"ð":{"ha":869,"x_min":69,"x_max":801,"o":"m 431 -22 q 622 25 538 -22 q 753 155 706 72 q 801 342 801 238 q 783 467 801 401 q 729 602 765 533 q 638 744 693 671 q 510 897 583 818 q 349 1056 438 975 l 193 951 q 325 844 264 899 q 438 730 386 789 q 535 609 490 671 q 614 479 579 547 l 674 478 q 363 657 540 657 q 209 617 275 657 q 106 506 143 578 q 69 342 69 435 q 116 153 69 235 q 244 24 163 71 q 431 -22 326 -22 m 435 160 q 357 181 390 160 q 305 238 324 201 q 286 319 286 274 q 306 403 286 367 q 358 460 325 439 q 435 481 392 481 q 511 460 478 481 q 564 403 544 439 q 583 319 583 367 q 565 238 583 274 q 513 181 546 201 q 435 160 479 160 m 218 704 l 701 860 l 678 936 l 194 781 l 218 704 z "},"ø":{"ha":758,"x_min":44,"x_max":775,"o":"m 44 319 q 93 140 44 215 q 224 26 142 65 q 410 -14 307 -14 q 595 26 513 -14 q 726 140 678 65 q 775 319 775 215 q 726 499 775 425 q 595 613 678 574 q 410 653 513 653 q 224 613 307 653 q 93 499 142 574 q 44 319 44 425 m 243 319 q 266 408 243 369 q 326 467 289 446 q 410 489 364 489 q 492 467 454 489 q 553 408 531 446 q 575 319 575 369 q 553 228 575 265 q 492 170 531 190 q 410 150 454 150 q 326 170 364 150 q 266 228 289 190 q 243 319 243 265 m 633 703 l 92 -25 l 171 -69 l 713 658 l 633 703 z "},"þ":{"ha":857,"x_min":81,"x_max":813,"o":"m 290 -306 l 290 1083 l 81 1083 l 81 -306 l 290 -306 m 813 319 q 769 501 813 428 q 656 614 725 575 q 508 653 588 653 q 367 613 429 653 q 268 498 304 572 q 232 319 232 424 q 268 142 232 217 q 367 26 304 67 q 508 -14 429 -14 q 656 25 588 -14 q 769 138 725 64 q 813 319 813 213 m 592 319 q 571 233 592 269 q 515 176 550 196 q 439 156 481 156 q 369 175 403 156 q 313 231 335 194 q 290 319 290 268 q 313 408 290 371 q 369 464 335 444 q 439 483 403 483 q 515 463 481 483 q 571 406 550 443 q 592 319 592 369 z "},"đ":{"ha":857,"x_min":44,"x_max":904,"o":"m 410 785 l 904 785 l 904 924 l 410 924 l 410 785 m 567 1083 l 567 0 l 776 0 l 776 1083 l 567 1083 m 44 319 q 88 138 44 213 q 201 25 132 64 q 349 -14 271 -14 q 491 26 429 -14 q 589 142 553 67 q 625 319 625 217 q 589 498 625 424 q 491 613 553 572 q 349 653 429 653 q 201 614 271 653 q 88 501 132 575 q 44 319 44 428 m 265 319 q 286 406 265 369 q 342 463 307 443 q 418 483 376 483 q 471 473 444 483 q 519 441 497 463 q 553 389 540 419 q 567 319 567 358 q 553 250 567 281 q 519 198 540 219 q 471 166 497 176 q 418 156 444 156 q 342 176 376 156 q 286 233 307 196 q 265 319 265 269 z "},"ħ":{"ha":789,"x_min":7,"x_max":707,"o":"m 293 1083 l 82 1083 l 82 0 l 293 0 l 293 1083 m 497 389 l 497 0 l 707 0 l 707 419 q 685 553 707 499 q 615 635 663 607 q 488 663 567 663 q 358 626 408 663 q 282 527 307 589 q 257 389 257 465 l 293 389 q 307 452 293 426 q 346 492 321 478 q 404 507 371 507 q 476 476 456 507 q 497 389 497 446 m 7 829 l 467 829 l 467 1011 l 7 1011 l 7 829 z "},"ı":{"ha":383,"x_min":90,"x_max":293,"o":"m 90 639 l 90 0 l 293 0 l 293 639 l 90 639 z "},"ĳ":{"ha":757,"x_min":69,"x_max":688,"o":"m 443 879 q 478 797 443 829 q 565 765 514 765 q 651 797 615 765 q 688 879 688 829 q 651 960 688 929 q 565 992 615 992 q 478 960 514 992 q 443 879 443 929 m 332 -107 l 247 -261 q 286 -292 264 -275 q 343 -320 308 -308 q 425 -332 378 -332 q 558 -303 504 -332 q 638 -223 611 -275 q 665 -100 665 -171 l 665 639 l 464 639 l 464 -47 q 456 -101 464 -81 q 433 -133 449 -122 q 397 -143 418 -143 q 363 -135 379 -143 q 332 -107 347 -126 m 69 879 q 106 797 69 829 q 192 765 142 765 q 278 797 243 765 q 314 879 314 829 q 278 960 314 929 q 192 992 243 992 q 106 960 142 992 q 69 879 69 929 m 90 639 l 90 0 l 293 0 l 293 639 l 90 639 z "},"ĸ":{"ha":801,"x_min":81,"x_max":792,"o":"m 81 639 l 81 0 l 282 0 l 282 639 l 81 639 m 514 639 l 240 375 l 546 0 l 792 0 l 492 375 l 764 639 l 514 639 z "},"ŀ":{"ha":661,"x_min":82,"x_max":613,"o":"m 82 1083 l 82 0 l 293 0 l 293 1083 l 82 1083 m 350 568 q 388 478 350 515 q 481 440 425 440 q 576 478 539 440 q 613 568 613 515 q 576 658 613 621 q 481 696 539 696 q 388 658 425 696 q 350 568 350 621 z "},"ł":{"ha":375,"x_min":-64,"x_max":449,"o":"m -10 429 l 449 732 l 396 835 l -64 532 l -10 429 m 82 1083 l 82 0 l 293 0 l 293 1083 l 82 1083 z "},"ŉ":{"ha":1038,"x_min":81,"x_max":954,"o":"m 532 639 l 322 639 l 322 0 l 532 0 l 532 639 m 736 389 l 736 0 l 954 0 l 954 411 q 899 592 954 529 q 726 654 844 654 q 596 617 649 654 q 517 519 543 581 q 490 381 490 457 l 532 389 q 546 452 532 426 q 585 492 560 478 q 643 507 610 507 q 715 476 694 507 q 736 389 736 446 m 154 972 l 81 618 l 229 618 l 372 972 l 154 972 z "},"ŋ":{"ha":799,"x_min":82,"x_max":715,"o":"m 457 -332 q 648 -272 581 -332 q 715 -100 715 -211 l 715 411 q 658 594 715 533 q 488 654 601 654 q 373 626 422 654 q 293 544 324 597 l 293 639 l 82 639 l 82 0 l 293 0 l 293 385 q 306 451 293 424 q 344 492 319 478 q 404 507 369 507 q 474 478 451 507 q 497 389 497 450 l 497 -47 q 480 -119 497 -94 q 431 -143 463 -143 q 365 -107 393 -143 l 281 -261 q 364 -315 321 -297 q 457 -332 407 -332 z "},"œ":{"ha":1250,"x_min":49,"x_max":1203,"o":"m 979 347 l 979 319 l 1199 275 q 1201 300 1200 283 q 1201 325 1201 317 q 1161 499 1201 426 q 1056 613 1121 572 q 914 653 990 653 q 766 619 832 653 q 658 526 700 586 q 603 388 617 467 q 599 354 600 371 q 597 319 597 338 q 635 148 597 224 q 739 29 672 72 q 892 -14 806 -14 q 1022 11 961 -14 q 1128 79 1082 36 q 1203 175 1175 122 l 1017 221 q 953 158 989 183 q 860 133 917 133 q 782 155 815 133 q 731 217 749 176 q 713 319 713 258 l 715 361 q 735 446 715 413 q 786 496 754 479 q 857 513 818 513 q 925 492 897 513 q 966 435 953 472 q 979 347 979 399 m 668 275 l 1199 275 l 1172 390 l 668 390 l 668 275 m 49 319 q 92 142 49 217 q 207 26 135 67 q 365 -14 279 -14 q 516 26 453 -14 q 613 142 579 67 q 647 319 647 217 q 613 498 647 424 q 516 613 579 572 q 365 653 453 653 q 207 613 279 653 q 92 498 135 572 q 49 319 49 424 m 256 319 q 276 407 256 371 q 330 461 296 443 q 406 479 364 479 q 476 461 444 479 q 525 407 507 443 q 543 319 543 371 q 525 232 543 268 q 476 178 507 196 q 406 160 444 160 q 330 178 364 160 q 276 232 296 196 q 256 319 256 268 z "},"ŧ":{"ha":333,"x_min":7,"x_max":435,"o":"m 28 246 l 322 246 l 322 428 l 28 428 l 28 246 m 7 639 l 7 465 l 435 465 l 435 639 l 7 639 m 119 861 l 119 0 l 321 0 l 321 861 l 119 861 z "},"ȷ":{"ha":378,"x_min":-131,"x_max":288,"o":"m -46 -107 l -131 -261 q -92 -292 -115 -275 q -35 -320 -69 -308 q 46 -332 0 -332 q 180 -303 126 -332 q 260 -223 233 -275 q 288 -100 288 -171 l 288 639 l 85 639 l 85 -47 q 77 -101 85 -81 q 54 -133 69 -122 q 18 -143 39 -143 q -16 -135 0 -143 q -46 -107 -32 -126 z "},"μ":{"ha":792,"x_min":82,"x_max":715,"o":"m 301 639 l 82 639 l 82 -444 l 285 -444 l 285 21 q 332 0 311 6 q 376 -6 353 -6 q 451 17 418 -6 q 506 74 483 39 l 506 0 l 715 0 l 715 639 l 506 639 l 506 285 q 492 221 506 247 q 453 181 478 194 q 394 167 429 167 q 322 197 343 167 q 301 285 301 228 l 301 639 z "},"π":{"ha":836,"x_min":42,"x_max":781,"o":"m 125 597 l 125 0 l 322 0 l 322 597 l 125 597 m 42 639 l 42 465 l 781 465 l 781 639 l 42 639 m 472 597 l 472 168 q 503 46 472 85 q 594 -3 533 7 q 743 -12 654 -12 l 743 150 q 706 156 722 150 q 679 181 689 161 q 669 247 669 201 l 669 597 l 472 597 z "},"а":{"ha":756,"x_min":33,"x_max":681,"o":"m 244 190 q 258 235 244 217 q 297 263 271 253 q 358 274 322 274 q 451 260 413 274 q 525 221 489 247 l 525 319 q 478 351 511 335 q 402 377 446 367 q 310 388 358 388 q 164 363 226 388 q 67 292 101 338 q 33 182 33 246 q 63 76 33 119 q 146 9 93 32 q 265 -14 199 -14 q 385 9 332 -14 q 470 76 439 32 q 501 181 501 119 l 479 258 q 460 178 479 207 q 408 136 440 149 q 336 124 375 124 q 290 131 311 124 q 257 153 269 139 q 244 190 244 168 m 163 442 q 208 465 178 451 q 280 488 239 478 q 367 497 321 497 q 449 473 419 497 q 479 408 479 449 l 479 0 l 681 0 l 681 450 q 642 563 681 517 q 537 633 604 608 q 383 657 469 657 q 222 633 297 657 q 92 583 146 610 l 163 442 z "},"б":{"ha":844,"x_min":49,"x_max":796,"o":"m 432 481 q 506 461 472 481 q 560 406 540 442 q 581 319 581 369 q 560 234 581 269 q 506 179 539 199 q 431 160 472 160 q 356 179 390 160 q 301 234 322 199 q 281 319 281 269 l 49 403 q 98 172 49 265 q 234 33 147 79 q 431 -14 321 -14 q 624 29 543 -14 q 751 148 706 72 q 796 319 796 224 q 752 492 796 417 q 630 610 708 567 q 449 653 551 653 l 432 481 m 188 319 l 281 319 q 293 388 281 358 q 327 439 306 418 q 376 470 349 460 q 432 481 403 481 l 449 653 q 341 630 389 653 q 258 564 293 607 q 206 459 224 521 q 188 319 188 397 m 49 403 l 267 321 l 232 472 q 251 603 232 542 q 317 714 269 665 q 450 794 365 763 q 587 867 526 824 q 685 967 647 911 q 729 1083 722 1022 l 528 1083 q 467 996 518 1033 q 322 919 417 958 q 154 803 214 875 q 72 633 94 732 q 49 403 49 533 z "},"в":{"ha":728,"x_min":104,"x_max":686,"o":"m 225 333 l 225 258 l 410 258 q 447 253 432 258 q 472 239 463 247 q 485 219 481 231 q 489 196 489 208 q 472 152 489 172 q 410 132 454 132 l 225 132 l 225 0 l 481 0 q 638 51 590 0 q 686 174 686 101 q 656 271 686 236 q 572 319 625 306 q 453 333 519 333 l 225 333 m 225 306 l 439 306 q 548 323 499 306 q 628 376 597 340 q 658 465 658 411 q 628 566 658 528 q 548 622 597 604 q 439 639 499 639 l 225 639 l 225 507 l 396 507 q 444 490 428 507 q 461 447 461 472 q 457 425 461 436 q 444 406 453 414 q 424 392 436 397 q 396 388 413 388 l 225 388 l 225 306 m 104 639 l 104 0 l 306 0 l 306 639 l 104 639 z "},"г":{"ha":497,"x_min":85,"x_max":494,"o":"m 85 639 l 85 0 l 292 0 l 292 465 l 494 465 l 494 639 l 85 639 z "},"ѓ":{"ha":497,"x_min":85,"x_max":540,"o":"m 85 639 l 85 0 l 292 0 l 292 465 l 494 465 l 494 639 l 85 639 m 540 946 l 381 1018 l 172 796 l 290 738 l 540 946 z "},"д":{"ha":979,"x_min":56,"x_max":917,"o":"m 486 388 l 639 42 l 842 85 l 486 688 l 131 85 l 333 42 l 486 388 m 719 0 l 719 -125 l 917 -125 l 917 164 l 56 164 l 56 -125 l 260 -125 l 260 0 l 719 0 z "},"е":{"ha":799,"x_min":44,"x_max":750,"o":"m 163 275 l 746 275 q 749 306 749 292 q 749 329 749 321 q 709 503 749 431 q 592 614 669 575 q 404 653 515 653 q 226 619 300 653 q 108 526 151 586 q 50 388 64 467 q 46 354 47 371 q 44 319 44 338 q 87 148 44 224 q 210 29 129 72 q 407 -14 292 -14 q 565 9 500 -14 q 674 74 629 32 q 750 175 718 117 l 563 221 q 525 176 547 194 q 473 147 503 157 q 404 138 443 138 q 329 156 363 138 q 276 214 296 174 q 256 319 256 254 l 258 353 q 276 440 258 404 q 326 494 294 475 q 400 513 357 513 q 463 498 438 513 q 503 457 489 483 q 524 392 518 431 l 163 392 l 163 275 z "},"ѐ":{"ha":799,"x_min":44,"x_max":750,"o":"m 163 275 l 746 275 q 749 306 749 292 q 749 329 749 321 q 709 503 749 431 q 592 614 669 575 q 404 653 515 653 q 226 619 300 653 q 108 526 151 586 q 50 388 64 467 q 46 354 47 371 q 44 319 44 338 q 87 148 44 224 q 210 29 129 72 q 407 -14 292 -14 q 565 9 500 -14 q 674 74 629 32 q 750 175 718 117 l 563 221 q 525 176 547 194 q 473 147 503 157 q 404 138 443 138 q 329 156 363 138 q 276 214 296 174 q 256 319 256 254 l 258 353 q 276 440 258 404 q 326 494 294 475 q 400 513 357 513 q 463 498 438 513 q 503 457 489 483 q 524 392 518 431 l 163 392 l 163 275 m 169 946 l 419 738 l 539 796 l 331 1018 l 169 946 z "},"ё":{"ha":799,"x_min":44,"x_max":750,"o":"m 163 275 l 746 275 q 749 306 749 292 q 749 329 749 321 q 709 503 749 431 q 592 614 669 575 q 404 653 515 653 q 226 619 300 653 q 108 526 151 586 q 50 388 64 467 q 46 354 47 371 q 44 319 44 338 q 87 148 44 224 q 210 29 129 72 q 407 -14 292 -14 q 565 9 500 -14 q 674 74 629 32 q 750 175 718 117 l 563 221 q 525 176 547 194 q 473 147 503 157 q 404 138 443 138 q 329 156 363 138 q 276 214 296 174 q 256 319 256 254 l 258 353 q 276 440 258 404 q 326 494 294 475 q 400 513 357 513 q 463 498 438 513 q 503 457 489 483 q 524 392 518 431 l 163 392 l 163 275 m 451 850 q 487 769 451 801 q 574 738 522 738 q 660 769 624 738 q 696 850 696 801 q 660 932 696 900 q 574 964 624 964 q 487 932 522 964 q 451 850 451 900 m 113 850 q 149 769 113 801 q 235 738 185 738 q 322 769 286 738 q 357 850 357 801 q 322 932 357 900 q 235 964 286 964 q 149 932 185 964 q 113 850 113 900 z "},"ж":{"ha":1222,"x_min":0,"x_max":1222,"o":"m 951 639 l 674 375 l 979 0 l 1222 0 l 919 369 l 1194 639 l 951 639 m 711 639 l 511 639 l 511 0 l 711 0 l 711 639 m 271 639 l 28 639 l 303 369 l 0 0 l 243 0 l 549 375 l 271 639 z "},"з":{"ha":744,"x_min":83,"x_max":682,"o":"m 378 319 q 587 356 519 314 q 654 469 654 399 q 620 563 654 522 q 526 628 586 604 q 390 653 467 653 q 248 624 308 653 q 153 545 188 596 q 119 426 119 494 l 310 426 q 321 465 311 449 q 349 492 331 482 q 392 501 368 501 q 443 485 424 501 q 463 443 463 469 q 442 399 463 417 q 378 382 422 382 l 378 319 m 388 -14 q 539 11 472 -14 q 644 81 606 36 q 682 186 682 126 q 603 320 682 272 q 378 361 524 368 l 378 282 q 438 273 414 282 q 474 248 463 264 q 486 208 486 232 q 474 169 486 185 q 439 144 461 153 q 386 135 417 135 q 319 156 346 135 q 282 218 293 178 l 83 218 q 173 49 94 113 q 388 -14 251 -14 z "},"и":{"ha":822,"x_min":85,"x_max":736,"o":"m 729 458 l 736 688 l 92 181 l 85 -49 l 729 458 m 288 639 l 85 639 l 85 -49 l 288 147 l 288 639 m 736 688 l 535 492 l 535 0 l 736 0 l 736 688 z "},"й":{"ha":822,"x_min":85,"x_max":736,"o":"m 729 458 l 736 688 l 92 181 l 85 -49 l 729 458 m 288 639 l 85 639 l 85 -49 l 288 147 l 288 639 m 736 688 l 535 492 l 535 0 l 736 0 l 736 688 m 193 965 q 219 863 193 910 q 297 790 246 817 q 421 763 349 763 q 545 790 494 763 q 622 863 596 817 q 649 965 649 910 l 511 965 q 500 923 511 942 q 468 894 489 904 q 421 883 447 883 q 373 894 393 883 q 342 923 353 904 q 331 965 331 942 l 193 965 z "},"ѝ":{"ha":822,"x_min":85,"x_max":736,"o":"m 729 458 l 736 688 l 92 181 l 85 -49 l 729 458 m 288 639 l 85 639 l 85 -49 l 288 147 l 288 639 m 736 688 l 535 492 l 535 0 l 736 0 l 736 688 m 182 979 l 432 771 l 550 829 l 342 1051 l 182 979 z "},"к":{"ha":801,"x_min":81,"x_max":792,"o":"m 81 639 l 81 0 l 282 0 l 282 639 l 81 639 m 514 639 l 240 375 l 546 0 l 792 0 l 492 375 l 764 639 l 514 639 z "},"ќ":{"ha":611,"x_min":81,"x_max":792,"o":"m 81 639 l 81 0 l 282 0 l 282 639 l 81 639 m 514 639 l 240 375 l 546 0 l 792 0 l 492 375 l 764 639 l 514 639 m 672 946 l 513 1018 l 304 796 l 422 738 l 672 946 z "},"л":{"ha":865,"x_min":14,"x_max":754,"o":"m 754 639 l 115 639 l 115 274 q 85 203 115 219 q 14 188 56 188 l 14 0 q 195 24 129 0 q 289 98 261 49 q 317 222 317 147 l 317 449 l 553 449 l 553 0 l 754 0 l 754 639 z "},"м":{"ha":913,"x_min":7,"x_max":906,"o":"m 694 0 l 906 0 l 713 688 l 607 438 l 694 0 m 413 182 l 454 -43 l 726 406 l 713 688 l 413 182 m 454 -43 l 496 182 l 200 688 l 186 406 l 454 -43 m 7 0 l 218 0 l 306 438 l 200 688 l 7 0 z "},"н":{"ha":854,"x_min":82,"x_max":771,"o":"m 147 258 l 664 258 l 664 415 l 147 415 l 147 258 m 569 639 l 569 0 l 771 0 l 771 639 l 569 639 m 82 639 l 82 0 l 285 0 l 285 639 l 82 639 z "},"о":{"ha":818,"x_min":44,"x_max":775,"o":"m 44 319 q 92 144 44 219 q 222 28 139 69 q 410 -14 306 -14 q 597 28 514 -14 q 727 144 679 69 q 775 319 775 219 q 727 496 775 421 q 597 613 679 571 q 410 654 514 654 q 222 613 306 654 q 92 496 139 571 q 44 319 44 421 m 260 319 q 281 406 260 369 q 335 461 301 442 q 410 481 368 481 q 484 461 450 481 q 538 406 518 442 q 558 319 558 369 q 538 234 558 269 q 484 179 518 199 q 410 160 450 160 q 335 179 368 160 q 281 234 301 199 q 260 319 260 269 z "},"п":{"ha":799,"x_min":82,"x_max":715,"o":"m 715 639 l 82 639 l 82 0 l 285 0 l 285 457 l 514 457 l 514 0 l 715 0 l 715 639 z "},"р":{"ha":857,"x_min":81,"x_max":813,"o":"m 290 -306 l 290 639 l 81 639 l 81 -306 l 290 -306 m 813 319 q 769 508 813 432 q 656 622 725 583 q 508 661 588 661 q 365 619 425 661 q 272 500 304 576 q 240 319 240 424 q 272 140 240 217 q 365 20 304 63 q 508 -22 425 -22 q 656 17 588 -22 q 769 132 725 56 q 813 319 813 208 m 592 319 q 571 235 592 269 q 515 182 550 200 q 439 164 481 164 q 369 181 403 164 q 313 233 335 199 q 290 319 290 268 q 313 406 290 371 q 369 458 335 440 q 439 475 403 475 q 515 457 481 475 q 571 404 550 439 q 592 319 592 369 z "},"с":{"ha":686,"x_min":42,"x_max":617,"o":"m 258 319 q 281 404 258 367 q 342 464 303 442 q 428 486 382 486 q 499 475 463 486 q 566 443 535 464 q 617 392 597 422 l 617 597 q 533 637 583 621 q 411 653 483 653 q 222 611 306 653 q 90 495 138 569 q 42 319 42 421 q 90 144 42 219 q 222 28 138 69 q 411 -14 306 -14 q 533 2 483 -14 q 617 44 583 18 l 617 249 q 567 197 597 218 q 502 165 538 176 q 428 153 467 153 q 342 174 382 153 q 281 231 303 194 q 258 319 258 268 z "},"т":{"ha":463,"x_min":7,"x_max":456,"o":"m 7 639 l 7 465 l 456 465 l 456 639 l 7 639 m 131 611 l 131 0 l 332 0 l 332 611 l 131 611 z "},"у":{"ha":724,"x_min":-12,"x_max":736,"o":"m 736 639 l 521 639 l 317 128 l 425 126 l 218 639 l -12 639 l 264 51 l 108 -306 l 319 -306 l 736 639 z "},"ў":{"ha":611,"x_min":-12,"x_max":736,"o":"m 736 639 l 521 639 l 317 128 l 425 126 l 218 639 l -12 639 l 264 51 l 108 -306 l 319 -306 l 736 639 m 133 940 q 160 838 133 885 q 238 765 186 792 q 361 738 289 738 q 485 765 435 738 q 563 838 536 792 q 590 940 590 885 l 453 940 q 441 897 453 915 q 409 868 429 879 q 361 857 389 857 q 315 868 335 857 q 283 897 294 879 q 271 940 271 915 l 133 940 z "},"ф":{"ha":926,"x_min":44,"x_max":882,"o":"m 364 778 l 364 -139 l 561 -139 l 561 778 l 364 778 m 44 319 q 94 144 44 219 q 238 28 144 69 q 463 -14 332 -14 q 688 28 594 -14 q 832 144 782 69 q 882 319 882 219 q 832 496 882 421 q 688 613 782 571 q 463 654 594 654 q 238 613 332 654 q 94 496 144 571 q 44 319 44 421 m 235 319 q 258 406 235 369 q 331 461 281 442 q 463 481 382 481 q 594 461 543 481 q 668 406 644 442 q 692 319 692 369 q 668 234 692 269 q 594 179 644 199 q 463 160 543 160 q 331 179 382 160 q 258 234 281 199 q 235 319 235 269 z "},"х":{"ha":739,"x_min":0,"x_max":739,"o":"m 492 639 l 372 471 l 256 639 l 14 639 l 263 328 l 0 0 l 242 0 l 372 186 l 506 0 l 739 0 l 481 328 l 725 639 l 492 639 z "},"ц":{"ha":863,"x_min":82,"x_max":835,"o":"m 724 174 l 724 639 l 514 639 l 514 174 l 293 174 l 293 639 l 82 639 l 82 0 l 639 0 l 639 -142 l 835 -142 l 835 174 l 724 174 z "},"ч":{"ha":760,"x_min":69,"x_max":668,"o":"m 319 160 l 538 160 l 538 333 l 379 333 l 319 160 m 458 639 l 458 0 l 668 0 l 668 639 l 458 639 m 279 639 l 69 639 l 69 456 q 92 297 69 363 q 169 195 114 231 q 319 160 224 160 l 379 333 q 322 344 344 333 q 290 377 300 354 q 279 439 279 400 l 279 639 z "},"ш":{"ha":1163,"x_min":82,"x_max":1079,"o":"m 682 174 l 682 639 l 481 639 l 481 174 l 285 174 l 285 639 l 82 639 l 82 0 l 1079 0 l 1079 639 l 878 639 l 878 174 l 682 174 z "},"щ":{"ha":1217,"x_min":82,"x_max":1189,"o":"m 682 174 l 682 639 l 481 639 l 481 174 l 285 174 l 285 639 l 82 639 l 82 0 l 993 0 l 993 -142 l 1189 -142 l 1189 174 l 1078 174 l 1078 639 l 876 639 l 876 174 l 682 174 z "},"ъ":{"ha":850,"x_min":7,"x_max":785,"o":"m 353 288 l 515 288 q 569 270 550 288 q 588 225 588 253 q 579 191 588 206 q 554 169 571 176 q 515 163 538 163 l 353 163 l 353 0 l 551 0 q 671 27 618 0 q 754 106 724 54 q 785 225 785 157 q 717 376 785 328 q 551 424 650 424 l 353 424 l 353 288 m 201 465 l 201 0 l 394 0 l 394 639 l 7 639 l 7 465 l 201 465 z "},"ы":{"ha":1060,"x_min":82,"x_max":978,"o":"m 767 639 l 767 0 l 978 0 l 978 639 l 767 639 m 82 639 l 82 0 l 293 0 l 293 639 l 82 639 m 247 288 l 408 288 q 463 270 444 288 q 482 225 482 253 q 473 191 482 206 q 448 169 464 176 q 408 163 432 163 l 247 163 l 247 0 l 446 0 q 565 27 513 0 q 649 106 618 54 q 679 225 679 157 q 612 376 679 328 q 446 424 544 424 l 247 424 l 247 288 z "},"ь":{"ha":757,"x_min":92,"x_max":688,"o":"m 92 639 l 92 0 l 301 0 l 301 639 l 92 639 m 256 288 l 417 288 q 472 270 453 288 q 490 225 490 253 q 481 191 490 206 q 456 169 472 176 q 417 163 440 163 l 256 163 l 256 0 l 454 0 q 574 27 521 0 q 657 106 626 54 q 688 225 688 157 q 620 376 688 328 q 454 424 553 424 l 256 424 l 256 288 z "},"э":{"ha":686,"x_min":69,"x_max":644,"o":"m 156 388 l 156 251 l 526 251 l 564 388 l 156 388 m 428 319 q 405 213 428 256 q 344 149 382 169 q 257 128 306 128 q 183 139 218 128 q 118 172 147 150 q 69 222 89 193 l 69 44 q 153 2 103 18 q 275 -14 203 -14 q 465 28 382 -14 q 596 144 547 69 q 644 319 644 219 q 596 495 644 421 q 465 611 547 569 q 275 653 382 653 q 153 637 203 653 q 69 597 103 621 l 69 417 q 120 469 89 449 q 188 501 151 490 q 257 511 224 511 q 344 489 306 511 q 405 424 382 467 q 428 319 428 381 z "},"ю":{"ha":1140,"x_min":82,"x_max":1096,"o":"m 147 258 l 522 258 l 522 415 l 147 415 l 147 258 m 82 639 l 82 0 l 285 0 l 285 639 l 82 639 m 365 319 q 413 144 365 219 q 544 28 461 69 q 731 -14 626 -14 q 917 28 835 -14 q 1048 144 1000 69 q 1096 319 1096 219 q 1048 496 1096 421 q 917 613 1000 571 q 731 654 835 654 q 544 613 626 654 q 413 496 461 571 q 365 319 365 421 m 582 319 q 602 406 582 369 q 656 461 622 442 q 731 481 689 481 q 805 461 771 481 q 859 406 839 442 q 879 319 879 369 q 859 234 879 269 q 805 179 839 199 q 731 160 771 160 q 656 179 689 160 q 602 234 622 199 q 582 319 582 269 z "},"я":{"ha":757,"x_min":57,"x_max":700,"o":"m 274 0 l 449 290 l 250 290 l 57 0 l 274 0 m 700 0 l 700 639 l 490 639 l 490 0 l 700 0 m 563 369 l 393 369 q 348 374 367 369 q 319 391 329 379 q 310 421 310 403 q 319 451 310 440 q 348 467 329 463 q 393 472 367 472 l 563 472 l 563 639 l 364 639 q 238 619 299 639 q 141 556 178 599 q 104 439 104 513 q 141 320 104 367 q 238 251 178 274 q 364 229 299 229 l 563 229 l 563 369 z "},"ª":{"ha":375,"x_min":25,"x_max":347,"o":"m 131 736 q 146 768 131 756 q 186 781 161 781 q 233 774 214 781 q 269 754 253 767 l 269 804 q 229 826 260 815 q 163 838 199 838 q 65 809 104 838 q 25 733 25 781 q 58 658 25 685 q 140 632 90 632 q 224 658 190 632 q 258 729 258 683 l 247 768 q 225 715 247 729 q 176 701 203 701 q 142 710 154 701 q 131 736 131 719 m 89 868 q 128 885 100 875 q 190 896 156 896 q 232 883 217 896 q 247 849 247 869 l 247 639 l 347 639 l 347 876 q 306 953 347 926 q 200 979 264 979 q 119 967 157 979 q 53 943 81 956 l 89 868 z "},"º":{"ha":386,"x_min":26,"x_max":392,"o":"m 26 806 q 78 685 26 731 q 208 639 129 639 q 339 685 286 639 q 392 806 392 731 q 339 927 392 882 q 208 972 286 972 q 78 927 129 972 q 26 806 26 882 m 133 806 q 155 865 133 843 q 208 886 176 886 q 261 865 239 886 q 283 806 283 843 q 261 747 283 768 q 208 726 239 726 q 155 747 176 726 q 133 806 133 768 z "},"̀":{"ha":0,"x_min":0,"x_max":368,"o":"m 250 744 l 368 803 l 160 1025 l 0 953 l 250 744 z "},"́":{"ha":0,"x_min":21,"x_max":389,"o":"m 139 749 l 389 957 l 229 1029 l 21 807 l 139 749 z "},"̂":{"ha":0,"x_min":0,"x_max":475,"o":"m 92 763 l 263 903 l 213 903 l 383 763 l 475 879 l 239 1051 l 0 879 l 92 763 z "},"̃":{"ha":0,"x_min":0,"x_max":544,"o":"m 100 800 q 108 832 100 815 q 133 860 117 849 q 174 871 150 871 q 230 852 206 871 q 282 815 254 833 q 350 796 310 796 q 429 815 389 796 q 501 863 469 835 q 544 915 533 890 l 446 1018 q 400 965 424 985 q 347 944 376 944 q 302 956 319 944 q 269 981 285 967 q 232 1006 254 994 q 175 1017 210 1017 q 97 998 133 1017 q 34 949 60 979 q 0 885 8 919 l 100 800 z "},"̄":{"ha":0,"x_min":0,"x_max":517,"o":"m 0 786 l 517 786 l 517 938 l 0 938 l 0 786 z "},"̆":{"ha":0,"x_min":0,"x_max":456,"o":"m 228 758 q 347 784 296 758 q 427 856 399 810 q 456 961 456 901 l 296 961 q 287 919 296 938 q 263 890 278 901 q 228 879 249 879 q 193 890 208 879 q 169 919 178 901 q 161 961 161 938 l 0 961 q 28 856 0 901 q 108 784 57 810 q 228 758 160 758 z "},"̇":{"ha":0,"x_min":0,"x_max":244,"o":"m 122 739 q 210 772 175 739 q 244 853 244 804 q 210 934 244 901 q 122 967 175 967 q 35 934 71 967 q 0 853 0 901 q 35 772 0 804 q 122 739 71 739 z "},"̈":{"ha":0,"x_min":0,"x_max":582,"o":"m 122 764 q 211 795 178 764 q 244 878 244 826 q 211 960 244 929 q 122 992 178 992 q 33 960 67 992 q 0 878 0 929 q 33 795 0 826 q 122 764 67 764 m 460 764 q 549 795 515 764 q 582 878 582 826 q 549 960 582 929 q 460 992 515 992 q 372 960 406 992 q 338 878 338 929 q 371 795 338 826 q 460 764 404 764 z "},"̊":{"ha":0,"x_min":0,"x_max":358,"o":"m 178 722 q 270 744 229 722 q 335 804 311 767 q 358 888 358 842 q 335 972 358 935 q 270 1032 311 1010 q 178 1054 229 1054 q 51 1007 101 1054 q 0 888 0 960 q 51 769 0 817 q 178 722 101 722 m 178 819 q 131 839 150 819 q 111 888 111 858 q 131 938 111 918 q 178 957 150 957 q 226 938 207 957 q 246 888 246 918 q 226 839 246 858 q 178 819 207 819 z "},"̋":{"ha":0,"x_min":0,"x_max":589,"o":"m 128 726 l 329 981 l 158 1022 l 0 761 l 128 726 m 388 726 l 589 981 l 417 1022 l 260 761 l 388 726 z "},"̌":{"ha":0,"x_min":0,"x_max":475,"o":"m 239 763 l 475 936 l 383 1051 l 213 911 l 263 911 l 92 1051 l 0 936 l 239 763 z "},"̒":{"ha":0,"x_min":0,"x_max":332,"o":"m 210 692 l 332 1051 l 175 1083 l 0 736 l 210 692 z "},"̦":{"ha":0,"x_min":0,"x_max":281,"o":"m 114 -286 l 281 -85 l 131 -28 l 0 -244 l 114 -286 z "},"̧":{"ha":0,"x_min":0,"x_max":336,"o":"m 175 -300 q 290 -258 244 -300 q 336 -154 336 -217 q 307 -75 336 -108 q 233 -42 278 -42 q 167 -48 199 -42 q 113 -62 136 -54 l 186 -79 l 271 94 l 153 99 l 57 -114 q 103 -111 81 -111 q 144 -111 126 -111 q 193 -121 178 -111 q 208 -151 208 -131 q 194 -187 208 -174 q 151 -200 179 -200 q 94 -193 124 -200 q 40 -174 65 -186 l 0 -260 q 82 -290 35 -279 q 175 -300 129 -300 z "},"̨":{"ha":0,"x_min":0,"x_max":301,"o":"m 163 -306 q 253 -288 219 -306 q 301 -250 286 -271 l 256 -154 q 224 -175 242 -168 q 186 -182 207 -182 q 150 -169 163 -182 q 138 -131 138 -156 q 150 -86 138 -108 q 188 -42 163 -64 q 249 0 213 -19 l 192 35 q 99 -20 143 10 q 28 -85 56 -50 q 0 -167 0 -121 q 22 -242 0 -211 q 80 -290 43 -274 q 163 -306 117 -306 z "},"０":{"ha":875,"x_min":32,"x_max":840,"o":"m 258 486 q 271 610 258 554 q 307 706 283 667 q 363 767 331 746 q 436 789 396 789 q 509 767 476 789 q 565 706 542 746 q 602 610 589 667 q 615 486 615 554 q 602 362 615 418 q 565 266 589 306 q 509 205 542 226 q 436 183 476 183 q 363 205 396 183 q 307 266 331 226 q 271 362 283 306 q 258 486 258 418 m 32 486 q 83 215 32 328 q 226 42 135 103 q 436 -18 317 -18 q 651 42 561 -18 q 791 215 742 103 q 840 486 840 328 q 791 757 840 644 q 651 930 742 869 q 436 990 561 990 q 226 930 317 990 q 83 757 135 869 q 32 486 32 644 z "},"１":{"ha":875,"x_min":151,"x_max":618,"o":"m 151 692 l 392 751 l 392 0 l 618 0 l 618 990 l 151 896 l 151 692 z "},"２":{"ha":875,"x_min":18,"x_max":842,"o":"m 18 0 l 842 0 l 842 215 l 453 215 l 679 418 q 780 535 742 472 q 818 678 818 599 q 795 791 818 735 q 726 892 772 847 q 613 965 681 938 q 454 992 544 992 q 241 940 328 992 q 110 803 154 889 q 65 613 65 717 l 294 613 q 314 706 294 665 q 367 768 333 746 q 447 790 401 790 q 505 780 481 790 q 545 752 529 769 q 569 713 561 735 q 576 668 576 690 q 561 595 576 629 q 518 526 546 561 q 451 449 490 492 l 18 0 z "},"３":{"ha":875,"x_min":64,"x_max":818,"o":"m 379 471 q 588 499 496 471 q 735 582 681 526 q 790 721 790 638 q 751 857 790 796 q 635 954 711 918 q 449 990 558 990 q 268 951 346 990 q 148 842 190 911 q 106 688 106 774 l 321 688 q 357 771 321 739 q 449 803 393 803 q 510 791 486 803 q 547 757 535 779 q 558 707 558 735 q 546 657 558 681 q 510 615 533 633 q 453 587 486 597 q 379 576 419 576 l 379 471 m 439 -22 q 643 15 558 -22 q 773 116 728 51 q 818 265 818 181 q 786 392 818 339 q 695 478 754 444 q 556 528 636 513 q 379 544 476 544 l 379 425 q 472 415 432 425 q 536 387 511 406 q 574 343 561 368 q 586 288 586 318 q 569 219 586 247 q 519 179 551 192 q 447 167 488 167 q 372 182 407 167 q 317 229 338 197 q 296 308 296 261 l 64 308 q 90 185 64 244 q 163 78 115 125 q 281 4 211 31 q 439 -22 350 -22 z "},"４":{"ha":875,"x_min":17,"x_max":847,"o":"m 17 172 l 847 172 l 847 372 l 618 372 l 594 342 l 208 342 l 17 172 m 236 242 l 494 632 l 494 238 l 468 222 l 468 0 l 711 0 l 711 972 l 538 972 l 17 172 l 236 242 z "},"５":{"ha":875,"x_min":39,"x_max":819,"o":"m 819 311 q 778 483 819 413 q 669 592 736 554 q 525 629 601 629 q 385 608 450 629 q 267 529 321 588 l 103 411 q 201 449 153 436 q 294 467 249 463 q 376 472 339 472 q 467 458 424 472 q 537 415 510 444 q 564 336 564 385 q 541 258 564 290 q 476 211 518 226 q 376 196 435 196 q 298 209 340 196 q 213 245 256 222 q 131 301 169 268 l 39 108 q 140 46 83 75 q 267 -1 196 17 q 428 -18 339 -18 q 568 1 499 -18 q 694 60 638 19 q 785 163 751 100 q 819 311 819 225 m 410 769 l 800 769 l 800 972 l 238 972 l 103 411 l 329 528 l 410 769 z "},"６":{"ha":875,"x_min":42,"x_max":832,"o":"m 272 342 q 294 428 272 390 q 353 486 315 465 q 436 507 390 507 q 520 486 483 507 q 578 428 557 465 q 600 342 600 390 q 578 255 600 292 q 520 198 557 218 q 436 178 483 178 q 353 198 390 178 q 294 255 315 218 q 272 342 272 292 m 435 968 l 154 611 q 74 486 107 553 q 42 342 42 419 q 95 141 42 222 q 238 19 149 60 q 436 -22 328 -22 q 635 19 546 -22 q 778 141 725 60 q 832 342 832 222 q 806 474 832 415 q 736 573 779 532 q 640 635 693 614 q 532 657 586 657 q 444 646 479 657 q 369 596 408 635 l 417 617 l 732 968 l 435 968 z "},"７":{"ha":875,"x_min":54,"x_max":847,"o":"m 54 753 l 503 753 l 124 0 l 376 0 l 847 972 l 54 972 l 54 753 z "},"８":{"ha":875,"x_min":92,"x_max":818,"o":"m 126 738 q 155 622 126 671 q 231 540 183 572 q 336 492 278 507 q 454 476 394 476 q 572 492 514 476 q 678 540 631 507 q 755 622 726 572 q 783 738 783 671 q 738 877 783 819 q 619 965 693 935 q 454 994 544 994 q 290 965 365 994 q 171 877 215 935 q 126 738 126 819 m 346 715 q 360 773 346 747 q 399 813 374 799 q 454 826 424 826 q 511 813 488 826 q 549 773 535 799 q 563 715 563 747 q 549 657 563 682 q 510 618 535 632 q 454 604 486 604 q 399 618 424 604 q 360 657 375 632 q 346 715 346 682 m 92 264 q 121 144 92 197 q 201 54 150 92 q 318 -3 253 17 q 454 -22 383 -22 q 592 -3 526 -22 q 708 54 657 17 q 788 144 758 92 q 818 264 818 197 q 785 395 818 340 q 697 484 751 450 q 578 534 642 518 q 454 550 514 550 q 331 534 394 550 q 213 484 267 518 q 125 395 158 450 q 92 264 92 340 m 325 300 q 342 364 325 335 q 390 410 360 393 q 454 426 419 426 q 519 410 490 426 q 567 364 549 393 q 585 300 585 335 q 567 228 585 257 q 519 183 549 199 q 454 168 490 168 q 390 183 419 168 q 342 228 360 199 q 325 300 325 257 z "},"９":{"ha":875,"x_min":42,"x_max":832,"o":"m 600 631 q 578 544 600 582 q 520 486 557 507 q 436 465 483 465 q 353 486 390 465 q 294 544 315 507 q 272 631 272 582 q 294 717 272 681 q 353 774 315 754 q 436 794 390 794 q 520 774 483 794 q 578 717 557 754 q 600 631 600 681 m 439 4 l 719 361 q 799 486 767 419 q 832 631 832 553 q 778 832 832 751 q 635 953 725 913 q 436 994 546 994 q 238 953 328 994 q 95 832 149 913 q 42 631 42 751 q 67 499 42 557 q 137 399 93 440 q 234 337 181 358 q 342 315 288 315 q 430 327 394 315 q 504 376 465 339 l 456 356 l 142 4 l 439 4 z "},"¹":{"ha":669,"x_min":185,"x_max":465,"o":"m 185 794 l 331 832 l 331 381 l 465 381 l 465 975 l 185 918 l 185 794 z "},"²":{"ha":567,"x_min":35,"x_max":529,"o":"m 35 392 l 529 392 l 529 521 l 296 521 l 431 642 q 492 714 469 675 q 515 799 515 753 q 490 888 515 844 q 417 959 465 931 q 296 988 369 988 q 169 956 221 988 q 90 874 117 925 q 63 760 63 822 l 201 760 q 226 837 201 807 q 292 867 251 867 q 336 856 319 867 q 361 828 353 846 q 369 792 369 811 q 350 728 369 757 q 294 661 331 699 l 35 392 z "},"³":{"ha":507,"x_min":25,"x_max":478,"o":"m 214 671 q 340 688 283 671 q 428 738 396 704 q 461 822 461 772 q 408 936 461 889 q 256 983 354 983 q 106 931 163 983 q 50 801 50 879 l 179 801 q 201 852 179 833 q 256 871 222 871 q 306 855 289 871 q 322 814 322 839 q 308 774 322 793 q 270 745 294 756 q 214 735 246 735 l 214 671 m 250 375 q 417 424 357 375 q 478 549 478 472 q 444 644 478 607 q 351 698 410 681 q 214 715 292 715 l 214 644 q 284 634 257 644 q 325 605 311 624 q 339 561 339 586 q 315 506 339 524 q 254 489 290 489 q 191 510 218 489 q 164 574 164 531 l 25 574 q 51 477 25 522 q 128 403 78 432 q 250 375 179 375 z "},"¼":{"ha":1142,"x_min":33,"x_max":1100,"o":"m 875 972 l 153 0 l 286 0 l 1008 972 l 875 972 m 33 794 l 178 832 l 178 381 l 314 381 l 314 975 l 33 918 l 33 794 m 565 104 l 1100 104 l 1100 224 l 951 224 l 938 206 l 681 206 l 565 104 m 707 146 l 878 379 l 878 143 l 863 135 l 863 0 l 1008 0 l 1008 583 l 904 583 l 565 104 l 707 146 z "},"½":{"ha":1242,"x_min":33,"x_max":1196,"o":"m 875 972 l 153 0 l 286 0 l 1008 972 l 875 972 m 33 794 l 178 832 l 178 381 l 314 381 l 314 975 l 33 918 l 33 794 m 701 3 l 1196 3 l 1196 132 l 963 132 l 1099 253 q 1159 325 1136 286 q 1182 410 1182 364 q 1158 499 1182 456 q 1085 570 1133 542 q 964 599 1036 599 q 836 567 889 599 q 757 485 783 536 q 731 371 731 433 l 868 371 q 894 448 868 418 q 960 478 919 478 q 1003 467 986 478 q 1029 440 1021 457 q 1038 403 1038 422 q 1017 339 1038 368 q 963 272 997 310 l 701 3 z "},"¾":{"ha":1221,"x_min":36,"x_max":1181,"o":"m 964 972 l 242 0 l 375 0 l 1097 972 l 964 972 m 225 671 q 351 688 294 671 q 440 738 407 704 q 472 822 472 772 q 419 936 472 889 q 267 983 365 983 q 118 931 175 983 q 61 801 61 879 l 190 801 q 212 852 190 833 q 267 871 233 871 q 317 855 300 871 q 333 814 333 839 q 319 774 333 793 q 281 745 306 756 q 225 735 257 735 l 225 671 m 261 375 q 428 424 368 375 q 489 549 489 472 q 455 644 489 607 q 362 698 421 681 q 225 715 303 715 l 225 644 q 296 634 268 644 q 337 605 324 624 q 350 561 350 586 q 326 506 350 524 q 265 489 301 489 q 202 510 229 489 q 175 574 175 531 l 36 574 q 63 477 36 522 q 140 403 89 432 q 261 375 190 375 m 644 104 l 1181 104 l 1181 224 l 1032 224 l 1018 206 l 760 206 l 644 104 m 788 146 l 958 379 l 958 143 l 943 135 l 943 0 l 1089 0 l 1089 583 l 985 583 l 644 104 l 788 146 z "},"⁰":{"ha":543,"x_min":29,"x_max":514,"o":"m 164 681 q 177 776 164 736 q 215 840 190 817 q 271 863 240 863 q 328 840 304 863 q 365 776 353 817 q 378 681 378 736 q 365 585 378 625 q 328 522 353 544 q 271 499 304 499 q 215 522 240 499 q 177 585 190 544 q 164 681 164 625 m 29 681 q 60 518 29 586 q 145 414 90 450 q 271 378 200 378 q 400 414 346 378 q 484 518 454 450 q 514 681 514 586 q 484 844 514 776 q 400 947 454 911 q 271 983 346 983 q 145 947 200 983 q 60 844 90 911 q 29 681 29 776 z "},"⁴":{"ha":592,"x_min":22,"x_max":557,"o":"m 22 493 l 557 493 l 557 613 l 408 613 l 394 594 l 138 594 l 22 493 m 164 535 l 335 768 l 335 532 l 319 524 l 319 389 l 465 389 l 465 972 l 361 972 l 22 493 l 164 535 z "},"⁵":{"ha":538,"x_min":33,"x_max":501,"o":"m 501 572 q 476 676 501 633 q 411 742 451 719 q 324 764 371 764 q 242 751 281 764 q 169 704 203 739 l 71 632 q 158 663 115 656 q 235 669 201 669 q 313 650 278 669 q 349 588 349 631 q 318 525 349 546 q 235 504 288 504 q 163 521 203 504 q 88 568 122 538 l 33 451 q 129 398 74 421 q 265 375 185 375 q 376 396 322 375 q 466 460 431 417 q 501 572 501 504 m 256 847 l 489 847 l 489 969 l 153 969 l 71 632 l 207 703 l 256 847 z "},"⁶":{"ha":532,"x_min":31,"x_max":506,"o":"m 169 590 q 183 643 169 621 q 218 678 196 665 q 268 690 240 690 q 318 678 296 690 q 353 643 340 665 q 367 590 367 621 q 339 520 367 547 q 268 493 311 493 q 198 520 226 493 q 169 590 169 547 m 267 967 l 99 753 q 51 678 71 718 q 31 590 31 638 q 63 471 31 519 q 149 397 96 422 q 268 372 203 372 q 388 397 335 372 q 474 471 442 422 q 506 590 506 519 q 478 692 506 650 q 410 758 451 735 q 325 781 369 781 q 273 774 294 781 q 228 743 251 767 l 257 756 l 446 967 l 267 967 z "},"⁷":{"ha":526,"x_min":32,"x_max":508,"o":"m 32 840 l 301 840 l 75 389 l 226 389 l 508 972 l 32 972 l 32 840 z "},"⁸":{"ha":503,"x_min":32,"x_max":468,"o":"m 53 832 q 82 744 53 779 q 157 692 111 708 q 250 675 203 675 q 344 692 299 675 q 418 744 389 708 q 447 832 447 779 q 420 916 447 882 q 348 968 393 950 q 250 986 303 986 q 151 968 196 986 q 79 916 106 950 q 53 832 53 882 m 185 818 q 203 867 185 849 q 250 885 221 885 q 297 867 279 885 q 314 818 314 849 q 306 783 314 799 q 283 760 297 768 q 250 751 268 751 q 217 760 232 751 q 193 783 201 768 q 185 818 185 799 m 32 547 q 62 456 32 494 q 142 396 92 417 q 250 375 193 375 q 357 396 307 375 q 438 456 407 417 q 468 547 468 494 q 448 626 468 593 q 395 679 428 658 q 324 710 363 700 q 250 719 286 719 q 176 710 214 719 q 105 679 138 700 q 52 626 72 658 q 32 547 32 593 m 172 568 q 183 608 172 590 q 210 635 193 625 q 250 644 228 644 q 288 635 271 644 q 317 608 306 625 q 328 568 328 590 q 305 510 328 531 q 250 490 282 490 q 195 510 218 490 q 172 568 172 531 z "},"⁹":{"ha":528,"x_min":32,"x_max":507,"o":"m 368 771 q 355 718 368 740 q 319 683 342 696 q 269 671 297 671 q 219 683 242 671 q 184 718 197 696 q 171 771 171 740 q 199 842 171 815 q 269 868 228 868 q 340 842 313 868 q 368 771 368 815 m 271 394 l 439 608 q 488 684 468 644 q 507 771 507 724 q 475 890 507 842 q 390 964 443 939 q 269 989 336 989 q 151 964 204 989 q 65 890 97 939 q 32 771 32 842 q 59 669 32 713 q 128 603 86 626 q 213 581 169 581 q 265 588 243 581 q 310 618 288 594 l 282 606 l 92 394 l 271 394 z "},"₀":{"ha":543,"x_min":29,"x_max":514,"o":"m 164 292 q 177 388 164 347 q 215 451 190 428 q 271 474 240 474 q 328 451 304 474 q 365 388 353 428 q 378 292 378 347 q 365 196 378 236 q 328 133 353 156 q 271 110 304 110 q 215 133 240 110 q 177 196 190 156 q 164 292 164 236 m 29 292 q 60 129 29 197 q 145 25 90 61 q 271 -11 200 -11 q 400 25 346 -11 q 484 129 454 61 q 514 292 514 197 q 484 455 514 388 q 400 558 454 522 q 271 594 346 594 q 145 558 200 594 q 60 455 90 522 q 29 292 29 388 z "},"₁":{"ha":501,"x_min":125,"x_max":406,"o":"m 125 415 l 269 453 l 269 1 l 406 1 l 406 596 l 125 539 l 125 415 z "},"₂":{"ha":571,"x_min":39,"x_max":533,"o":"m 39 3 l 533 3 l 533 132 l 300 132 l 435 253 q 497 325 474 286 q 519 410 519 364 q 494 499 519 456 q 422 570 469 542 q 300 599 374 599 q 173 567 225 599 q 94 485 121 536 q 67 371 67 433 l 206 371 q 231 448 206 418 q 296 478 257 478 q 340 467 324 478 q 365 440 357 457 q 374 403 374 422 q 354 339 374 368 q 300 272 335 310 l 39 3 z "},"₃":{"ha":517,"x_min":31,"x_max":483,"o":"m 219 282 q 346 299 290 282 q 434 349 401 315 q 467 433 467 383 q 413 547 467 500 q 263 594 360 594 q 113 542 169 594 q 56 413 56 490 l 186 413 q 208 463 186 444 q 261 482 229 482 q 312 466 296 482 q 328 425 328 450 q 315 385 328 404 q 277 356 301 367 q 219 346 253 346 l 219 282 m 256 -14 q 423 35 363 -14 q 483 160 483 83 q 449 255 483 218 q 356 309 415 292 q 219 326 297 326 l 219 256 q 290 245 263 256 q 331 216 318 235 q 344 172 344 197 q 321 117 344 135 q 261 100 297 100 q 197 121 225 100 q 169 185 169 142 l 31 185 q 57 88 31 133 q 134 15 83 43 q 256 -14 185 -14 z "},"₄":{"ha":599,"x_min":19,"x_max":556,"o":"m 19 104 l 556 104 l 556 224 l 407 224 l 393 206 l 135 206 l 19 104 m 163 146 l 333 379 l 333 143 l 318 135 l 318 0 l 464 0 l 464 583 l 360 583 l 19 104 l 163 146 z "},"₅":{"ha":550,"x_min":38,"x_max":506,"o":"m 506 183 q 481 288 506 244 q 415 353 456 331 q 328 375 375 375 q 246 363 285 375 q 174 315 207 350 l 76 243 q 163 274 121 267 q 239 281 206 281 q 317 261 282 281 q 353 199 353 242 q 322 136 353 157 q 239 115 292 115 q 167 132 207 115 q 92 179 126 149 l 38 63 q 135 9 79 32 q 271 -14 190 -14 q 381 7 328 -14 q 470 72 435 28 q 506 183 506 115 m 260 458 l 493 458 l 493 581 l 157 581 l 76 243 l 211 314 l 260 458 z "},"₆":{"ha":547,"x_min":36,"x_max":511,"o":"m 175 201 q 188 254 175 232 q 222 289 200 276 q 274 301 244 301 q 324 289 301 301 q 358 254 346 276 q 371 201 371 232 q 343 131 371 158 q 274 104 315 104 q 203 131 232 104 q 175 201 175 158 m 272 578 l 103 364 q 56 289 75 329 q 36 201 36 249 q 68 82 36 131 q 154 8 100 33 q 274 -17 208 -17 q 393 8 339 -17 q 479 82 447 33 q 511 201 511 131 q 484 303 511 261 q 415 369 457 346 q 329 392 374 392 q 278 385 299 392 q 233 354 257 378 l 261 367 l 450 578 l 272 578 z "},"₇":{"ha":533,"x_min":38,"x_max":513,"o":"m 38 451 l 307 451 l 81 0 l 231 0 l 513 583 l 38 583 l 38 451 z "},"₈":{"ha":511,"x_min":38,"x_max":474,"o":"m 58 443 q 88 355 58 390 q 163 303 117 319 q 256 286 208 286 q 349 303 304 286 q 424 355 394 319 q 453 443 453 390 q 426 527 453 493 q 354 579 399 561 q 256 597 310 597 q 157 579 201 597 q 85 527 113 561 q 58 443 58 493 m 190 429 q 208 478 190 460 q 256 496 226 496 q 302 478 285 496 q 319 429 319 460 q 312 394 319 410 q 290 371 304 379 q 256 363 275 363 q 223 371 238 363 q 199 394 208 379 q 190 429 190 410 m 38 158 q 68 67 38 106 q 149 7 99 28 q 256 -14 199 -14 q 363 7 314 -14 q 443 67 413 28 q 474 158 474 106 q 453 237 474 204 q 401 290 433 269 q 330 321 368 311 q 256 331 292 331 q 181 321 219 331 q 110 290 143 311 q 58 237 78 269 q 38 158 38 204 m 178 179 q 188 219 178 201 q 217 246 199 236 q 256 256 235 256 q 294 246 276 256 q 323 219 313 236 q 333 179 333 201 q 310 122 333 142 q 256 101 288 101 q 201 122 224 101 q 178 179 178 142 z "},"₉":{"ha":553,"x_min":35,"x_max":510,"o":"m 369 382 q 357 329 369 351 q 322 294 344 307 q 272 282 300 282 q 222 294 244 282 q 187 329 200 307 q 174 382 174 351 q 202 453 174 426 q 272 479 231 479 q 342 453 314 479 q 369 382 369 426 m 274 6 l 442 219 q 490 295 469 256 q 510 382 510 335 q 478 501 510 453 q 392 575 446 550 q 272 600 338 600 q 153 575 207 600 q 67 501 100 550 q 35 382 35 453 q 62 281 35 324 q 131 215 89 238 q 215 192 172 192 q 267 199 246 192 q 313 229 289 206 l 283 217 l 94 6 l 274 6 z "},"⅐":{"ha":1307,"x_min":33,"x_max":1278,"o":"m 840 972 l 118 0 l 286 0 l 1008 972 l 840 972 m 33 794 l 178 832 l 178 381 l 314 381 l 314 975 l 33 918 l 33 794 m 801 451 l 1071 451 l 844 0 l 996 0 l 1278 583 l 801 583 l 801 451 z "},"⅑":{"ha":1226,"x_min":33,"x_max":1196,"o":"m 832 972 l 110 0 l 278 0 l 1000 972 l 832 972 m 33 794 l 178 832 l 178 381 l 314 381 l 314 975 l 33 918 l 33 794 m 1056 382 q 1043 329 1056 351 q 1008 294 1031 307 q 958 282 986 282 q 908 294 931 282 q 873 329 886 307 q 860 382 860 351 q 888 453 860 426 q 958 479 917 479 q 1028 453 1001 479 q 1056 382 1056 426 m 960 6 l 1128 219 q 1176 295 1156 256 q 1196 382 1196 335 q 1164 501 1196 453 q 1078 575 1132 550 q 958 600 1024 600 q 839 575 893 600 q 753 501 785 550 q 721 382 721 453 q 748 281 721 324 q 817 215 775 238 q 901 192 858 192 q 954 199 932 192 q 999 229 976 206 l 971 217 l 781 6 l 960 6 z "},"⅒":{"ha":1681,"x_min":33,"x_max":1635,"o":"m 832 972 l 110 0 l 278 0 l 1000 972 l 832 972 m 33 794 l 178 832 l 178 381 l 314 381 l 314 975 l 33 918 l 33 794 m 764 415 l 908 453 l 908 1 l 1044 1 l 1044 596 l 764 539 l 764 415 m 1286 292 q 1299 388 1286 347 q 1336 451 1311 428 q 1393 474 1361 474 q 1449 451 1425 474 q 1487 388 1474 428 q 1500 292 1500 347 q 1487 196 1500 236 q 1449 133 1474 156 q 1393 110 1425 110 q 1336 133 1361 110 q 1299 196 1311 156 q 1286 292 1286 236 m 1150 292 q 1181 129 1150 197 q 1266 25 1211 61 q 1393 -11 1321 -11 q 1521 25 1467 -11 q 1605 129 1575 61 q 1635 292 1635 197 q 1605 455 1635 388 q 1521 558 1575 522 q 1393 594 1467 594 q 1266 558 1321 594 q 1181 455 1211 522 q 1150 292 1150 388 z "},"⅓":{"ha":1213,"x_min":33,"x_max":1179,"o":"m 831 972 l 108 0 l 276 0 l 999 972 l 831 972 m 33 794 l 178 832 l 178 381 l 314 381 l 314 975 l 33 918 l 33 794 m 915 282 q 1040 299 985 282 q 1129 349 1096 315 q 1163 433 1163 383 q 1109 547 1163 500 q 957 594 1056 594 q 807 542 864 594 q 750 413 750 490 l 881 413 q 902 463 881 444 q 956 482 924 482 q 1006 466 990 482 q 1022 425 1022 450 q 1009 385 1022 404 q 972 356 996 367 q 915 346 947 346 l 915 282 m 950 -14 q 1118 35 1057 -14 q 1179 160 1179 83 q 1144 255 1179 218 q 1051 309 1110 292 q 915 326 992 326 l 915 256 q 985 245 957 256 q 1026 216 1013 235 q 1039 172 1039 197 q 1015 117 1039 135 q 956 100 992 100 q 892 121 919 100 q 865 185 865 142 l 725 185 q 752 88 725 133 q 829 15 779 43 q 950 -14 879 -14 z "},"⅔":{"ha":1397,"x_min":42,"x_max":1364,"o":"m 1035 972 l 313 0 l 481 0 l 1203 972 l 1035 972 m 42 392 l 536 392 l 536 521 l 303 521 l 438 642 q 499 714 476 675 q 522 799 522 753 q 497 888 522 844 q 424 959 472 931 q 303 988 376 988 q 176 956 228 988 q 97 874 124 925 q 69 760 69 822 l 208 760 q 233 837 208 807 q 299 867 258 867 q 343 856 326 867 q 368 828 360 846 q 376 792 376 811 q 357 728 376 757 q 301 661 338 699 l 42 392 m 1100 282 q 1225 299 1169 282 q 1314 349 1281 315 q 1347 433 1347 383 q 1294 547 1347 500 q 1142 594 1240 594 q 992 542 1049 594 q 935 413 935 490 l 1065 413 q 1087 463 1065 444 q 1140 482 1108 482 q 1191 466 1175 482 q 1207 425 1207 450 q 1194 385 1207 404 q 1156 356 1181 367 q 1100 346 1132 346 l 1100 282 m 1135 -14 q 1303 35 1242 -14 q 1364 160 1364 83 q 1330 255 1364 218 q 1237 309 1296 292 q 1100 326 1178 326 l 1100 256 q 1169 245 1142 256 q 1210 216 1197 235 q 1224 172 1224 197 q 1200 117 1224 135 q 1140 100 1176 100 q 1077 121 1104 100 q 1050 185 1050 142 l 910 185 q 937 88 910 133 q 1015 15 964 43 q 1135 -14 1065 -14 z "},"⅕":{"ha":1197,"x_min":33,"x_max":1165,"o":"m 832 972 l 110 0 l 278 0 l 1000 972 l 832 972 m 33 794 l 178 832 l 178 381 l 314 381 l 314 975 l 33 918 l 33 794 m 1165 183 q 1140 288 1165 244 q 1075 353 1115 331 q 988 375 1035 375 q 906 363 944 375 q 833 315 867 350 l 736 243 q 823 274 781 267 q 899 281 865 281 q 977 261 942 281 q 1013 199 1013 242 q 982 136 1013 157 q 899 115 951 115 q 826 132 867 115 q 751 179 786 149 l 697 63 q 794 9 739 32 q 931 -14 850 -14 q 1041 7 988 -14 q 1130 72 1094 28 q 1165 183 1165 115 m 919 458 l 1153 458 l 1153 581 l 817 581 l 736 243 l 871 314 l 919 458 z "},"⅖":{"ha":1396,"x_min":42,"x_max":1350,"o":"m 1035 972 l 313 0 l 481 0 l 1203 972 l 1035 972 m 42 392 l 536 392 l 536 521 l 303 521 l 438 642 q 499 714 476 675 q 522 799 522 753 q 497 888 522 844 q 424 959 472 931 q 303 988 376 988 q 176 956 228 988 q 97 874 124 925 q 69 760 69 822 l 208 760 q 233 837 208 807 q 299 867 258 867 q 343 856 326 867 q 368 828 360 846 q 376 792 376 811 q 357 728 376 757 q 301 661 338 699 l 42 392 m 1350 183 q 1325 288 1350 244 q 1260 353 1300 331 q 1174 375 1219 375 q 1090 363 1129 375 q 1018 315 1051 350 l 921 243 q 1008 274 965 267 q 1083 281 1050 281 q 1162 261 1126 281 q 1197 199 1197 242 q 1167 136 1197 157 q 1083 115 1138 115 q 1013 132 1053 115 q 936 179 972 149 l 882 63 q 979 9 924 32 q 1115 -14 1035 -14 q 1226 7 1172 -14 q 1315 72 1279 28 q 1350 183 1350 115 m 1104 458 l 1339 458 l 1339 581 l 1001 581 l 921 243 l 1057 314 l 1104 458 z "},"⅗":{"ha":1292,"x_min":32,"x_max":1243,"o":"m 936 972 l 214 0 l 382 0 l 1104 972 l 936 972 m 221 671 q 347 688 290 671 q 435 738 403 704 q 468 822 468 772 q 415 936 468 889 q 263 983 361 983 q 113 931 169 983 q 57 801 57 879 l 186 801 q 208 852 186 833 q 263 871 229 871 q 313 855 296 871 q 329 814 329 839 q 315 774 329 793 q 277 745 301 756 q 221 735 253 735 l 221 671 m 257 375 q 424 424 364 375 q 485 549 485 472 q 451 644 485 607 q 358 698 417 681 q 221 715 299 715 l 221 644 q 291 634 264 644 q 332 605 318 624 q 346 561 346 586 q 322 506 346 524 q 261 489 297 489 q 198 510 225 489 q 171 574 171 531 l 32 574 q 58 477 32 522 q 135 403 85 432 q 257 375 186 375 m 1243 183 q 1218 288 1243 244 q 1153 353 1193 331 q 1065 375 1113 375 q 983 363 1022 375 q 911 315 944 350 l 814 243 q 901 274 858 267 q 976 281 943 281 q 1055 261 1019 281 q 1090 199 1090 242 q 1060 136 1090 157 q 976 115 1029 115 q 904 132 944 115 q 829 179 864 149 l 775 63 q 872 9 817 32 q 1007 -14 926 -14 q 1118 7 1064 -14 q 1208 72 1172 28 q 1243 183 1243 115 m 997 458 l 1231 458 l 1231 581 l 894 581 l 814 243 l 949 314 l 997 458 z "},"⅘":{"ha":1410,"x_min":31,"x_max":1369,"o":"m 1018 971 l 296 -1 l 464 -1 l 1186 971 l 1018 971 m 31 493 l 565 493 l 565 613 l 418 613 l 404 594 l 146 594 l 31 493 m 172 535 l 343 768 l 343 532 l 328 524 l 328 389 l 474 389 l 474 972 l 369 972 l 31 493 l 172 535 m 1369 183 q 1344 287 1369 244 q 1279 351 1319 329 q 1192 374 1239 374 q 1110 361 1149 374 q 1038 314 1071 349 l 939 243 q 1026 273 983 265 q 1103 281 1069 281 q 1181 261 1146 281 q 1217 199 1217 242 q 1186 135 1217 156 q 1103 114 1156 114 q 1031 131 1071 114 q 956 178 990 149 l 901 61 q 997 8 942 31 q 1133 -14 1053 -14 q 1244 6 1190 -14 q 1334 71 1299 26 q 1369 183 1369 115 m 1124 458 l 1357 458 l 1357 579 l 1021 579 l 939 243 l 1075 313 l 1124 458 z "},"⅙":{"ha":1210,"x_min":33,"x_max":1171,"o":"m 858 972 l 136 0 l 304 0 l 1026 972 l 858 972 m 33 794 l 178 832 l 178 381 l 314 381 l 314 975 l 33 918 l 33 794 m 835 201 q 847 254 835 232 q 883 289 860 276 q 933 301 906 301 q 983 289 961 301 q 1018 254 1006 276 q 1031 201 1031 232 q 1003 131 1031 158 q 933 104 975 104 q 863 131 892 104 q 835 201 835 158 m 932 578 l 764 364 q 716 289 736 329 q 696 201 696 249 q 728 82 696 131 q 814 8 760 33 q 933 -17 868 -17 q 1053 8 999 -17 q 1139 82 1107 33 q 1171 201 1171 131 q 1144 303 1171 261 q 1075 369 1117 346 q 990 392 1033 392 q 938 385 958 392 q 893 354 917 378 l 922 367 l 1110 578 l 932 578 z "},"⅚":{"ha":1293,"x_min":42,"x_max":1254,"o":"m 967 972 l 244 0 l 413 0 l 1135 972 l 967 972 m 510 572 q 485 676 510 633 q 419 742 460 719 q 333 764 379 764 q 250 751 289 764 q 178 704 211 739 l 81 632 q 167 663 125 656 q 243 669 210 669 q 322 650 286 669 q 357 588 357 631 q 326 525 357 546 q 243 504 296 504 q 171 521 211 504 q 96 568 131 538 l 42 451 q 139 398 83 421 q 275 375 194 375 q 385 396 332 375 q 474 460 439 417 q 510 572 510 504 m 264 847 l 499 847 l 499 969 l 161 969 l 81 632 l 217 703 l 264 847 m 918 201 q 931 254 918 232 q 967 289 944 276 q 1017 301 989 301 q 1067 289 1044 301 q 1101 254 1089 276 q 1114 201 1114 232 q 1086 131 1114 158 q 1017 104 1058 104 q 947 131 975 104 q 918 201 918 158 m 1015 578 l 847 364 q 799 289 819 329 q 779 201 779 249 q 811 82 779 131 q 897 8 843 33 q 1017 -17 951 -17 q 1136 8 1082 -17 q 1222 82 1190 33 q 1254 201 1254 131 q 1227 303 1254 261 q 1158 369 1200 346 q 1074 392 1117 392 q 1021 385 1042 392 q 976 354 1000 378 l 1004 367 l 1193 578 l 1015 578 z "},"⅛":{"ha":1236,"x_min":33,"x_max":1194,"o":"m 858 972 l 136 0 l 304 0 l 1026 972 l 858 972 m 33 794 l 178 832 l 178 381 l 314 381 l 314 975 l 33 918 l 33 794 m 779 443 q 808 355 779 390 q 883 303 838 319 q 976 286 929 286 q 1070 303 1025 286 q 1144 355 1115 319 q 1174 443 1174 390 q 1147 527 1174 493 q 1074 579 1119 561 q 976 597 1029 597 q 878 579 922 597 q 806 527 833 561 q 779 443 779 493 m 911 429 q 929 478 911 460 q 976 496 947 496 q 1023 478 1006 496 q 1040 429 1040 460 q 1032 394 1040 410 q 1009 371 1024 379 q 976 363 994 363 q 943 371 958 363 q 919 394 928 379 q 911 429 911 410 m 758 158 q 789 67 758 106 q 869 7 819 28 q 976 -14 919 -14 q 1084 7 1035 -14 q 1164 67 1133 28 q 1194 158 1194 106 q 1174 237 1194 204 q 1122 290 1154 269 q 1051 321 1089 311 q 976 331 1013 331 q 902 321 940 331 q 831 290 864 311 q 778 237 799 269 q 758 158 758 204 m 899 179 q 909 219 899 201 q 937 246 919 236 q 976 256 954 256 q 1015 246 997 256 q 1043 219 1032 236 q 1054 179 1054 201 q 1031 122 1054 142 q 976 101 1008 101 q 922 122 944 101 q 899 179 899 142 z "},"⅜":{"ha":1324,"x_min":32,"x_max":1281,"o":"m 944 972 l 222 0 l 390 0 l 1113 972 l 944 972 m 221 671 q 347 688 290 671 q 435 738 403 704 q 468 822 468 772 q 415 936 468 889 q 263 983 361 983 q 113 931 169 983 q 57 801 57 879 l 186 801 q 208 852 186 833 q 263 871 229 871 q 313 855 296 871 q 329 814 329 839 q 315 774 329 793 q 277 745 301 756 q 221 735 253 735 l 221 671 m 257 375 q 424 424 364 375 q 485 549 485 472 q 451 644 485 607 q 358 698 417 681 q 221 715 299 715 l 221 644 q 291 634 264 644 q 332 605 318 624 q 346 561 346 586 q 322 506 346 524 q 261 489 297 489 q 198 510 225 489 q 171 574 171 531 l 32 574 q 58 477 32 522 q 135 403 85 432 q 257 375 186 375 m 865 443 q 894 355 865 390 q 969 303 924 319 q 1063 286 1015 286 q 1156 303 1111 286 q 1231 355 1201 319 q 1260 443 1260 390 q 1233 527 1260 493 q 1161 579 1206 561 q 1063 597 1117 597 q 964 579 1008 597 q 892 527 919 561 q 865 443 865 493 m 997 429 q 1015 478 997 460 q 1063 496 1033 496 q 1109 478 1092 496 q 1126 429 1126 460 q 1119 394 1126 410 q 1097 371 1111 379 q 1063 363 1082 363 q 1030 371 1044 363 q 1006 394 1015 379 q 997 429 997 410 m 844 158 q 875 67 844 106 q 956 7 906 28 q 1063 -14 1006 -14 q 1170 7 1121 -14 q 1250 67 1219 28 q 1281 158 1281 106 q 1260 237 1281 204 q 1208 290 1240 269 q 1137 321 1175 311 q 1063 331 1099 331 q 988 321 1026 331 q 917 290 950 311 q 865 237 885 269 q 844 158 844 204 m 985 179 q 995 219 985 201 q 1024 246 1006 236 q 1063 256 1042 256 q 1101 246 1083 256 q 1130 219 1119 236 q 1140 179 1140 201 q 1117 122 1140 142 q 1063 101 1094 101 q 1008 122 1031 101 q 985 179 985 142 z "},"⅝":{"ha":1346,"x_min":33,"x_max":1303,"o":"m 967 972 l 244 0 l 413 0 l 1135 972 l 967 972 m 501 572 q 476 676 501 633 q 411 742 451 719 q 324 764 371 764 q 242 751 281 764 q 169 704 203 739 l 71 632 q 158 663 115 656 q 235 669 201 669 q 313 650 278 669 q 349 588 349 631 q 318 525 349 546 q 235 504 288 504 q 163 521 203 504 q 88 568 122 538 l 33 451 q 129 398 74 421 q 265 375 185 375 q 376 396 322 375 q 466 460 431 417 q 501 572 501 504 m 256 847 l 489 847 l 489 969 l 153 969 l 71 632 l 207 703 l 256 847 m 888 443 q 917 355 888 390 q 992 303 946 319 q 1085 286 1038 286 q 1178 303 1133 286 q 1253 355 1224 319 q 1282 443 1282 390 q 1256 527 1282 493 q 1184 579 1229 561 q 1085 597 1139 597 q 987 579 1032 597 q 915 527 942 561 q 888 443 888 493 m 1021 429 q 1038 478 1021 460 q 1085 496 1056 496 q 1132 478 1114 496 q 1150 429 1150 460 q 1142 394 1150 410 q 1119 371 1133 379 q 1085 363 1104 363 q 1052 371 1067 363 q 1029 394 1038 379 q 1021 429 1021 410 m 867 158 q 897 67 867 106 q 978 7 928 28 q 1085 -14 1029 -14 q 1192 7 1143 -14 q 1272 67 1242 28 q 1303 158 1303 106 q 1283 237 1303 204 q 1230 290 1263 269 q 1159 321 1197 311 q 1085 331 1121 331 q 1010 321 1049 331 q 940 290 972 311 q 887 237 907 269 q 867 158 867 204 m 1007 179 q 1018 219 1007 201 q 1047 246 1029 236 q 1085 256 1064 256 q 1124 246 1107 256 q 1152 219 1142 236 q 1163 179 1163 201 q 1140 122 1163 142 q 1085 101 1118 101 q 1030 122 1053 101 q 1007 179 1007 142 z "},"⅞":{"ha":1193,"x_min":32,"x_max":1150,"o":"m 806 972 l 83 0 l 251 0 l 974 972 l 806 972 m 32 840 l 301 840 l 75 389 l 226 389 l 508 972 l 32 972 l 32 840 m 735 443 q 764 355 735 390 q 839 303 793 319 q 932 286 885 286 q 1026 303 981 286 q 1100 355 1071 319 q 1129 443 1129 390 q 1103 527 1129 493 q 1031 579 1076 561 q 932 597 986 597 q 834 579 879 597 q 762 527 789 561 q 735 443 735 493 m 868 429 q 885 478 868 460 q 932 496 903 496 q 979 478 961 496 q 997 429 997 460 q 989 394 997 410 q 966 371 981 379 q 932 363 951 363 q 899 371 914 363 q 876 394 885 379 q 868 429 868 410 m 714 158 q 744 67 714 106 q 826 7 775 28 q 932 -14 876 -14 q 1040 7 990 -14 q 1119 67 1089 28 q 1150 158 1150 106 q 1130 237 1150 204 q 1077 290 1110 269 q 1006 321 1044 311 q 932 331 968 331 q 858 321 896 331 q 787 290 819 311 q 734 237 754 269 q 714 158 714 204 m 854 179 q 865 219 854 201 q 894 246 876 236 q 932 256 911 256 q 972 246 954 256 q 999 219 989 236 q 1010 179 1010 201 q 988 122 1010 142 q 932 101 965 101 q 877 122 900 101 q 854 179 854 142 z "},"_":{"ha":738,"x_min":0,"x_max":738,"o":"m 0 -214 l 738 -214 l 738 -79 l 0 -79 l 0 -214 z "},"-":{"ha":308,"x_min":7,"x_max":301,"o":"m 7 239 l 301 239 l 301 421 l 7 421 l 7 239 z "},"‐":{"ha":308,"x_min":7,"x_max":301,"o":"m 7 239 l 301 239 l 301 421 l 7 421 l 7 239 z "},"‒":{"ha":871,"x_min":97,"x_max":761,"o":"m 97 239 l 761 239 l 761 421 l 97 421 l 97 239 z "},"–":{"ha":1088,"x_min":97,"x_max":982,"o":"m 97 239 l 982 239 l 982 421 l 97 421 l 97 239 z "},"—":{"ha":1306,"x_min":97,"x_max":1204,"o":"m 97 239 l 1204 239 l 1204 421 l 97 421 l 97 239 z "},"(":{"ha":474,"x_min":94,"x_max":454,"o":"m 263 1083 q 137 754 179 928 q 94 403 94 581 q 137 53 94 226 q 263 -278 179 -121 l 454 -278 q 342 53 382 -121 q 301 403 301 226 q 342 754 301 581 q 454 1083 382 928 l 263 1083 z "},")":{"ha":474,"x_min":19,"x_max":379,"o":"m 211 -278 q 337 53 294 -121 q 379 403 379 226 q 337 754 379 581 q 211 1083 294 928 l 19 1083 q 133 754 93 928 q 172 403 172 581 q 133 53 172 226 q 19 -278 93 -121 l 211 -278 z "},"[":{"ha":503,"x_min":126,"x_max":475,"o":"m 335 901 l 475 901 l 475 1083 l 126 1083 l 126 -306 l 475 -306 l 475 -124 l 335 -124 l 335 901 z "},"]":{"ha":503,"x_min":28,"x_max":376,"o":"m 168 -124 l 28 -124 l 28 -306 l 376 -306 l 376 1083 l 28 1083 l 28 901 l 168 901 l 168 -124 z "},"{":{"ha":553,"x_min":53,"x_max":483,"o":"m 368 847 q 386 896 368 875 q 435 917 404 917 l 483 917 l 483 1083 l 357 1083 q 249 1063 300 1083 q 167 1001 199 1043 q 136 889 136 958 l 136 632 q 117 522 136 553 q 53 479 97 490 l 53 326 q 117 285 97 317 q 136 174 136 253 l 136 -83 q 167 -194 136 -151 q 249 -258 199 -237 q 357 -278 300 -278 l 483 -278 l 483 -111 l 435 -111 q 386 -90 404 -111 q 368 -42 368 -68 l 368 125 q 364 222 368 171 q 341 317 360 274 q 282 389 322 361 q 168 417 242 417 l 168 389 q 282 417 242 389 q 341 488 322 444 q 364 583 360 532 q 368 681 368 635 l 368 847 z "},"}":{"ha":553,"x_min":74,"x_max":506,"o":"m 189 -42 q 172 -90 189 -68 q 122 -111 154 -111 l 74 -111 l 74 -278 l 200 -278 q 308 -258 257 -278 q 390 -194 358 -237 q 421 -83 421 -151 l 421 174 q 442 285 421 253 q 506 326 463 317 l 506 479 q 442 522 463 490 q 421 632 421 553 l 421 889 q 390 1001 421 958 q 308 1063 358 1043 q 200 1083 257 1083 l 74 1083 l 74 917 l 122 917 q 172 896 154 917 q 189 847 189 875 l 189 681 q 194 583 189 635 q 217 488 199 532 q 276 417 235 444 q 389 389 317 389 l 389 417 q 276 389 317 417 q 217 317 235 361 q 194 222 199 274 q 189 125 189 171 l 189 -42 z "},"#":{"ha":926,"x_min":49,"x_max":878,"o":"m 104 572 l 301 572 l 339 581 l 622 581 l 663 572 l 878 572 l 878 740 l 104 740 l 104 572 m 49 239 l 822 239 l 822 407 l 650 407 l 608 399 l 289 399 l 244 407 l 49 407 l 49 239 m 658 972 l 586 676 l 585 633 l 514 347 l 497 311 l 422 0 l 604 0 l 840 972 l 658 972 m 324 972 l 88 0 l 268 0 l 344 314 l 344 349 l 414 633 l 433 678 l 504 972 l 324 972 z "},"%":{"ha":1276,"x_min":32,"x_max":1244,"o":"m 32 742 q 66 613 32 672 q 160 520 100 554 q 294 486 219 486 q 428 520 369 486 q 522 613 488 554 q 557 742 557 672 q 522 872 557 814 q 428 964 488 929 q 294 999 369 999 q 160 964 219 999 q 66 872 100 929 q 32 742 32 814 m 204 743 q 216 789 204 768 q 248 822 228 810 q 293 835 268 835 q 341 822 321 835 q 372 789 361 810 q 383 742 383 768 q 372 697 383 718 q 341 663 361 675 q 293 650 321 650 q 248 663 268 650 q 216 697 228 675 q 204 743 204 718 m 719 231 q 754 101 719 160 q 849 8 789 43 q 982 -26 908 -26 q 1117 8 1057 -26 q 1210 101 1176 43 q 1244 231 1244 160 q 1210 360 1244 301 q 1117 453 1176 418 q 982 488 1057 488 q 849 453 908 488 q 754 360 789 418 q 719 231 719 301 m 893 231 q 904 278 893 257 q 935 311 915 299 q 982 324 956 324 q 1028 311 1008 324 q 1060 277 1049 299 q 1072 231 1072 256 q 1060 185 1072 207 q 1028 151 1049 164 q 982 139 1008 139 q 935 151 956 139 q 904 185 915 164 q 893 231 893 207 m 903 972 l 157 0 l 374 0 l 1119 972 l 903 972 z "},"‰":{"ha":1907,"x_min":32,"x_max":1876,"o":"m 1351 231 q 1385 101 1351 160 q 1479 8 1419 43 q 1614 -26 1539 -26 q 1748 8 1689 -26 q 1842 101 1807 43 q 1876 231 1876 160 q 1842 360 1876 301 q 1748 453 1807 418 q 1614 488 1689 488 q 1479 453 1539 488 q 1385 360 1419 418 q 1351 231 1351 301 m 1524 231 q 1535 278 1524 257 q 1567 311 1547 299 q 1614 324 1588 324 q 1660 311 1640 324 q 1692 277 1681 299 q 1703 231 1703 256 q 1692 185 1703 207 q 1660 151 1681 164 q 1614 139 1640 139 q 1567 151 1588 139 q 1535 185 1547 164 q 1524 231 1524 207 m 32 742 q 66 613 32 672 q 160 520 100 554 q 294 486 219 486 q 428 520 369 486 q 522 613 488 554 q 557 742 557 672 q 522 872 557 814 q 428 964 488 929 q 294 999 369 999 q 160 964 219 999 q 66 872 100 929 q 32 742 32 814 m 204 743 q 216 789 204 768 q 248 822 228 810 q 293 835 268 835 q 341 822 321 835 q 372 789 361 810 q 383 742 383 768 q 372 697 383 718 q 341 663 361 675 q 293 650 321 650 q 248 663 268 650 q 216 697 228 675 q 204 743 204 718 m 719 231 q 754 101 719 160 q 849 8 789 43 q 982 -26 908 -26 q 1117 8 1057 -26 q 1210 101 1176 43 q 1244 231 1244 160 q 1210 360 1244 301 q 1117 453 1176 418 q 982 488 1057 488 q 849 453 908 488 q 754 360 789 418 q 719 231 719 301 m 893 231 q 904 278 893 257 q 935 311 915 299 q 982 324 956 324 q 1028 311 1008 324 q 1060 277 1049 299 q 1072 231 1072 256 q 1060 185 1072 207 q 1028 151 1049 164 q 982 139 1008 139 q 935 151 956 139 q 904 185 915 164 q 893 231 893 207 m 903 972 l 157 0 l 374 0 l 1119 972 l 903 972 z "},"‱":{"ha":2539,"x_min":32,"x_max":2507,"o":"m 1982 231 q 2017 101 1982 160 q 2111 8 2051 43 q 2244 -26 2171 -26 q 2379 8 2319 -26 q 2473 101 2439 43 q 2507 231 2507 160 q 2473 360 2507 301 q 2379 453 2439 418 q 2244 488 2319 488 q 2111 453 2171 488 q 2017 360 2051 418 q 1982 231 1982 301 m 2156 231 q 2167 278 2156 257 q 2198 311 2178 299 q 2244 324 2218 324 q 2292 311 2272 324 q 2323 277 2311 299 q 2335 231 2335 256 q 2323 185 2335 207 q 2292 151 2311 164 q 2244 139 2272 139 q 2198 151 2218 139 q 2167 185 2178 164 q 2156 231 2156 207 m 1351 231 q 1385 101 1351 160 q 1479 8 1419 43 q 1614 -26 1539 -26 q 1748 8 1689 -26 q 1842 101 1807 43 q 1876 231 1876 160 q 1842 360 1876 301 q 1748 453 1807 418 q 1614 488 1689 488 q 1479 453 1539 488 q 1385 360 1419 418 q 1351 231 1351 301 m 1524 231 q 1535 278 1524 257 q 1567 311 1547 299 q 1614 324 1588 324 q 1660 311 1640 324 q 1692 277 1681 299 q 1703 231 1703 256 q 1692 185 1703 207 q 1660 151 1681 164 q 1614 139 1640 139 q 1567 151 1588 139 q 1535 185 1547 164 q 1524 231 1524 207 m 32 742 q 66 613 32 672 q 160 520 100 554 q 294 486 219 486 q 428 520 369 486 q 522 613 488 554 q 557 742 557 672 q 522 872 557 814 q 428 964 488 929 q 294 999 369 999 q 160 964 219 999 q 66 872 100 929 q 32 742 32 814 m 204 743 q 216 789 204 768 q 248 822 228 810 q 293 835 268 835 q 341 822 321 835 q 372 789 361 810 q 383 742 383 768 q 372 697 383 718 q 341 663 361 675 q 293 650 321 650 q 248 663 268 650 q 216 697 228 675 q 204 743 204 718 m 719 231 q 754 101 719 160 q 849 8 789 43 q 982 -26 908 -26 q 1117 8 1057 -26 q 1210 101 1176 43 q 1244 231 1244 160 q 1210 360 1244 301 q 1117 453 1176 418 q 982 488 1057 488 q 849 453 908 488 q 754 360 789 418 q 719 231 719 301 m 893 231 q 904 278 893 257 q 935 311 915 299 q 982 324 956 324 q 1028 311 1008 324 q 1060 277 1049 299 q 1072 231 1072 256 q 1060 185 1072 207 q 1028 151 1049 164 q 982 139 1008 139 q 935 151 956 139 q 904 185 915 164 q 893 231 893 207 m 903 972 l 157 0 l 374 0 l 1119 972 l 903 972 z "},"'":{"ha":426,"x_min":85,"x_max":368,"o":"m 146 972 l 85 529 l 222 529 l 368 972 l 146 972 z "},"\"":{"ha":719,"x_min":85,"x_max":661,"o":"m 146 972 l 85 529 l 222 529 l 368 972 l 146 972 m 439 972 l 378 529 l 515 529 l 661 972 l 439 972 z "},"‘":{"ha":460,"x_min":97,"x_max":390,"o":"m 315 618 l 390 972 l 240 972 l 97 618 l 315 618 z "},"’":{"ha":460,"x_min":69,"x_max":363,"o":"m 144 972 l 69 618 l 219 618 l 363 972 l 144 972 z "},"“":{"ha":781,"x_min":97,"x_max":711,"o":"m 315 618 l 390 972 l 240 972 l 97 618 l 315 618 m 636 618 l 711 972 l 561 972 l 418 618 l 636 618 z "},"”":{"ha":781,"x_min":69,"x_max":683,"o":"m 144 972 l 69 618 l 219 618 l 363 972 l 144 972 m 465 972 l 390 618 l 540 618 l 683 972 l 465 972 z "},"‚":{"ha":460,"x_min":83,"x_max":376,"o":"m 158 111 l 83 -243 l 233 -243 l 376 111 l 158 111 z "},"„":{"ha":781,"x_min":69,"x_max":683,"o":"m 144 111 l 69 -243 l 219 -243 l 363 111 l 144 111 m 465 111 l 390 -243 l 540 -243 l 683 111 l 465 111 z "},"‹":{"ha":486,"x_min":39,"x_max":415,"o":"m 207 360 l 415 618 l 285 707 l 39 354 l 285 1 l 415 90 l 207 360 z "},"›":{"ha":486,"x_min":71,"x_max":447,"o":"m 279 349 l 71 90 l 201 1 l 447 354 l 201 707 l 71 618 l 279 349 z "},"«":{"ha":751,"x_min":39,"x_max":697,"o":"m 489 360 l 697 618 l 568 707 l 321 354 l 568 1 l 697 90 l 489 360 m 207 360 l 415 618 l 285 707 l 39 354 l 285 1 l 415 90 l 207 360 z "},"»":{"ha":751,"x_min":54,"x_max":713,"o":"m 263 349 l 54 90 l 183 1 l 431 354 l 183 707 l 54 618 l 263 349 m 544 349 l 336 90 l 467 1 l 713 354 l 467 707 l 336 618 l 544 349 z "},"*":{"ha":822,"x_min":71,"x_max":751,"o":"m 692 838 l 394 694 l 428 596 l 751 656 l 692 838 m 682 438 l 453 675 l 369 615 l 525 325 l 682 438 m 297 325 l 453 615 l 369 675 l 140 438 l 297 325 m 71 656 l 394 596 l 428 694 l 131 838 l 71 656 m 315 972 l 360 646 l 463 646 l 507 972 l 315 972 z "},"†":{"ha":878,"x_min":125,"x_max":753,"o":"m 125 750 l 125 576 l 753 576 l 753 750 l 125 750 m 340 972 l 340 -208 l 538 -208 l 538 972 l 340 972 z "},"‡":{"ha":878,"x_min":125,"x_max":753,"o":"m 125 218 l 125 46 l 753 46 l 753 218 l 125 218 m 125 750 l 125 576 l 753 576 l 753 750 l 125 750 m 340 972 l 340 -208 l 538 -208 l 538 972 l 340 972 z "},".":{"ha":447,"x_min":93,"x_max":354,"o":"m 93 94 q 131 4 93 42 q 224 -33 168 -33 q 318 4 282 -33 q 354 94 354 42 q 318 185 354 147 q 224 222 282 222 q 131 185 168 222 q 93 94 93 147 z "},",":{"ha":450,"x_min":44,"x_max":376,"o":"m 167 153 l 44 -207 l 203 -239 l 376 108 l 167 153 z "},":":{"ha":447,"x_min":93,"x_max":354,"o":"m 93 94 q 131 4 93 42 q 224 -33 168 -33 q 318 4 282 -33 q 354 94 354 42 q 318 185 354 147 q 224 222 282 222 q 131 185 168 222 q 93 94 93 147 m 93 614 q 131 523 93 561 q 224 485 168 485 q 318 523 282 485 q 354 614 354 561 q 318 704 354 667 q 224 742 282 742 q 131 704 168 742 q 93 614 93 667 z "},";":{"ha":546,"x_min":75,"x_max":426,"o":"m 165 606 q 202 515 165 553 q 296 476 239 476 q 390 515 354 476 q 426 606 426 553 q 390 695 426 657 q 296 733 354 733 q 202 695 239 733 q 165 606 165 657 m 197 153 l 75 -207 l 233 -239 l 407 108 l 197 153 z "},"…":{"ha":1285,"x_min":93,"x_max":1188,"o":"m 93 94 q 131 4 93 42 q 224 -33 168 -33 q 318 4 282 -33 q 354 94 354 42 q 318 185 354 147 q 224 222 282 222 q 131 185 168 222 q 93 94 93 147 m 510 94 q 547 4 510 42 q 640 -33 585 -33 q 735 4 699 -33 q 771 94 771 42 q 735 185 771 147 q 640 222 699 222 q 547 185 585 222 q 510 94 510 147 m 926 94 q 964 4 926 42 q 1057 -33 1001 -33 q 1151 4 1115 -33 q 1188 94 1188 42 q 1151 185 1188 147 q 1057 222 1115 222 q 964 185 1001 222 q 926 94 926 147 z "},"!":{"ha":476,"x_min":108,"x_max":369,"o":"m 108 972 l 154 321 l 324 321 l 368 972 l 108 972 m 108 86 q 145 0 108 33 q 239 -33 182 -33 q 333 0 296 -33 q 369 86 369 33 q 333 172 369 139 q 239 206 296 206 q 145 172 182 206 q 108 86 108 139 z "},"¡":{"ha":476,"x_min":108,"x_max":369,"o":"m 368 -318 l 324 332 l 154 332 l 108 -318 l 368 -318 m 369 568 q 333 654 369 621 q 239 688 296 688 q 145 654 182 688 q 108 568 108 621 q 145 482 108 515 q 239 449 182 449 q 333 482 296 449 q 369 568 369 515 z "},"?":{"ha":871,"x_min":67,"x_max":796,"o":"m 583 694 q 557 619 583 658 q 476 553 531 581 q 339 526 422 526 l 294 526 l 322 279 l 492 279 l 497 396 q 640 447 572 408 q 752 547 708 485 q 796 694 796 610 q 766 823 796 767 q 686 919 736 879 q 573 978 636 958 q 442 999 510 999 q 293 977 360 999 q 171 915 226 956 q 67 818 115 875 l 208 701 q 306 791 247 760 q 428 822 364 822 q 512 807 476 822 q 565 763 547 792 q 583 694 583 735 m 276 82 q 314 1 276 35 q 407 -33 351 -33 q 502 1 465 -33 q 539 82 539 35 q 502 163 539 128 q 407 197 465 197 q 314 163 351 197 q 276 82 276 128 z "},"¿":{"ha":871,"x_min":75,"x_max":804,"o":"m 286 278 q 313 353 286 314 q 394 419 340 392 q 532 446 449 446 l 576 446 l 549 693 l 379 693 l 372 576 q 230 526 299 564 q 118 426 161 488 q 75 278 75 364 q 104 149 75 206 q 184 53 133 93 q 298 -6 235 14 q 429 -26 361 -26 q 578 -5 513 -26 q 700 57 644 17 q 804 154 756 97 l 663 271 q 565 181 624 213 q 443 150 507 150 q 358 165 393 150 q 305 209 324 181 q 286 278 286 238 m 593 890 q 557 972 593 938 q 463 1006 521 1006 q 369 972 406 1006 q 332 890 332 938 q 369 810 332 844 q 463 775 406 775 q 557 810 521 775 q 593 890 593 844 z "},"/":{"ha":844,"x_min":21,"x_max":824,"o":"m 622 972 l 21 -208 l 231 -208 l 824 972 l 622 972 z "},"\\":{"ha":758,"x_min":21,"x_max":738,"o":"m 21 972 l 533 0 l 738 0 l 225 972 l 21 972 z "},"⁄":{"ha":1014,"x_min":83,"x_max":974,"o":"m 806 972 l 83 0 l 251 0 l 974 972 l 806 972 z "},"|":{"ha":489,"x_min":139,"x_max":350,"o":"m 139 1090 l 139 -299 l 350 -299 l 350 1090 l 139 1090 z "},"¦":{"ha":489,"x_min":139,"x_max":350,"o":"m 139 965 l 139 597 l 350 597 l 350 965 l 139 965 m 350 375 l 139 375 l 139 7 l 350 7 l 350 375 z "}}}
